<svg width="360" height="505" viewBox="0 0 360 505" fill="none" xmlns="http://www.w3.org/2000/svg">
<mask id="mask0_2075_8429" style="mask-type:alpha" maskUnits="userSpaceOnUse" x="0" y="0" width="360" height="505">
<rect width="360" height="505" fill="#7481FF"/>
</mask>
<g mask="url(#mask0_2075_8429)">
<path d="M-503.946 502.889L-510.067 504.984H-504.238L-503.331 504.672L-503.217 504.984H-501.161L-501.485 504.046L-398.775 468.807C-396.33 479.849 -393.545 491.877 -390.452 504.984H-380.429C-393.529 449.209 -400.686 414.455 -401.641 391.838C-384.882 386.958 -372.203 386.598 -369.175 386.598L-361.16 413.751C-361.079 414.032 -360.869 414.251 -360.593 414.361C-360.48 414.408 -360.35 414.439 -360.221 414.439C-360.059 414.439 -359.897 414.408 -359.751 414.329L-336.499 402.051C-336.062 401.817 -335.884 401.316 -336.062 400.878L-346.328 375.931L-332.953 369.409L-318.363 362.589L-304.049 374.085L-362.844 504.984H-360.723L-334.961 447.629L-299.968 461.08L-297.718 480.256L-330.589 485.183C-331.042 485.245 -331.382 485.605 -331.414 486.059L-332.726 504.984H-330.767L-329.52 486.935L-316.971 485.058L-315.853 504.984H-300.859L-302.64 482.915L-296.503 481.992L-273.105 479.036L-267.891 504.984H-265.899L-271.162 478.786L-257.981 477.112L-255.002 489.922L-264.733 504.969H-262.434L-254.403 492.534L-251.504 504.969H-247.505L-251.18 489.156L-214.213 474.563L-204.934 498.822C-204.772 499.26 -204.287 499.526 -203.801 499.416L-192.774 496.898L-190.329 504.969H-188.288L-191.138 495.506C-191.284 495.021 -191.802 494.74 -192.304 494.849L-203.396 497.383L-212.399 473.843L-135.177 443.359L-81.9033 435.507L-74.3089 451.696C-74.2442 451.821 -74.1632 451.93 -74.0661 452.024L-53.291 469.511L-26.46 499.119L-21.1488 504.969H-18.558L-24.4359 498.493L-12.4048 485.042L-0.908082 502.122C-0.713807 502.404 -0.406129 502.544 -0.0822764 502.544C0.0958852 502.544 0.290221 502.497 0.452147 502.388C0.905517 502.106 1.03503 501.528 0.74359 501.09L-11.4494 482.978L-20.9706 468.009L-1.47479 450.554L8.48364 461.456L8.22455 481.022C8.22455 481.539 8.64557 481.977 9.1961 481.977H9.21228C9.74658 481.977 10.1838 481.57 10.1838 481.038L10.4429 461.096C10.4429 460.861 10.3619 460.642 10.2 460.455L-0.0336924 449.24L9.61706 440.591L34.926 453.838C35.0718 453.917 35.2337 453.948 35.3956 453.948C35.6709 453.948 35.9623 453.823 36.1405 453.604L41.9698 446.847L44.9331 453.932C45.0464 454.198 45.2893 454.402 45.5807 454.495L59.393 458.202L64.0079 471.732C64.0565 471.872 64.1375 471.998 64.2346 472.091L97.1055 504.937H102.239L144.193 466.32C144.193 466.32 144.193 466.32 144.21 466.32C144.21 466.32 144.21 466.304 144.226 466.304L167.656 444.735L212.461 468.478L220.218 486.763L205.952 504.984H208.397L232.799 473.89L232.815 473.906C232.993 474.047 233.22 474.109 233.431 474.109C233.722 474.109 233.997 473.984 234.192 473.765C234.532 473.358 234.467 472.764 234.046 472.436L233.981 472.389L247 455.794L262.577 467.603C258.319 472.795 254.044 477.988 249.769 483.197L249.753 483.212C249.737 483.228 249.72 483.243 249.72 483.259C247.097 486.465 244.474 489.656 241.851 492.863C238.126 497.399 234.775 501.497 231.892 505H249.494C252.505 497.227 255.177 491.799 257.412 489.062C257.736 488.671 258.06 488.264 258.4 487.858L275.191 499.291C275.369 499.401 275.564 499.463 275.758 499.463C276.049 499.463 276.341 499.338 276.535 499.088L282.786 491.08C283.109 490.657 283.028 490.079 282.591 489.766C282.154 489.453 281.555 489.531 281.231 489.953L275.547 497.242L259.614 486.403C269.702 474.094 282.51 458.531 296.468 441.638L332.302 459.031L306.07 504.984H308.305L313.794 495.381L331.995 504.984H336.059L314.733 493.723L336.529 455.528L350.244 431.941C350.292 431.847 350.341 431.738 350.357 431.644L354.535 408.01C354.535 407.995 354.535 407.995 354.535 407.979L439.157 414.314L426.187 425.935C425.847 426.248 425.766 426.748 426.025 427.124L437.781 445.095L399.761 504.984H402.06L439.125 446.55L504.575 504.546L504.3 504.984H509.967L507.522 504.03L538.434 471.857L582.024 491.236C580.308 495.725 578.559 500.323 576.794 504.984H587.222C589.181 499.792 591.124 494.693 593.003 489.766C596.371 495.115 599.625 500.261 602.653 504.984H614.15C611.381 500.714 608.288 495.881 604.985 490.673L631.751 500.886L641.775 504.984H646.778L633.387 499.51L652.624 454.151L660.768 457.342L660.768 455.309L653.368 452.399L660.768 434.944L660.768 429.97L659.262 433.505L642.001 425.685L647.053 415.409L660.768 420.398L660.768 418.38L647.879 413.688L652.105 405.086C652.267 404.741 652.203 404.366 651.976 404.085L660.768 407.588L660.768 405.555L633.792 394.825C635.136 391.947 636.528 388.975 637.921 385.972L660.768 395.216L660.768 393.167L638.714 384.252C641.645 377.933 644.608 371.473 647.458 365.248L660.785 370.472L660.785 360.29L651.425 356.614C654.955 348.872 658.145 341.818 660.623 336.328L660.785 336.406L660.785 309.895C650.956 327.538 637.354 344.586 605.552 353.721C603.965 353.955 602.362 354.221 600.743 354.534C586.477 357.287 549.801 356.849 518.873 355.441L529.155 322.517L555.047 288.451L587.805 311.146C587.983 311.271 588.177 311.318 588.372 311.318C588.679 311.318 588.971 311.177 589.165 310.927C589.473 310.505 589.375 309.91 588.938 309.613L556.181 286.949L573.733 263.848L660.785 298.633L660.785 296.6L573.944 261.892L549.687 239.682L590.849 190.836L660.768 224.464L660.768 213.922L596.095 182.812L660.785 59.6548L660.785 42.6374L642.455 46.5007L648.009 27.4187C651.231 28.9828 655.7 30.9536 660.801 32.7992L660.801 22.6795C654.631 20.2395 649.887 17.7682 648.154 16.8298C641.24 8.66522 581.781 -61.5314 571.272 -71.0411C560.941 -80.4101 523.083 -96.7862 513.999 -100.634C488.447 -145.946 450.557 -213.953 448.371 -220.115C447.61 -223.728 444.533 -250.975 441.716 -277.048H431.903C432.47 -271.746 433.101 -265.975 433.749 -260.156L427.547 -277.064H417.184L420.471 -268.102L375.018 -271.464L375.877 -277.064H373.901L373.059 -271.605L332.885 -274.577L332.61 -277.064H328.675L328.983 -274.389L308.726 -271.183L307.204 -277.064H305.196L306.815 -270.886L275.807 -265.99L274.576 -277.064H272.617L273.863 -265.677L233.641 -259.327L230.629 -277.064H228.654L231.714 -259.014L192.285 -252.789C192.107 -261.204 191.961 -269.15 191.848 -276.063L197.969 -277.064H169.94L141.797 -275.985L141.862 -277.064H139.902L138.558 -252.351H125.766C125.556 -252.351 125.362 -252.289 125.183 -252.164C125.038 -252.054 113.589 -243.936 104.667 -237.743L102.562 -250.834L117.362 -257.059C117.67 -257.184 117.897 -257.481 117.945 -257.81L120.293 -275.375C120.358 -275.875 120.018 -276.329 119.5 -276.423L115.905 -277.064H105.267L118.253 -274.718L116.099 -258.576L101.121 -252.273C100.716 -252.101 100.474 -251.694 100.538 -251.256L102.902 -236.507C100.684 -234.974 98.6924 -233.613 97.1865 -232.597C89.9322 -227.748 60.9475 -218.582 58.4377 -217.8L38.1646 -218.926L1.7475 -258.17L-3.07788 -272.903L3.39911 -277.064H-0.130859L-3.69318 -274.78L-4.45422 -277.064H-6.51068L-0.0660401 -257.419C-0.0174561 -257.294 0.0473022 -257.169 0.14447 -257.075L35.9948 -218.41L-40.0941 -191.336C-41.8752 -191.727 -53.032 -194.37 -55.2018 -200.892C-56.0276 -203.348 -61.8731 -216.033 -69.516 -232.503C-69.4998 -232.503 -69.4674 -232.503 -69.4512 -232.518L-32.2245 -250.13L-22.3956 -227.779C-22.2822 -227.529 -22.0717 -227.341 -21.8126 -227.263C-21.7155 -227.232 -21.6022 -227.216 -21.4888 -227.216C-21.3269 -227.216 -21.165 -227.263 -21.0192 -227.341L1.50464 -239.447C1.73132 -239.573 1.90948 -239.792 1.97424 -240.042C2.039 -240.292 2.00659 -240.558 1.86084 -240.777L-16.793 -269.76C-17.0197 -270.119 -17.4731 -270.276 -17.8941 -270.166L-36.6613 -265.052L-41.94 -277.064H-44.0612L-32.9855 -251.866L-70.2932 -234.208C-70.617 -234.912 -70.9409 -235.6 -71.2647 -236.304C-76.9807 -248.613 -83.733 -263.159 -90.0643 -277.064H-92.2017C-85.8866 -263.206 -79.0858 -248.519 -73.0459 -235.537C-64.5772 -217.284 -57.8897 -202.863 -57.0315 -200.314C-54.7807 -193.541 -44.9842 -190.585 -41.4542 -189.725C-43.8345 -185.439 -52.789 -169.548 -56.7886 -165.685C-60.0109 -162.572 -72.9488 -155.017 -80.624 -150.654L-110.985 -179.98L-157.102 -277.064H-167.853L-148.26 -235.803L-220.042 -242.013C-213.014 -252.289 -204.546 -264.661 -196.045 -277.064H-207.768C-215.087 -266.397 -222.681 -255.307 -229.142 -245.829L-223.102 -277.064H-225.094L-229.369 -254.932L-267.794 -264.504L-265.138 -277.064H-267.13L-274.384 -242.763L-317.197 -253.649L-315.416 -277.064H-317.375L-319.205 -253.008L-319.205 -252.993L-319.205 -252.977L-322.023 -190.397C-322.039 -189.944 -321.731 -189.553 -321.294 -189.443L-303.223 -184.986L-341.519 -160.414L-371.054 -244.202C-367.394 -248.879 -359.023 -260.813 -354.003 -277.08H-364.301C-369.046 -263.394 -376.171 -253.368 -379.02 -249.708L-385.481 -260.672C-385.627 -260.922 -385.87 -261.079 -386.161 -261.141C-386.453 -261.188 -386.744 -261.11 -386.971 -260.938L-400.33 -249.974L-436.099 -277.064H-439.257L-401.82 -248.691L-438.48 -218.614L-439.872 -245.282C-439.888 -245.688 -440.196 -246.048 -440.601 -246.142L-451.757 -248.863C-451.952 -248.91 -452.146 -248.895 -452.34 -248.832L-474.767 -240.746L-510.294 -243.827L-502.926 -270.589H-489.13C-488.693 -270.589 -488.304 -270.886 -488.191 -271.292L-486.62 -277.064H-488.644L-489.891 -272.466H-503.59L-514.633 -274.702L-514.164 -277.064H-516.155L-516.544 -275.093L-526.276 -277.064H-535.797L-516.9 -273.248L-522.616 -244.515L-541.837 -235.553L-553.657 -237.789L-553.657 -235.866L-542.792 -233.801L-544.832 -217.91L-553.657 -220.131L-553.657 -218.176L-551.18 -217.55L-553.657 -192.149L-553.657 -172.019L-551.973 -189.287L-517.872 -182.796L-520.851 -150.513L-553.657 -151.576L-553.657 -149.684L-519.993 -148.589H-519.961L-484.353 -149.121L-478.459 -112.49C-505.144 -114.695 -533.935 -122.484 -553.657 -128.756L-553.657 -118.793C-549.042 -117.354 -544.023 -115.868 -538.647 -114.382C-509.921 -106.437 -485.147 -102.433 -464.792 -102.433C-461.732 -102.433 -458.769 -102.526 -455.919 -102.698C-448.454 -103.168 -440.827 -104.45 -433.233 -106.265L-401.868 -98.9603L-405.285 -78.7209C-418.304 -81.3798 -433.719 -85.3526 -433.946 -85.3995C-434.01 -85.4152 -434.075 -85.4308 -434.124 -85.4308L-461.894 -87.3234C-462.04 -87.3234 -462.185 -87.3077 -462.315 -87.2608L-532.963 -60.7025L-553.657 -82.3652L-553.657 -79.5811L-534.242 -59.2479L-535.068 -39.2587C-535.068 -39.1179 -535.052 -38.9928 -535.003 -38.8677L-522.778 -9.69727L-524.43 -2.28348L-553.657 -63.3927L-553.657 -40.901L-523.442 22.3041C-527.182 24.4782 -530.421 26.3708 -533.076 27.9193L-553.657 14.1083L-553.657 25.5887L-539.327 35.2079L-546.662 51.5684C-548.411 47.6112 -550.726 43.5446 -553.657 39.4936L-553.657 60.6089C-553.107 62.3607 -552.653 64.0655 -552.313 65.7547C-552.281 66.0363 -552.232 66.3178 -552.135 66.5994C-549.965 78.0329 -552.232 87.4019 -553.657 91.7344L-553.657 107.344L-546.452 99.2733C-546.128 98.9136 -545.869 98.5226 -545.674 98.0847C-545.269 97.1775 -539.278 83.5542 -542.355 65.7078L-529.385 36.7877C-526.097 34.8639 -522.729 32.9087 -519.313 30.9067L-489.842 92.5634L-512.641 100.791C-512.982 100.916 -513.208 101.197 -513.273 101.541L-515.637 116.791L-527.377 142.458L-546.889 152.093C-547.342 152.312 -547.536 152.844 -547.342 153.297L-498.813 264.927L-490.555 283.899C-494.83 285.776 -498.975 287.622 -503.007 289.405L-553.657 175.116L-553.657 179.903L-504.772 290.218C-507.217 291.298 -509.597 292.361 -511.945 293.393L-553.657 198.328L-553.657 203.161L-513.71 294.175C-519.054 296.553 -524.138 298.805 -528.915 300.932L-543.585 264.27C-543.78 263.785 -544.347 263.55 -544.848 263.722C-545.35 263.91 -545.61 264.458 -545.415 264.943L-530.696 301.714C-539.505 305.625 -547.213 309.066 -553.657 311.959L-553.657 322.36C-546.63 319.217 -537.691 315.213 -527.182 310.536L-514.552 342.099C-527.798 347.683 -540.59 353.079 -552.2 357.959L-553.657 353.783L-553.657 360.618C-553.56 360.571 -553.479 360.54 -553.382 360.509L-525.952 439.496L-553.657 450.616L-553.657 452.665L-525.336 441.294L-503.946 502.889ZM-313.894 504.953L-315.028 484.761L-304.583 483.197L-302.883 504.39L-313.894 504.953ZM-35.9002 -263.3L-18.0721 -268.164L-0.357483 -240.589L-21.0355 -229.468L-35.9002 -263.3ZM-399.196 466.946L-502.1 502.263L-523.523 440.575L-492.239 428.015C-491.753 427.812 -491.51 427.28 -491.705 426.795L-498.262 410.482C-498.279 410.435 -498.311 410.404 -498.343 410.357L-414.725 381.452L-411.276 380.263C-412.588 399.236 -408.167 426.342 -399.196 466.946ZM210.826 -181.075C210.858 -181.419 210.696 -181.748 210.405 -181.936C210.113 -182.123 209.741 -182.155 209.417 -181.998L194.763 -174.991C194.131 -186.049 193.581 -201.596 193.127 -217.988L238.871 -216.878L239.276 -214.484C239.179 -213.468 238.531 -206.57 238.418 -196.701C238.418 -196.638 238.402 -196.591 238.418 -196.529C238.369 -191.461 238.466 -185.611 238.855 -179.37C238.855 -179.355 238.839 -179.324 238.839 -179.308C238.839 -179.261 238.855 -179.23 238.871 -179.183C239.438 -170.158 240.636 -160.351 242.887 -150.92C245.316 -140.784 251.534 -119.2 258.707 -95.1439L202.665 -85.5872C202.551 -87.12 202.438 -88.6685 202.325 -90.2169L210.826 -181.075ZM201.466 -101.963C199.523 -127.599 197.402 -152.875 196.042 -160.445C195.637 -162.728 195.249 -167.124 194.892 -172.973L208.737 -179.589L201.466 -101.963ZM338.115 -193.651L341.095 -167.249L319.947 -173.568L319.947 -195.621L338.115 -193.651ZM319.947 -197.545L319.947 -224.338L334.974 -221.413L337.889 -195.575L319.947 -197.545ZM295.885 -114.867L290.785 -129.241L345.046 -132.369L345.904 -124.752L295.885 -114.867ZM346.115 -122.891L347.054 -114.648L302.265 -96.9269L296.533 -113.084L346.115 -122.891ZM290.121 -131.102L287.692 -137.938C287.514 -138.438 286.963 -138.688 286.445 -138.516C285.927 -138.344 285.668 -137.812 285.846 -137.312L300.759 -95.3315C300.84 -95.0813 301.035 -94.8936 301.277 -94.7841C301.407 -94.7216 301.536 -94.7059 301.682 -94.7059C301.812 -94.7059 301.941 -94.7372 302.055 -94.7685L347.281 -112.662L347.297 -112.443C342.034 -93.8926 334.731 -73.8565 329.663 -65.6606L273.831 -51.7402C262.237 -89.7947 248.652 -135.185 244.782 -151.357C242.628 -160.351 241.462 -169.704 240.879 -178.369H267.694C268.228 -178.369 268.666 -178.792 268.666 -179.308L268.666 -186.909L286.704 -181.513L277.766 -155.471C277.604 -154.971 277.879 -154.439 278.381 -154.282C278.478 -154.251 278.592 -154.235 278.689 -154.235C279.094 -154.235 279.482 -154.486 279.612 -154.877L288.55 -180.95L298.298 -178.041L298.298 -153.047C298.298 -152.531 298.735 -152.108 299.27 -152.108H342.779L344.803 -134.231L290.121 -131.102ZM387.81 -38.1169L382.677 -49.613C382.467 -50.0822 381.916 -50.3012 381.431 -50.1135L372.039 -46.5787C371.683 -46.4535 371.456 -46.1407 371.424 -45.781L370.063 -29.2172L342.989 -22.1162C342.487 -21.9911 342.18 -21.5062 342.293 -21.0213L345.937 -3.78497C346.034 -3.33139 346.439 -3.03421 346.892 -3.03421C346.957 -3.03421 347.021 -3.03421 347.086 -3.04987L392.409 -11.9652C392.668 -4.64523 392.879 1.34525 392.992 4.59857C370.841 4.22321 344.771 3.39423 340.48 1.14191C334.667 -1.92371 302.476 -27.6218 282.154 -44.1074L390.207 -71.0411C390.466 -64.253 390.936 -51.7245 391.438 -38.6331L387.81 -38.1169ZM391.486 -36.7249C391.778 -28.8262 392.085 -20.8493 392.328 -13.8734L347.637 -5.08319L344.382 -20.5208L371.229 -27.5436C371.634 -27.6531 371.909 -27.9816 371.942 -28.3726L373.302 -45.0146L381.236 -48.002L386.288 -36.6779C386.466 -36.2869 386.904 -36.0523 387.325 -36.1149L391.486 -36.7249ZM468.595 310.207C468.595 310.27 468.595 310.333 468.595 310.395C468.838 321.109 468.126 330.525 467.786 333.544C465.664 332.949 460.515 331.495 453.633 329.446C453.649 329.368 453.666 329.305 453.649 329.227L450.362 302.934C450.298 302.418 449.812 302.043 449.277 302.105C448.743 302.168 448.354 302.637 448.419 303.153L451.625 328.836C438.979 325.035 421.394 319.467 405.962 313.586C413.233 305.859 418.56 300.729 421.135 299.243C428.6 294.911 446.039 288.639 464.741 282.539C467.381 290.39 468.368 300.776 468.595 310.207ZM466.587 281.944C485.112 275.938 504.591 270.167 516.719 266.647L470.457 308.205C470.133 299.134 469.081 289.421 466.587 281.944ZM197.256 327.006C197.111 326.537 196.593 326.255 196.107 326.365L180.61 329.915C180.109 330.025 179.785 330.494 179.866 330.979L181.938 343.335L168.725 347.37L160.71 322.97L208.672 311.459L212.137 332.918L200.689 337.517L197.256 327.006ZM198.86 338.189L183.833 342.772L181.954 331.557L195.686 328.414L198.86 338.189ZM179.72 380.826L174.911 366.186L217.189 355.222L221.416 370.41L179.72 380.826ZM221.918 372.224L227.504 392.291L183.946 401.566L180.19 382.656L221.918 372.224ZM178.117 382.14L182.068 402.098L146.946 415.315L122.463 387.943L163.187 336.766L167.154 348.841L167.154 348.856C167.154 348.856 167.154 348.856 167.154 348.872L172.708 365.764L172.708 365.78C172.708 365.795 172.725 365.795 172.725 365.795L178.117 382.14ZM145.278 416.316L118.561 438.166L98.8542 417.583L121.249 389.445L145.278 416.316ZM162.475 334.576L97.5103 416.206L58.972 375.962L142.072 298.711L154.735 311.944L128.001 341.849C127.645 342.24 127.693 342.834 128.098 343.179C128.503 343.523 129.118 343.476 129.474 343.085L155.642 313.805L162.475 334.576ZM56.3002 375.837L48.6736 382.922L28.109 359.789L58.5024 330.713L79.7632 354.002L57.5956 374.617C57.2394 374.461 56.8184 374.507 56.5107 374.773C56.2193 375.055 56.1383 375.477 56.3002 375.837ZM-97.4319 365.811C-97.9177 365.592 -98.5006 365.78 -98.7435 366.249L-107.455 383.423L-117.64 384.658L-125.882 372.099L-114.094 358.163H-96.0717C-95.5374 358.163 -95.1002 357.74 -95.1002 357.224C-95.1002 356.708 -95.5374 356.286 -96.0717 356.286H-113.576L-113.576 342.819L-97.9987 344.977C-97.9501 344.977 -97.9015 344.993 -97.8529 344.993C-97.5938 344.993 -97.3509 344.899 -97.1566 344.711C-96.9461 344.508 -96.8328 344.211 -96.8814 343.914L-99.8608 322.783C-99.9094 322.439 -100.136 322.157 -100.476 322.032L-113.398 317.152L-104.362 280.302L-96.3146 282.351C-95.8289 282.476 -95.3269 282.226 -95.1487 281.772L-83.7978 252.258L-81.9033 254.416C-81.8871 254.432 -81.8547 254.447 -81.8385 254.463C-81.8223 254.479 -81.8223 254.51 -81.8061 254.526L2.03894 322.97L-19.7886 342.944L-71.5886 299.759C-71.9934 299.415 -72.6087 299.462 -72.965 299.853L-81.9033 309.644C-82.2595 310.035 -82.2271 310.63 -81.8223 310.974C-81.4175 311.318 -80.8022 311.287 -80.4459 310.896L-72.1391 301.808L-49.6962 320.531L-60.3995 330.463C-60.7881 330.822 -60.8043 331.417 -60.4319 331.792L-35.4144 357.255L-47.5588 368.361L-71.5724 390.336L-82.3081 378.261C-82.6643 377.87 -83.2796 377.823 -83.6844 378.152C-84.0893 378.496 -84.1378 379.09 -83.7978 379.481L-72.9973 391.634L-85.9514 403.475L-105.658 384.189L-97.0109 367.156C-96.7356 366.593 -96.9461 366.03 -97.4319 365.811ZM-293.75 323.471L-287.743 349.263L-295.418 352.078L-304.745 326.505L-293.75 323.471ZM-306.3 324.973L-342.522 334.686L-350.959 306.485C-351.056 306.141 -351.364 305.875 -351.72 305.812L-363.54 303.795C-363.719 302.074 -363.978 300.416 -364.301 298.852C-364.415 298.305 -364.593 297.601 -364.836 296.788L-304.308 278.19L-294.188 321.625L-306.3 324.973ZM-300.956 275.359C-301.07 274.843 -301.41 274.405 -301.895 274.139C-302.057 274.046 -302.235 274.014 -302.397 273.983L-306.235 261.564L-256.508 245.376L-240.785 291.157L-252.055 295.521C-252.508 295.693 -252.767 296.177 -252.638 296.631L-239.829 343.21L-284.003 348.09L-300.956 275.359ZM-231.409 244.703L-217.305 239.354L-199.137 274.984L-216.852 281.85L-231.409 244.703ZM-218.666 282.554L-238.987 290.422L-252.006 252.492L-233.223 245.376L-218.666 282.554ZM-252.621 250.709L-254.969 243.858L-258.467 233.692L-225.726 222.837L-218.164 237.665L-252.621 250.709ZM-250.549 296.944L-198.263 276.689L-176.921 318.544L-175.237 330.275L-204.173 335.186C-204.238 335.202 -204.319 335.217 -204.384 335.249L-217.969 340.77L-237.886 342.975L-250.549 296.944ZM-196.449 275.985L-150.203 258.06L-150.122 259.296L-164.874 328.523L-173.31 329.962L-175.01 318.137C-175.027 318.044 -175.059 317.934 -175.108 317.856L-196.449 275.985ZM-164.048 330.306L-153.912 331.917L-149.863 338.252L-163.611 345.29H-163.627L-188.175 358.491L-202.408 336.813L-164.048 330.306ZM-187.9 360.509L-163.449 347.37L-150.56 366.28L-183.997 382.109L-194.96 367.328L-187.9 360.509ZM-161.733 346.463L-148.827 339.863L-131.906 366.28L-148.6 365.749L-161.733 346.463ZM-147.094 338.971L-139.727 335.202C-139.435 335.045 -139.241 334.764 -139.209 334.451L-137.476 315.072L-123.696 309.332C-123.194 309.128 -122.968 308.565 -123.178 308.096C-123.389 307.611 -123.972 307.392 -124.457 307.595L-138.772 313.555C-139.095 313.695 -139.322 313.993 -139.354 314.337L-141.103 333.763L-148.115 337.345L-152.47 330.541C-152.616 330.306 -152.859 330.15 -153.134 330.103L-162.866 328.554L-148.163 259.546C-148.147 259.468 -148.147 259.39 -148.147 259.296L-148.277 257.075C-148.131 256.84 -148.098 256.543 -148.212 256.262C-148.244 256.184 -148.293 256.137 -148.341 256.074L-149.329 239.854C-149.345 239.714 -149.378 239.573 -149.442 239.448L-161.554 218.192L-108.653 211.56L-102.921 230.376C-102.889 230.501 -102.824 230.626 -102.727 230.72L-85.2065 250.537L-96.6223 280.239L-104.783 278.159C-105.042 278.097 -105.301 278.128 -105.528 278.269C-105.755 278.394 -105.917 278.613 -105.982 278.863L-115.438 317.449C-115.454 317.527 -115.47 317.59 -115.47 317.668L-115.47 317.699L-115.47 356.849L-126.902 370.378L-147.094 338.971ZM28.9834 112.521C29.1615 112.818 29.4854 112.99 29.8254 112.99C29.9873 112.99 30.1493 112.944 30.3112 112.865L30.716 112.631C32.2057 114.57 33.6954 116.51 35.1042 118.371C34.8937 118.371 34.6832 118.418 34.5051 118.559L11.2687 135.936L-0.648987 119.356C8.30548 108.908 15.916 99.8051 18.3773 96.8647C21.7615 101.135 25.6801 106.124 29.5178 111.114L29.3073 111.223C28.8862 111.489 28.7243 112.068 28.9834 112.521ZM35.7195 120.06C35.8814 119.935 35.9786 119.763 36.0433 119.591C42.067 127.552 46.8923 134.231 47.5724 135.967C45.8884 137.688 35.5576 145.868 24.579 154.439L12.4022 137.5L35.7195 120.06ZM23.0569 155.628C18.1506 159.444 13.1956 163.292 8.87219 166.608C8.45123 166.936 8.38641 167.531 8.71027 167.937C8.9046 168.172 9.17987 168.297 9.47131 168.297C9.68182 168.297 9.89233 168.234 10.0867 168.094C19.0735 161.18 48.4792 138.454 49.4507 136.702C49.7422 136.186 50.39 134.935 32.4486 111.692L55.2801 99.0388L57.6118 105.186C57.79 105.671 58.3567 105.921 58.8586 105.749C59.3606 105.561 59.6197 105.029 59.4416 104.544L56.7051 97.3495C56.6079 97.0836 56.3973 96.8803 56.1221 96.7864C55.8468 96.6926 55.5554 96.7239 55.2963 96.849L42.2937 104.044L38.9256 97.9752L56.3165 86.9326C56.7698 86.6511 56.8994 86.0567 56.5917 85.6188C56.3002 85.1808 55.6849 85.0557 55.2315 85.3529L37.0958 96.8647C36.6748 97.1306 36.5291 97.6623 36.772 98.1003L40.5934 104.982L31.2341 110.159C27.9147 105.874 23.9961 100.884 19.3812 95.0659L22.1663 59.0448L65.8862 27.0121L90.7903 74.936L102.368 124.44L92.7335 126.098C92.5716 126.129 92.4097 126.191 92.2801 126.301L8.66168 194.167L-61.1444 220.397L-66.9737 197.639C-67.0709 197.264 -67.3947 196.982 -67.7834 196.936L-105.512 191.805L-102.484 155.284C-87.6516 158.381 -66.4394 162.197 -51.8499 162.197C-45.0004 162.197 -39.6245 161.352 -37.0337 159.21C-30.8643 154.079 -15.2061 136.296 -1.96063 120.874L23.0569 155.628ZM2.50854 61.6412L-21.6669 42.9972C-7.77368 33.9567 15.0092 19.0977 33.663 6.77267L51.7015 25.5887L2.50854 61.6412ZM322.911 256.84L323.251 280.615C323.218 280.583 323.186 280.568 323.154 280.537C274.641 240.558 245.365 216.612 232.394 206.039L249.008 184.876L294.46 207.665C294.606 207.743 294.752 207.775 294.914 207.775C295.27 207.775 295.61 207.587 295.788 207.259C296.031 206.789 295.853 206.226 295.367 205.992L226.29 171.363L216.639 128.522L234.661 109.174L304.03 130.884L294.93 159.475C294.768 159.976 295.06 160.508 295.578 160.649C295.675 160.68 295.772 160.695 295.869 160.695C296.29 160.695 296.679 160.43 296.808 160.023L305.99 131.212H328.513L321.664 168.829L322.911 256.84ZM4.14404 322.157L-8.43762 311.881L49.2565 261.408C49.467 261.236 49.5803 260.97 49.5803 260.704L49.5803 236.992L87.39 214.798C87.5033 214.735 87.6005 214.641 87.6814 214.532L100.198 197.546L118.156 193.588L136.308 198.625L138.202 206.258C138.202 206.258 138.202 206.258 138.202 206.273L147.367 243.076L73.4967 313.727C73.4967 313.727 73.4967 313.727 73.4967 313.742L26.1658 359.007L3.57727 377.495L-3.14264 356.911C-3.19122 356.739 -3.30457 356.599 -3.43414 356.473L-18.2665 344.117L4.20874 323.549C4.40308 323.362 4.51642 323.111 4.51642 322.845C4.48401 322.579 4.35455 322.329 4.14404 322.157ZM120.568 82.5688L127.985 102.292L100.36 106.984L95.9396 88.1057L120.568 82.5688ZM95.5024 86.2757L92.9278 75.2488L115.29 68.5388L119.888 80.7701L95.5024 86.2757ZM128.649 104.091L139.643 133.339L108.878 139.346C108.456 139.424 108.165 139.768 108.116 140.159L100.781 108.83L128.649 104.091ZM137.312 180.653L113.784 160.367L147.027 152.969L154.832 173.724L137.312 180.653ZM155.528 175.492L165.082 198.234L139.854 204.85L138.089 197.765L138.089 182.374L155.528 175.492ZM112.456 158.725L108.262 140.784C108.44 141.05 108.748 141.207 109.072 141.207C109.137 141.207 109.201 141.207 109.266 141.191L140.323 135.122L146.363 151.17L112.456 158.725ZM109.639 155.299L89.0578 165.028L85.3659 160.695C85.0259 160.289 84.4105 160.242 83.9895 160.57C83.5685 160.899 83.5199 161.493 83.8599 161.9L88.0538 166.795C88.2481 167.014 88.5234 167.14 88.7987 167.14C88.9445 167.14 89.0901 167.108 89.2359 167.046L110.092 157.176L110.691 159.741L102.87 174.882L57.8547 198.265L48.1068 182.108L54.6972 178.542C54.9239 178.417 55.102 178.198 55.1667 177.947C55.2315 177.697 55.183 177.431 55.0534 177.212L47.6049 165.685C47.5077 165.544 47.3782 165.45 47.2486 165.372L93.4136 127.896L102.87 126.27L109.639 155.299ZM52.835 177.384L46.277 180.935C46.0504 181.06 45.8884 181.263 45.8074 181.514C45.7427 181.764 45.775 182.014 45.9046 182.233L56.1221 199.157L35.9786 209.62C36.1243 209.339 36.1405 209.01 35.9624 208.713L22.2473 186.456C22.134 186.268 21.9396 186.143 21.7453 186.065L45.856 166.498C45.8722 166.561 45.8884 166.639 45.937 166.702L52.835 177.384ZM34.2783 209.667C34.4402 209.933 34.7155 210.074 35.0232 210.105L-67.751 263.472L-80.1059 253.384L-75.7663 227.952L9.56848 195.888C9.66565 195.856 9.76282 195.794 9.84381 195.731L20.4499 187.129C20.4661 187.238 20.4985 187.332 20.5632 187.442L34.2783 209.667ZM104.068 176.399C104.246 176.305 104.392 176.164 104.473 175.992L112.019 161.399L136.13 182.186L136.13 196.638L118.431 191.727C118.269 191.68 118.107 191.68 117.945 191.711L99.3886 195.809C99.1619 195.856 98.9514 195.997 98.8057 196.185L86.1917 213.312L48.0906 235.678C47.7991 235.85 47.621 236.147 47.621 236.492L47.621 260.313L-9.94354 310.677L-66.1479 264.802L104.068 176.399ZM88.7501 301.793L98.5304 312.82L85.2687 324.566L75.5046 314.462L88.7501 301.793ZM74.1121 315.791L84.4915 326.537C84.6858 326.74 84.9449 326.834 85.204 326.834C85.4468 326.834 85.6735 326.756 85.8679 326.584L99.7934 314.258L110.076 325.833L81.172 352.704L59.895 329.399L74.1121 315.791ZM90.1427 300.463L118.14 273.686L133.911 290.156L140.761 297.304L111.501 324.503L90.1427 300.463ZM119.516 272.356L148.047 245.063L157.52 268.415L134.672 288.216L119.516 272.356ZM140.307 206.696L165.81 200.001L178.263 229.641L149.1 242.06L140.307 206.696ZM157.342 174.819L175.364 168.657L196.058 222.071L180.06 228.89L157.342 174.819ZM177.194 168.031L187.023 164.668L208.025 216.972L197.839 221.32L177.194 168.031ZM188.869 164.027L200.09 160.195L216.768 204.803C217.06 205.585 217.562 206.273 218.226 206.805C218.291 206.852 219.829 208.103 222.922 210.621L209.838 216.19L188.869 164.027ZM224.557 211.982C236.621 221.82 266.269 246.064 316.822 287.7C318.96 289.452 321.081 291.157 323.202 292.846L322.376 321.782L216.607 228.968L210.632 217.91L224.557 211.982ZM305.407 129.32L234.661 107.172C234.305 107.063 233.9 107.156 233.641 107.438L214.858 127.599C214.647 127.818 214.566 128.131 214.631 128.428L224.492 172.176C224.557 172.442 224.735 172.676 224.994 172.817L247.275 183.985L230.921 204.803C228.33 202.691 226.533 201.221 225.512 200.392L190.828 107.61C190.747 107.407 190.65 107.203 190.553 107L180.173 88.1057L220.315 61.1407H254.594C255.129 61.1407 255.566 60.7184 255.566 60.2022L255.566 16.0165L290.347 8.25854L303.415 43.2474C303.463 43.3725 303.528 43.4664 303.609 43.5602L323.089 63.9873L325.663 104.904C325.68 105.186 325.825 105.436 326.052 105.608L333.938 111.286L336.82 129.32H305.407ZM181.744 111.145L199.41 158.412L188.156 162.26L146.736 59.1073L154.184 56.8707C158.378 67.2094 163.171 77.3291 168.579 87.1516L181.744 111.145ZM186.326 162.901L176.514 166.264L136.227 62.2825L144.874 59.6861L186.326 162.901ZM174.684 166.889L156.646 173.067L117.168 67.9914L134.365 62.8299L174.684 166.889ZM116.472 66.224L93.0735 7.53909C99.2267 3.83218 104.862 1.26706 109.962 -0.125L133.668 61.0781L116.472 66.224ZM114.61 66.787L92.2801 73.4814L67.5217 25.8546L89.1711 9.99472C89.916 9.4942 90.6608 9.04059 91.3895 8.57138L114.61 66.787ZM-68.6577 198.719L-62.9256 221.085L-76.9969 226.372C-77.3208 226.497 -77.5475 226.763 -77.6122 227.091L-81.7737 251.601L-101.14 229.688L-107.002 210.465L-105.609 193.714L-68.6577 198.719ZM-113.576 319.076L-101.723 323.549L-99.0026 342.897L-113.576 340.879L-113.576 319.076ZM-21.1974 344.195L-33.9571 355.879L-58.3107 331.104L-48.1741 321.704L-21.1974 344.195ZM-71.6858 392.979L-62.5208 403.302C-62.3588 403.49 -62.1159 403.615 -61.8569 403.631L-54.4568 404.21C-54.4245 404.21 -54.4083 404.21 -54.3759 404.21C-53.8739 404.21 -53.4529 403.834 -53.4043 403.349C-53.3558 402.833 -53.7606 402.38 -54.2949 402.333L-61.2901 401.785L-70.2608 391.697L-46.8788 370.3L-34.702 382.625C-34.5076 382.813 -34.2485 382.922 -33.9895 382.922C-33.7466 382.922 -33.5037 382.828 -33.3094 382.656C-32.9208 382.297 -32.9046 381.702 -33.277 381.327L-45.4538 369.002L-19.7076 345.447L-4.94 357.756L1.94183 378.84L-60.7881 430.174L-84.5588 404.773L-71.6858 392.979ZM-25.7798 403.991L-6.65643 423.98L-16.5825 431.081L-21.3593 425.544C-21.5374 425.325 -21.8127 425.2 -22.1041 425.2C-22.428 425.215 -22.6709 425.325 -22.849 425.528L-37.5356 442.092L-50.6192 424.324L-25.7798 403.991ZM-24.2901 402.771L2.57336 380.779L12.2565 410.466L-5.06952 422.854L-24.2901 402.771ZM4.19263 379.466L26.6678 361.072L47.2648 384.236L41.6946 389.413L13.9081 409.277L4.19263 379.466ZM142.817 296.694L136.016 289.593L158.297 270.292L168.806 296.193L156.03 310.489L142.817 296.694ZM159.625 268.399C159.625 268.383 159.609 268.368 159.609 268.352L149.667 243.89L178.943 231.424L198.374 287.966L170.523 295.255L159.625 268.399ZM180.724 230.657L196.819 223.807L225.739 280.802L200.268 287.465L180.724 230.657ZM198.6 223.04L208.818 218.692L214.923 230.001C214.971 230.094 215.052 230.188 215.133 230.266L298.217 303.169L285.231 319.373L249.316 291.923C248.895 291.595 248.279 291.673 247.939 292.08C247.599 292.486 247.68 293.081 248.101 293.409L320.255 348.543L295.999 352.97L233.916 296.428L228.039 281.084C228.039 281.068 228.022 281.053 228.006 281.037C228.006 281.021 228.006 281.006 227.99 280.99L198.6 223.04ZM321.567 350.217L320.207 397.969C317.664 401.003 315.09 404.085 312.515 407.197L300.84 398.407L296.776 354.737L321.567 350.217ZM286.801 320.531L299.707 304.436L322.312 324.269L321.664 347.167L286.801 320.531ZM324.206 325.942L356.85 354.581C346.147 367.062 334.488 380.873 322.214 395.545L324.206 325.942ZM324.271 323.455L325.097 294.332C343.751 308.878 361.87 320.312 378.775 329.321C372.428 336.5 365.497 344.477 358.081 353.126L324.271 323.455ZM375.763 298.946C363.862 290.14 347.588 276.282 336.593 266.726C336.674 266.694 336.772 266.663 336.836 266.6L343.475 261.455L366.582 266.694L380.2 289.593L375.763 298.946ZM381.884 290.594L410.383 295.724C406.788 299.008 402.076 303.779 396.441 309.816C388.523 306.501 381.754 303.169 377.366 300.103L381.884 290.594ZM375.553 301.167C379.957 304.389 386.904 307.861 395.049 311.302C392.069 314.524 388.831 318.059 385.382 321.907C366.566 312.084 346.115 299.165 325.21 282.194L324.87 258.983C331.784 265.099 358.567 288.732 375.553 301.167ZM387.616 333.872C418.074 348.981 443.901 356.129 460.564 359.477C459.689 362.542 458.782 365.733 457.859 368.939L376.378 346.729C380.281 342.225 384.038 337.923 387.616 333.872ZM374.986 348.309L398.433 354.706L395.551 364.356L367.813 356.614C370.258 353.799 372.654 351.015 374.986 348.309ZM400.327 355.222L457.325 370.754C456.354 374.132 455.398 377.51 454.459 380.779L397.429 364.873L400.327 355.222ZM459.463 370.363C459.479 370.363 459.479 370.363 459.463 370.363C460.483 366.796 461.487 363.246 462.458 359.852C462.96 359.946 463.446 360.04 463.915 360.133C478.052 363.34 487.702 365.889 494.341 368.407L449.504 405.211C451.269 399.079 455.398 384.612 459.463 370.363ZM463.171 350.264C460.191 349.607 457.05 348.919 453.747 348.199C438.785 344.524 418.074 337.97 394.255 326.411C397.979 322.267 401.428 318.482 404.537 315.134C430.057 324.941 461.487 333.778 467.397 335.421C466.814 337.485 465.227 343.053 463.171 350.264ZM416.099 291.172C415.095 291.767 413.767 292.768 412.18 294.129L381.933 288.685L368.072 265.396C367.942 265.177 367.715 265.005 367.456 264.943L343.475 259.499C343.184 259.437 342.876 259.499 342.633 259.687L335.622 265.13C335.46 265.255 335.363 265.427 335.314 265.615C329.841 260.845 325.906 257.341 324.838 256.387L323.575 168.985L330.473 131.212H337.921L421.718 132.276C426.511 152.781 431.984 176.102 438.169 202.457C441.958 218.614 444.468 229.281 444.792 230.689C446.023 236.116 455.803 263.316 459.77 274.218C441.197 280.333 423.936 286.636 416.099 291.172ZM397.186 8.44623C401.72 8.50882 406.351 8.57138 411.047 8.63394C420.536 8.74344 428.049 8.83728 430.85 9.02496C431.028 9.04062 431.206 9.04062 431.417 9.04062C442.655 9.04062 507.117 -7.75778 525.544 -12.6221L545.607 71.7765C545.623 71.8704 545.672 71.9486 545.688 72.0268C545.704 72.0894 545.704 72.1363 545.72 72.1989L575.094 157.833L439.351 190.319C425.604 131.728 399.874 22.0539 397.186 8.44623ZM484.561 -6.00598C460.321 0.0157776 436.016 5.61523 431.126 5.25549C428.211 5.05215 420.649 4.95831 411.095 4.84885C406.918 4.80191 402.06 4.73935 396.895 4.66113C396.522 -7.25729 394.644 -56.7296 394.061 -72.0109L453.504 -86.8229L469.971 -81.0357L484.577 -37.8041L484.577 -6.00598H484.561ZM421.297 130.383L338.796 129.335L335.8 110.629C335.768 110.378 335.622 110.159 335.411 110.019L327.574 104.372L325 63.565C324.983 63.346 324.902 63.1427 324.74 62.9863L305.147 42.4497L291.853 6.8978C291.643 6.24088 284.939 -15.3593 276.568 -42.6997L277.474 -42.9187C289.975 -32.7677 331.363 0.688324 338.569 4.48907C343.459 7.06982 365.934 7.94574 393.203 8.41498C394.547 15.4534 402.951 52.022 421.297 130.383ZM334.747 -66.9588C341.079 -78.5801 347.362 -98.71 350.325 -108.939L385.187 -79.5342L334.747 -66.9588ZM271.937 -51.3022L264.358 -49.4097L205.628 -42.8718C205.126 -50.5202 204.057 -66.1768 202.794 -83.726L259.242 -93.3608C263.371 -79.5185 267.791 -64.9412 271.937 -51.3022ZM241.219 -214.688L240.847 -216.846L279.952 -215.908L310.135 -200.22L298.541 -179.996L289.182 -182.796L291.87 -190.632C292.031 -191.132 291.756 -191.664 291.254 -191.821C290.736 -191.993 290.186 -191.711 290.024 -191.226L287.319 -183.343L240.377 -197.389C240.507 -207.493 241.203 -214.297 241.219 -214.453C241.235 -214.531 241.235 -214.61 241.219 -214.688ZM300.452 -179.417L311.867 -199.328L318.004 -196.138L318.004 -174.178L313.503 -175.523C313.487 -175.523 313.47 -175.538 313.454 -175.538L300.452 -179.417ZM313.179 -154.032H300.273L300.273 -177.494L312.207 -173.927L313.179 -154.032ZM266.706 -187.535L266.706 -180.293H240.75C240.426 -185.736 240.329 -190.867 240.345 -195.418L266.706 -187.535ZM328.303 -154.032L328.303 -169.11L341.338 -165.215L342.601 -154.032H328.303ZM326.392 -169.689C326.376 -169.611 326.344 -169.548 326.344 -169.47L326.344 -154.032H315.138L314.183 -173.333L326.392 -169.689ZM318.004 -198.28L281.134 -217.441L279.774 -229.828L316.175 -235.005L318.004 -227.998L318.004 -198.28ZM279.563 -231.721L278.171 -244.437L311.754 -251.991L315.705 -236.867L279.563 -231.721ZM279.126 -217.816L240.539 -218.754L237.722 -235.349L276.244 -244.015L279.126 -217.816ZM238.547 -218.801L193.063 -219.896C192.965 -223.587 192.868 -227.31 192.771 -231.033L235.795 -234.943L238.547 -218.801ZM265.832 -40.0877C266.059 -40.119 266.269 -40.1502 266.496 -40.2128L274.722 -42.2618C282.17 -17.8932 288.323 1.92398 289.732 6.45987L254.351 14.3586C253.914 14.4524 253.59 14.8434 253.59 15.2814L253.59 59.2638H219.975C219.78 59.2638 219.586 59.3263 219.424 59.4358L179.234 86.4478L177.21 82.7565C166.588 63.4243 158.33 42.9346 152.662 21.8818C147.06 -1.93933 146.703 -16.767 151.593 -23.43C153.731 -26.3549 157.147 -27.9816 162.362 -28.5603L265.832 -40.0877ZM153.488 55.1189L135.547 60.4994L111.873 -0.609863C117.12 -1.7673 121.767 -1.62653 125.766 -0.171936C135.725 3.44113 140.744 15.0624 143.19 24.1654C146.007 34.6449 149.456 44.9836 153.488 55.1189ZM138.623 -3.36267C135.773 -5.86523 132.632 -7.77344 129.199 -9.00906C125.572 -10.3229 121.67 -10.9016 117.492 -10.7609L138.121 -25.87L142.024 -26.308C139.109 -20.8493 137.975 -13.3885 138.623 -3.36267ZM53.2722 24.447L35.2985 5.69345C51.3615 -4.92679 63.9755 -13.4198 64.4451 -14.2019C65.1899 -15.4219 67.6836 -22.7888 69.3191 -27.7313C83.6009 -26.9649 102.724 -26.7616 118.528 -26.7616C120.115 -26.7616 121.653 -26.7616 123.175 -26.7616L53.2722 24.447ZM62.8259 -15.2498C61.9352 -14.327 49.9203 -6.27188 33.9383 4.28577L2.63806 -28.3569L0.549255 -39.6654C20.1423 -35.192 44.5444 -30.0149 58.0004 -28.5603C60.6722 -28.2787 63.8298 -28.0285 67.295 -27.8251C65.4167 -22.1631 63.3278 -16.0944 62.8259 -15.2498ZM0.77594 -27.7469C0.808349 -27.5749 0.889282 -27.4028 1.0188 -27.2777L7.80353 -20.208L-11.7247 -12.7316L-25.5693 -45.8123C-20.8087 -44.6548 -11.9514 -42.5277 -1.52338 -40.1346L0.77594 -27.7469ZM-13.5383 -12.0434L-53.1615 3.1127L-55.137 0.0783386L-45.9882 -37.0064L-27.7877 -46.1094L-13.5383 -12.0434ZM9.21228 -18.7221L32.3029 5.36499C15.1387 16.6891 -6.17065 30.6252 -23.27 41.7615L-37.3251 30.6252L-37.2604 29.2018C-37.2118 28.2321 -37.4708 27.278 -38.0052 26.4646L-52.1251 4.73935L9.21228 -18.7221ZM-37.4385 32.9713L-23.9338 43.6697L0.889282 62.8143L-40.5313 93.1577L-37.4385 32.9713ZM20.1422 60.562L17.4867 94.9877C14.2968 98.8198 -27.4963 148.84 -38.2481 157.786C-45.2271 163.589 -77.7903 158.6 -102.824 153.313C-102.937 153.25 -103.083 153.203 -103.229 153.188C-103.277 153.188 -103.31 153.203 -103.358 153.203C-105.14 152.828 -106.872 152.453 -108.556 152.077C-104.994 150.967 -102.97 150.326 -102.775 150.279C-102.257 150.122 -101.755 149.872 -101.318 149.543L20.1422 60.562ZM-104.362 154.893L-106.014 174.725L-159.19 180.732L-162.704 169.361C-140.277 162.088 -122.336 156.41 -112.119 153.203C-109.884 153.688 -107.277 154.267 -104.362 154.893ZM-160.81 182.03C-160.68 182.436 -160.308 182.702 -159.87 182.702C-159.838 182.702 -159.789 182.702 -159.757 182.702L-106.16 176.649L-108.896 209.73L-162.607 216.456L-185.26 176.727C-178.038 174.35 -171.108 172.098 -164.534 169.971L-160.81 182.03ZM-151.288 240.198L-150.317 256.074L-197.308 274.28L-238.08 194.324C-220.301 188.286 -203.04 182.546 -187.139 177.322L-151.288 240.198ZM-226.6 221.132L-259.082 231.893L-268.409 204.74C-258.855 201.425 -249.334 198.156 -239.943 194.965L-226.6 221.132ZM-260.621 233.395L-257.123 243.561L-306.785 259.734L-318.298 222.493C-302.624 216.768 -286.415 211.012 -270.223 205.382L-260.621 233.395ZM-304.357 274.249L-366.002 293.174C-368.981 284.384 -375.393 268.133 -383.7 247.753C-365.03 239.979 -343.235 231.612 -320.161 223.165L-304.357 274.249ZM-438.998 312.084C-426.416 306.704 -416.312 302.34 -408.216 298.805L-399.213 325.551L-429.201 338.971L-438.998 312.084ZM-424.829 356.63L-435.419 360.274L-441.265 346.573L-430.302 341.568L-424.829 356.63ZM-430.966 339.785L-442.949 345.259C-443.418 345.478 -443.629 346.01 -443.434 346.479L-436.876 361.838C-436.715 362.198 -436.358 362.417 -435.97 362.417C-435.856 362.417 -435.743 362.401 -435.646 362.37L-424.182 358.429L-416.312 380.013L-447.677 390.852L-463.659 348.778L-472.209 326.255C-460.34 321.219 -449.912 316.777 -440.763 312.866L-430.966 339.785ZM-428.537 340.77L-398.581 327.366L-392.817 344.492C-393.561 345.118 -394.306 345.728 -395.1 346.354C-404.605 353.689 -409.738 363.371 -411.114 378.214L-414.466 379.372L-428.537 340.77ZM-396.8 326.568L-373.904 316.323C-375.96 325.833 -381.789 334.889 -391.213 343.132L-396.8 326.568ZM-397.415 324.754L-406.418 298.023C-390.679 291.157 -382.923 287.591 -379.085 285.651C-376.252 293.081 -374.325 298.555 -373.871 300.698C-372.932 305.218 -372.835 309.676 -373.499 314.055L-397.415 324.754ZM-379.733 283.962C-384.218 286.167 -393.982 290.531 -407.017 296.209L-418.32 262.643C-410.143 259.093 -401.836 255.495 -393.432 251.867C-393.173 251.757 -392.898 251.632 -392.622 251.523C-387.764 263.535 -383.166 275.015 -379.733 283.962ZM-397.431 243.264C-411.568 249.364 -425.428 255.386 -438.82 261.22L-444.6 245.782C-444.778 245.329 -445.28 245.063 -445.766 245.188L-454.494 247.425L-491.381 163.73L-457.781 147.229C-454.478 149.778 -450.575 152.734 -446.074 156.128C-438.123 162.15 -427.388 170.252 -424.862 172.676C-423.874 175.57 -420.749 183.187 -410.871 207.118C-406.596 217.488 -401.382 230.11 -396.233 242.717C-396.622 242.92 -397.027 243.108 -397.431 243.264ZM-420.117 263.441L-408.815 297.006C-417.834 300.932 -428.311 305.437 -439.645 310.301L-451.693 277.221C-441.508 272.747 -430.95 268.149 -420.117 263.441ZM-441.443 311.052C-451.434 315.322 -462.056 319.858 -472.905 324.456L-485.26 291.954C-475.22 287.528 -464.582 282.851 -453.49 277.987L-441.443 311.052ZM-465.845 348.497L-481.924 353.94L-490.134 333.841C-486.571 332.324 -482.993 330.822 -479.414 329.305C-477.585 328.523 -475.787 327.772 -474.022 327.021L-465.845 348.497ZM-483.398 355.472C-483.252 355.848 -482.88 356.067 -482.491 356.067C-482.378 356.067 -482.28 356.051 -482.167 356.02L-465.181 350.28L-459.74 364.575L-475.593 371.145C-476.095 371.348 -476.322 371.911 -476.111 372.38C-475.949 372.74 -475.593 372.959 -475.22 372.959C-475.091 372.959 -474.961 372.928 -474.832 372.881L-459.077 366.343L-449.523 391.478L-487.494 404.601C-487.511 404.523 -487.511 404.444 -487.543 404.366L-512.059 343.1C-505.501 340.332 -498.748 337.485 -491.931 334.592L-483.398 355.472ZM-359.638 412.093L-367.297 386.144L-358.764 381.984L-350.7 407.369L-359.638 412.093ZM-338.215 400.784L-348.951 406.462L-356.918 381.358C-356.95 381.28 -356.999 381.217 -357.031 381.155L-348.077 376.791L-338.215 400.784ZM-368.673 384.721C-370.633 384.705 -383.894 384.784 -401.722 389.898C-402.241 370.816 -398.063 360.712 -389.011 353.721C-367.232 336.891 -362.536 319.295 -363.378 305.75L-352.659 307.58L-334.572 368.063L-368.673 384.721ZM-318.574 360.587C-318.59 360.587 -318.606 360.603 -318.622 360.618C-318.638 360.618 -318.638 360.618 -318.655 360.618L-332.791 367.219L-341.972 336.5L-306.64 327.037L-297.248 352.766L-318.574 360.587ZM-301.96 374.179C-301.782 373.788 -301.895 373.35 -302.235 373.084L-316.323 361.791L-287.322 351.14L-272.133 416.347L-295.111 421.79L-318.234 410.404L-301.96 374.179ZM-334.183 445.893L-319.011 412.124L-296.536 423.198L-312.469 454.245L-334.183 445.893ZM-295.775 479.99L-298.09 460.298C-298.122 459.954 -298.365 459.657 -298.705 459.532L-310.656 454.933L-294.56 423.573L-271.712 418.161L-258.418 475.267L-295.775 479.99ZM-135.565 441.529C-135.646 441.545 -135.711 441.56 -135.792 441.592L-170.234 455.184C-170.234 455.074 -170.25 454.965 -170.298 454.855L-176.63 439.12C-176.792 438.714 -177.229 438.463 -177.682 438.526L-204.967 442.53L-211.897 396.436L-203.428 390.43C-203.088 390.195 -202.959 389.773 -203.072 389.398L-209.031 370.394C-209.193 369.893 -209.727 369.612 -210.245 369.768C-210.764 369.925 -211.055 370.441 -210.893 370.941L-205.129 389.304L-213.516 395.247C-213.808 395.451 -213.954 395.795 -213.905 396.139L-206.748 443.734C-206.715 443.985 -206.57 444.204 -206.359 444.36C-206.149 444.516 -205.89 444.563 -205.631 444.532L-178.152 440.497L-172.096 455.528C-172.047 455.653 -171.95 455.731 -171.853 455.809L-251.585 487.279L-283.582 349.904L-217.597 342.616C-217.5 342.6 -217.419 342.584 -217.322 342.553L-204.368 337.282L-189.729 359.586L-196.935 366.546C-197.275 366.875 -197.324 367.391 -197.032 367.766L-185.098 383.845C-184.904 384.095 -184.613 384.236 -184.305 384.236C-184.159 384.236 -184.014 384.205 -183.884 384.142L-148.924 367.594L-130.675 368.189L-127.906 372.505L-119.454 385.409L-135.387 396.718L-142.852 387.364C-143.176 386.958 -143.791 386.879 -144.228 387.192C-144.649 387.505 -144.73 388.099 -144.407 388.522L-136.974 397.828L-145.572 403.928C-145.815 404.1 -145.977 404.382 -145.977 404.695L-145.977 419.303C-145.977 419.538 -145.896 419.757 -145.734 419.929L-127.307 440.293L-135.565 441.529ZM-124.992 439.981L-143.986 418.975L-143.986 405.195L-117.754 386.567L-107.147 385.284L-86.6314 405.351L-62.8122 430.799L-124.992 439.981ZM-13.4735 483.384L-25.7151 497.07L-51.8984 468.197L-72.6087 450.757L-79.8792 435.241L-60.7396 432.426C-60.7234 432.426 -60.7072 432.41 -60.6748 432.395C-60.5291 432.363 -60.3995 432.316 -60.2862 432.223C-60.27 432.207 -60.2538 432.223 -60.2538 432.207L-60.2376 432.191L-52.1413 425.575L-38.4424 444.172L-13.4735 483.384ZM-21.9908 466.383L-36.4183 443.719L-22.1365 427.609L-17.5055 432.973C-17.5055 432.973 -17.4893 432.973 -17.4893 432.989C-17.4893 432.989 -17.4893 432.989 -17.4893 433.005L-2.75403 449.146L-21.9908 466.383ZM-1.31293 447.864L-15.3195 432.52L-5.32861 425.372L8.11114 439.417L-1.31293 447.864ZM9.11511 437.713L-3.75794 424.246L12.8556 412.359L15.5921 420.758L9.11511 437.713ZM41.3707 444.657L35.1689 451.852L10.6858 439.026L17.3733 421.571L41.905 415.393L46.5847 421.024L41.3707 444.657ZM99.6315 504.797L65.8052 470.997L61.1094 457.186C61.0123 456.888 60.7532 456.654 60.4456 456.576L46.6009 452.853L43.3138 445.017L48.625 420.992C48.6898 420.711 48.6088 420.429 48.4306 420.21L43.0709 413.766C42.828 413.469 42.4394 413.344 42.067 413.438L17.3248 419.663L14.5558 411.186L42.9899 390.852L57.5956 377.26L142.218 465.632L99.6315 504.797ZM143.61 464.318L119.888 439.558L146.493 417.802L166.199 443.531L143.61 464.318ZM167.575 442.123L148.209 416.863L182.894 403.803L192.447 414.251L178.327 430.08C178.327 430.08 178.327 430.08 178.311 430.08L167.575 442.123ZM221.578 485.058L214.129 467.493C214.048 467.29 213.886 467.133 213.692 467.024L169.033 443.359L179.202 431.972L231.277 472.686L221.578 485.058ZM232.459 471.2L180.481 430.565L193.888 415.549L245.478 454.636L232.459 471.2ZM246.644 453.119L195.945 414.705L226.371 407.619L263.452 431.706L246.644 453.119ZM263.792 466.101L248.182 454.276L265.055 432.754L282.122 443.844C276.049 451.195 269.929 458.64 263.792 466.101ZM283.352 442.358L227.099 405.821C226.873 405.68 226.597 405.633 226.322 405.68L194.099 413.172L185.031 403.24L228.945 393.902C229.204 393.84 229.431 393.683 229.577 393.464C229.723 393.245 229.755 392.979 229.69 392.729L218.841 353.783C218.695 353.283 218.161 352.985 217.643 353.111L174.344 364.341L169.357 349.138L200.398 339.659H200.414H200.43L200.495 339.644L213.643 334.357C214.064 334.185 214.307 333.763 214.226 333.34L210.47 310.129C210.47 310.114 210.453 310.098 210.453 310.098C210.453 310.082 210.453 310.067 210.453 310.051L208.575 302.794C208.445 302.293 207.911 301.98 207.393 302.105C206.875 302.231 206.551 302.747 206.681 303.247L208.316 309.582L160.159 321.141L157.18 312.084L170.506 297.179L226.565 282.507L232.216 297.257C232.265 297.398 232.346 297.523 232.459 297.617L294.8 354.393L298.946 398.97C298.978 399.236 299.108 399.47 299.318 399.627L311.301 408.636C302.184 419.585 292.841 430.878 283.352 442.358ZM348.446 431.159L334.812 454.605L333.258 457.342L297.715 440.106C306.864 429.047 316.498 417.458 326.198 405.868L352.575 407.838L348.446 431.159ZM327.687 404.069C340.917 388.272 354.195 372.521 366.469 358.21L395.972 366.437L453.957 382.609C450.395 395.075 447.399 405.539 446.881 407.369L440.598 412.531L327.687 404.069ZM439.659 444.485L428.081 426.78L448.403 408.589L496.398 369.205C500.721 371.02 503.555 372.865 505.466 374.977C510.971 381.092 539.47 411.295 550.529 422.994L486.132 485.621L439.659 444.485ZM505.79 503.061L487.557 486.903L500.397 474.422L519.019 489.265L505.79 503.061ZM520.347 487.889L501.774 473.077L514.145 461.049L536.555 471.012L520.347 487.889ZM515.602 459.641L551.825 424.418C553.072 425.732 554.011 426.733 554.497 427.249C555.549 428.985 559.014 434.71 563.84 442.608L548.424 474.234L515.602 459.641ZM568.519 431.675C566.431 428.234 564.455 424.997 562.674 422.04C562.496 421.759 562.302 421.477 562.059 421.243C561.994 421.164 560.747 419.851 558.723 417.708L558.998 417.442L572.147 422.603L568.519 431.675ZM573.96 423.307L587.497 428.61C587.481 428.641 587.448 428.672 587.432 428.703L579.271 449.271C575.952 443.859 572.746 438.62 569.782 433.74L573.96 423.307ZM582.688 489.453L550.206 475.016L565.054 444.563C571.013 454.323 578.769 466.946 586.526 479.427C585.279 482.68 583.983 486.043 582.688 489.453ZM590.881 468.087C587.416 462.488 583.935 456.842 580.551 451.336L589.278 429.376C589.295 429.345 589.278 429.329 589.294 429.298L603.9 435.022C600.597 443.077 596.095 454.574 590.881 468.087ZM631.589 498.791L603.301 487.998C601.358 484.917 599.35 481.711 597.31 478.457C600.143 471.044 602.799 464.161 605.196 457.999L642.244 473.671L631.589 498.791ZM642.989 471.904L605.876 456.216C608.612 449.193 610.96 443.203 612.839 438.557L650.81 453.447L642.989 471.904ZM658.55 435.257L651.571 451.696L632.739 444.313C632.836 444.235 632.95 444.157 632.998 444.032L641.175 427.405L658.55 435.257ZM639.831 425.747L631.249 443.234C631.168 443.39 631.152 443.547 631.168 443.703L613.567 436.805C615.397 432.285 616.676 429.329 617.227 428.359C618.473 426.608 621.55 420.554 625.582 412.202L642.665 419.976L639.831 425.747ZM651.166 403.787C650.826 403.819 650.519 403.991 650.373 404.304L643.507 418.271L626.408 410.482C628.432 406.274 630.667 401.566 632.998 396.561L651.166 403.787ZM609.276 422.901C608.677 423.667 607.025 427.39 604.596 433.286L560.488 415.987L615.883 362.12C625.112 361.525 632.95 362.151 637.937 362.792C625.582 389.742 611.575 419.71 609.276 422.901ZM657.773 318.701C657.336 319.811 656.963 320.749 656.656 321.453C654.405 326.615 648.737 339.206 642.05 353.846C636.803 353.001 626.877 351.875 614.733 352.735C636.868 344.539 649.045 332.105 657.773 318.701ZM602.653 363.793C606.183 363.105 609.6 362.652 612.887 362.354L558.512 415.221L555.112 413.891C542.757 400.8 517.804 374.335 512.817 368.799C511.344 367.156 509.595 365.686 507.474 364.31C540.166 366.108 585.165 367.172 602.653 363.793ZM572.114 262.8L527.471 321.531C527.406 321.61 527.358 321.719 527.326 321.813L516.865 355.347C499.928 354.55 484.917 353.486 476.627 352.516C474.376 352.25 470.425 351.703 465.081 350.671C467.575 341.927 469.389 335.546 469.534 334.983C469.745 334.154 470.781 323.346 470.506 310.724L520.929 265.427C525.69 264.051 528.589 263.238 528.734 263.206C529.69 262.94 530.532 262.393 531.163 261.658L548.441 241.153L572.114 262.8ZM524.557 254.557C517.707 256.496 489.824 264.442 463.478 273.013C459.56 262.237 449.796 235.068 448.63 229.891C448.306 228.468 445.796 217.785 442.007 201.628C441.44 199.235 440.841 196.685 440.226 194.026L576.34 161.446L584.064 183.969L524.557 254.557ZM652.818 53.9615L590.493 172.692L556.699 74.2165L652.818 53.9615ZM564.585 -64.1591C574.122 -55.5253 629.371 9.57242 639.556 21.5847L631.638 48.7843L554.027 65.1447L517.448 -88.7936C533.155 -81.8803 557.751 -70.353 564.585 -64.1591ZM524.654 -16.2978C514.76 -13.6857 500.737 -10.0414 486.504 -6.49088L486.504 -37.9605C486.504 -38.0544 486.488 -38.1638 486.456 -38.2577L472.287 -80.2224L512.849 -65.9735L524.654 -16.2978ZM358.178 -270.808L421.183 -266.162L430.947 -239.463L394.045 -237.023C393.98 -237.023 393.899 -237.007 393.834 -236.992L358.178 -226.763L358.178 -270.808ZM358.178 -224.776L394.287 -235.131L431.628 -237.602L434.882 -228.718L358.178 -192.493L358.178 -224.776ZM358.178 -190.397L435.53 -226.935L439.011 -217.425C439.027 -217.378 439.06 -217.331 439.076 -217.284C440.582 -213.343 448.662 -198.202 458.88 -179.543L377.577 -140.393C377.091 -140.159 376.897 -139.595 377.14 -139.126C377.318 -138.798 377.658 -138.61 378.014 -138.61C378.16 -138.61 378.305 -138.641 378.451 -138.704L459.786 -177.869C475.801 -148.683 496.641 -111.645 505.87 -95.269L510.242 -76.8908L455.398 -96.1605C454.475 -96.489 453.455 -96.5359 452.516 -96.3013L389.77 -80.6603L351.134 -113.24L347.637 -144.131L368.898 -154.345C369.335 -154.548 369.545 -155.033 369.383 -155.487L358.162 -188.364L358.162 -190.397H358.178ZM356.235 -270.948L356.235 -191.367C356.089 -191.101 356.057 -190.788 356.203 -190.507C356.219 -190.491 356.235 -190.476 356.235 -190.46L356.235 -188.223C356.235 -188.129 356.251 -188.02 356.284 -187.926L367.278 -155.69L347.426 -146.149L335.298 -253.446C335.363 -253.415 335.411 -253.384 335.476 -253.368L348.09 -250.646L348.09 -239.776L338.083 -240.808C337.549 -240.855 337.063 -240.495 337.014 -239.964C336.95 -239.447 337.338 -238.978 337.889 -238.931L348.981 -237.774C349.013 -237.774 349.045 -237.774 349.078 -237.774C349.321 -237.774 349.547 -237.852 349.726 -238.008C349.936 -238.181 350.049 -238.446 350.049 -238.712L350.049 -251.381C350.049 -251.819 349.726 -252.21 349.288 -252.304L335.913 -255.182C335.622 -255.245 335.347 -255.167 335.136 -255.026L333.144 -272.638L356.235 -270.948ZM334.747 -223.384L319.947 -226.262L319.947 -228.139C319.947 -228.217 319.931 -228.295 319.915 -228.374L313.632 -252.429L331.023 -256.34L334.747 -223.384ZM329.193 -272.512L330.813 -258.201L313.163 -254.228L309.212 -269.353L329.193 -272.512ZM307.285 -269.056L311.268 -253.821L277.96 -246.329L276.001 -264.113L307.285 -269.056ZM274.058 -263.8L276.033 -245.892L237.398 -237.195L233.949 -257.466L274.058 -263.8ZM232.022 -257.169L235.487 -236.788L192.723 -232.91C192.577 -238.994 192.447 -245.047 192.318 -250.897L232.022 -257.169ZM190.909 -174.006H159.35L157.18 -188.865L190.148 -189.944C190.375 -184.016 190.634 -178.62 190.909 -174.006ZM188.61 -241.84L185.533 -250.474H188.415C188.48 -247.643 188.545 -244.75 188.61 -241.84ZM187.93 -275.875C188.043 -268.884 188.205 -260.86 188.367 -252.351H184.853L176.643 -275.437L187.93 -275.875ZM141.7 -274.092L174.619 -275.359L182.797 -252.351H140.502L141.7 -274.092ZM98.2875 -231.048C105.493 -235.866 123.694 -248.769 126.074 -250.459H139.417C139.433 -250.459 139.449 -250.459 139.465 -250.459H139.481L183.477 -250.474L188.755 -235.631C189.112 -220.491 189.549 -204.99 190.067 -191.836L156.03 -190.726C155.755 -190.71 155.496 -190.601 155.318 -190.382C155.14 -190.178 155.059 -189.912 155.091 -189.647L157.536 -172.942C157.601 -172.473 158.022 -172.129 158.508 -172.129H191.039C191.395 -166.42 191.783 -162.103 192.204 -159.788C194.795 -145.414 200.398 -62.9548 201.774 -42.4494L147.351 -36.3964C145.327 -36.3651 130.333 -36.1618 112.715 -36.2087L112.715 -76.9847C112.715 -77.0942 112.699 -77.2037 112.65 -77.3132L59.8302 -216.268C65.2385 -217.957 91.179 -226.293 98.2875 -231.048ZM-55.4284 -164.34C-50.8783 -168.735 -40.8389 -186.847 -39.333 -189.584L37.8245 -217.034L57.8547 -215.923L110.74 -76.797L110.74 -36.1931C91.9562 -36.2713 70.6954 -36.6779 59.0854 -37.9136C38.0674 -40.1659 -12.6801 -52.3815 -24.3711 -55.2281L-49.6962 -120.138C-49.9391 -120.764 -50.3278 -121.342 -50.8135 -121.812L-79.2153 -149.262C-71.4267 -153.688 -58.7641 -161.117 -55.4284 -164.34ZM-320.031 -191.07L-317.294 -251.726L-273.866 -240.683C-273.785 -240.667 -273.704 -240.652 -273.623 -240.652C-273.445 -240.652 -273.267 -240.699 -273.105 -240.793C-272.878 -240.933 -272.716 -241.152 -272.668 -241.403L-268.166 -262.659L-229.709 -253.071L-231.895 -241.762C-238.242 -232.456 -243.133 -225.214 -244.995 -222.352L-301.037 -186.378L-320.031 -191.07ZM-250.597 -207.43C-254.046 -197.326 -259.698 -180.841 -265.705 -164.261L-299.11 -176.289L-250.597 -207.43ZM-301.134 -175.007L-266.369 -162.494C-274.838 -139.251 -283.857 -116.29 -288.391 -111.113C-289.557 -109.768 -291.046 -108.392 -292.73 -107L-327.35 -128.115L-330.2 -142.489L-332.629 -154.814L-301.134 -175.007ZM-294.301 -105.717C-307.385 -95.6756 -330.864 -85.3526 -338.102 -83.2098C-339.041 -82.9283 -341.616 -81.6613 -345.486 -79.628C-352.934 -79.5654 -362.925 -78.7365 -371.799 -77.9075C-362.601 -84.508 -351.509 -101.807 -350.489 -103.418L-328.063 -126.316L-294.301 -105.717ZM-329.326 -128.099L-351.93 -119.075L-355.428 -124.627L-331.803 -140.675L-329.326 -128.099ZM-360.172 -184.078L-371.977 -185.752L-381.142 -216.549L-372.592 -219.302L-360.172 -184.078ZM-386.566 -258.733L-380.284 -248.066C-381.352 -246.799 -381.676 -245.109 -381.126 -243.577L-373.207 -221.085L-381.676 -218.363L-383.911 -225.902C-384.024 -226.262 -384.348 -226.544 -384.736 -226.575L-394.452 -227.654L-405.625 -243.076L-386.566 -258.733ZM-407.147 -241.856L-395.828 -226.231C-395.666 -226.012 -395.424 -225.871 -395.132 -225.84L-385.627 -224.792L-373.693 -184.657C-373.58 -184.297 -373.272 -184.031 -372.9 -183.985L-359.476 -182.076L-349.906 -154.939C-353.598 -152.515 -360.561 -148.089 -369.629 -142.958L-388.185 -145.899C-388.153 -146.04 -388.137 -146.18 -388.169 -146.337L-402.726 -211.419C-402.775 -211.669 -402.953 -211.888 -403.18 -212.029C-403.406 -212.17 -403.682 -212.201 -403.941 -212.138L-426.934 -206.054L-433.055 -220.616L-407.147 -241.856ZM-397.755 -180.278L-390.129 -146.212L-424.926 -151.717L-430.059 -173.255L-397.755 -180.278ZM-430.497 -175.085L-436.779 -201.471L-404.41 -210.042L-398.16 -182.123L-430.497 -175.085ZM-424.813 -149.793L-372.284 -141.472C-386.906 -133.37 -406.321 -123.939 -426.287 -117.948L-424.813 -149.793ZM-451.952 -246.955L-441.799 -244.484L-440.39 -217.503L-467.707 -214.641L-473.504 -239.197L-451.952 -246.955ZM-475.431 -238.9L-469.65 -214.422L-512.042 -209.995L-510.601 -241.95L-475.431 -238.9ZM-515.006 -272.857L-504.885 -270.808L-512.269 -243.983L-520.592 -244.703L-515.006 -272.857ZM-540.8 -233.942L-521.58 -242.904L-512.561 -242.122L-513.985 -210.152L-542.922 -217.441L-540.8 -233.942ZM-551.795 -191.179L-549.269 -217.081L-531.004 -212.482L-534.097 -187.801L-551.795 -191.179ZM-518.892 -150.497L-515.929 -182.655L-489.956 -183.938L-484.661 -150.998L-518.892 -150.497ZM-488.158 -185.064C-488.239 -185.549 -488.676 -185.877 -489.178 -185.861L-516.754 -184.501L-532.17 -187.441L-529.093 -212.013L-513.305 -208.04C-513.257 -208.025 -513.192 -208.025 -513.143 -208.025C-513.127 -208.025 -513.111 -208.009 -513.111 -208.009C-513.095 -208.009 -513.079 -208.009 -513.062 -208.009C-513.03 -208.009 -512.998 -208.009 -512.965 -208.009L-439.257 -215.72C-439.241 -215.72 -439.224 -215.736 -439.208 -215.736C-439.046 -215.767 -438.917 -215.814 -438.803 -215.908C-438.787 -215.923 -438.755 -215.923 -438.739 -215.939L-434.626 -219.318L-428.845 -205.538L-438.237 -203.051C-438.739 -202.91 -439.046 -202.425 -438.933 -201.925L-426.999 -151.811L-482.718 -151.013L-488.158 -185.064ZM-456.567 -112.114C-462.914 -111.708 -469.602 -111.833 -476.467 -112.318L-482.394 -149.136L-426.772 -149.95L-428.278 -117.338C-437.751 -114.617 -447.337 -112.709 -456.567 -112.114ZM-429.217 -107.266C-385.53 -118.793 -343.996 -147.338 -341.308 -149.199L-334.361 -153.657L-332.192 -142.692L-357.274 -125.644C-357.695 -125.362 -357.808 -124.799 -357.549 -124.377L-353.129 -117.385C-352.886 -116.994 -352.368 -116.822 -351.914 -117.01L-332.03 -124.956L-351.947 -104.622C-351.995 -104.575 -352.044 -104.528 -352.076 -104.466C-352.238 -104.216 -367.54 -80.0973 -376.624 -77.4383C-376.754 -77.4227 -376.883 -77.407 -376.996 -77.407C-377.466 -77.3601 -377.936 -77.3132 -378.405 -77.2819L-378.405 -94.6903C-378.405 -95.1282 -378.713 -95.5036 -379.15 -95.6131L-429.217 -107.266ZM-399.974 -98.5223L-380.364 -93.9551L-380.364 -77.1098C-384.121 -76.7657 -387.279 -76.4842 -389.173 -76.3904C-391.813 -76.2809 -397.221 -77.1255 -403.39 -78.3455L-399.974 -98.5223ZM-523.069 0.563202L-520.803 -9.5878C-520.754 -9.77548 -520.77 -9.96317 -520.851 -10.1352L-533.109 -39.3838L-532.299 -58.935L-461.829 -85.4308L-434.383 -83.5695C-431.922 -82.9283 -397.626 -74.1381 -389.092 -74.4978C-386.615 -74.6073 -382.081 -75.0296 -376.835 -75.5301C-368.657 -76.2965 -357.808 -77.3288 -349.194 -77.6416C-380.883 -60.546 -470.298 -8.64932 -515.038 17.4085L-523.069 0.563202ZM-510.909 26.0267C-437.702 -16.6106 -342.15 -71.7137 -335.236 -74.185C-326.605 -76.7501 -292.811 -91.3744 -280.926 -105.013C-272.862 -114.273 -256.249 -160.883 -241.076 -205.256C-239.149 -210.871 -237.481 -215.767 -237.028 -216.909C-235.992 -218.582 -229.822 -227.685 -221.273 -240.214L-147.337 -233.817L-119.535 -175.257C-119.292 -174.741 -118.952 -174.287 -118.547 -173.88L-58.4888 -115.868L-34.1676 -53.5233L-52.4976 -44.3577C-53.7606 -43.732 -54.6674 -42.5902 -55.0074 -41.2607L-65.144 -0.156281C-65.4516 1.07935 -65.2249 2.37756 -64.5286 3.44113L-47.1055 30.2498L-50.7164 100.634L-106.597 141.567C-119.891 145.711 -293.054 199.798 -387.311 239.01C-391.796 228.045 -396.703 216.143 -401.836 203.708C-408.361 187.911 -414.531 172.958 -415.599 169.924C-415.745 167.39 -417.543 165.81 -440.083 148.777C-449.296 141.801 -460.777 133.136 -462.736 130.978C-465.278 128.162 -471.464 112.693 -475.949 99.3359C-476.014 99.1638 -476.079 98.9918 -476.16 98.8198L-510.909 26.0267ZM-545.172 153.391L-526.162 143.991C-525.968 143.897 -525.806 143.725 -525.709 143.537L-513.775 117.448C-513.743 117.37 -513.71 117.292 -513.71 117.214L-511.411 102.386L-489.017 94.2995L-485.098 102.48C-483.268 107.892 -475.075 131.572 -470.039 137.14C-468.598 138.736 -464.987 141.676 -459.433 145.977L-493.048 162.479C-493.502 162.697 -493.712 163.229 -493.502 163.683L-465.667 226.857L-506.553 242.169L-545.172 153.391ZM-505.824 243.921L-464.922 228.593L-456.356 248.05L-497.356 263.41L-505.824 243.921ZM-496.595 265.13L-454.753 249.458L-446.122 247.237L-440.601 261.986C-457.652 269.431 -473.876 276.548 -488.774 283.117L-496.595 265.13ZM-525.401 309.738C-514.164 304.733 -501.226 299.008 -487.041 292.752L-474.702 325.238C-487.333 330.603 -500.222 336.062 -512.771 341.349L-525.401 309.738ZM-551.585 359.758C-540.703 355.191 -527.733 349.732 -513.84 343.867L-489.357 405.07C-489.324 405.132 -489.276 405.164 -489.227 405.211L-530.81 419.585L-551.585 359.758ZM-530.194 421.368L-500.125 410.982C-500.108 411.045 -500.108 411.107 -500.092 411.17L-493.874 426.623L-524.138 438.776L-530.194 421.368Z" fill="#6775FF"/>
</g>
</svg>
