<svg width="768" height="725" viewBox="0 0 768 725" fill="none" xmlns="http://www.w3.org/2000/svg">
<mask id="mask0_1997_6913" style="mask-type:alpha" maskUnits="userSpaceOnUse" x="0" y="0" width="768" height="725">
<rect width="768" height="725" fill="#7481FF"/>
</mask>
<g mask="url(#mask0_1997_6913)">
<path d="M-523.052 751.547L-531.834 754.634H-523.47L-522.169 754.174L-522.007 754.634H-519.056L-519.521 753.252L-372.161 701.336C-368.653 717.604 -364.657 735.324 -360.22 754.634H-345.839C-364.634 672.463 -374.902 621.261 -376.273 587.941C-352.228 580.752 -334.037 580.222 -329.693 580.222L-318.193 620.224C-318.077 620.639 -317.775 620.962 -317.38 621.123C-317.217 621.192 -317.031 621.238 -316.846 621.238C-316.613 621.238 -316.381 621.192 -316.172 621.077L-282.811 602.988C-282.184 602.642 -281.928 601.905 -282.184 601.26L-296.913 564.506L-277.723 554.897L-256.791 544.85L-236.254 561.787L-320.609 754.634H-317.566L-280.604 670.136L-230.4 689.953L-227.17 718.203L-274.331 725.462C-274.982 725.554 -275.47 726.084 -275.516 726.752L-277.398 754.634H-274.587L-272.798 728.043L-254.793 725.278L-253.19 754.634H-231.677L-234.233 722.121L-225.428 720.761L-191.858 716.406L-184.377 754.634H-181.52L-189.07 716.037L-170.159 713.572L-165.885 732.444L-179.847 754.611H-176.548L-165.025 736.292L-160.867 754.611H-155.128L-160.402 731.315L-107.363 709.816L-94.0516 745.555C-93.8193 746.201 -93.1224 746.592 -92.4254 746.431L-76.6045 742.721L-73.0964 754.611H-70.1692L-74.258 740.67C-74.4671 739.956 -75.2105 739.541 -75.9307 739.703L-91.8446 743.436L-104.762 708.756L6.03144 663.845L82.4644 652.277L93.3602 676.127C93.4531 676.311 93.5693 676.472 93.7086 676.611L123.515 702.373L162.01 745.993L169.631 754.611H173.348L164.914 745.072L182.176 725.255L198.67 750.418C198.949 750.832 199.391 751.04 199.855 751.04C200.111 751.04 200.39 750.971 200.622 750.809C201.272 750.395 201.458 749.542 201.04 748.897L183.546 722.213L169.886 700.161L197.857 674.445L212.145 690.506L211.773 719.332C211.773 720.093 212.377 720.738 213.167 720.738H213.19C213.957 720.738 214.584 720.139 214.584 719.356L214.956 689.976C214.956 689.63 214.84 689.307 214.608 689.031L199.925 672.509L213.771 659.766L250.083 679.284C250.292 679.399 250.524 679.445 250.756 679.445C251.151 679.445 251.569 679.261 251.825 678.938L260.189 668.983L264.44 679.422C264.603 679.814 264.951 680.113 265.369 680.251L285.186 685.713L291.807 705.645C291.877 705.852 291.993 706.037 292.132 706.175L339.293 754.565H346.658L406.852 697.672C406.852 697.672 406.852 697.672 406.875 697.672C406.875 697.672 406.875 697.649 406.898 697.649L440.515 665.873L504.797 700.852L515.925 727.789L495.458 754.634H498.966L533.977 708.825L534 708.848C534.255 709.055 534.581 709.147 534.883 709.147C535.301 709.147 535.696 708.963 535.974 708.641C536.462 708.041 536.369 707.166 535.765 706.682L535.673 706.613L554.351 682.164L576.7 699.562C570.59 707.212 564.457 714.862 558.324 722.535L558.3 722.558C558.277 722.582 558.254 722.605 558.254 722.628C554.49 727.351 550.727 732.052 546.963 736.776C541.62 743.459 536.811 749.496 532.676 754.658H557.929C562.25 743.205 566.083 735.209 569.289 731.177C569.754 730.601 570.218 730.001 570.706 729.402L594.798 746.247C595.053 746.408 595.332 746.5 595.611 746.5C596.029 746.5 596.447 746.316 596.726 745.947L605.693 734.149C606.158 733.527 606.042 732.674 605.415 732.214C604.787 731.753 603.928 731.868 603.463 732.49L595.309 743.228L572.449 727.259C586.922 709.124 605.299 686.197 625.324 661.31L676.737 686.934L639.101 754.634H642.307L650.183 740.486L676.295 754.634H682.127L651.53 738.043L682.8 681.772L702.478 647.023C702.547 646.885 702.617 646.724 702.64 646.586L708.634 611.767C708.634 611.744 708.634 611.744 708.634 611.721L830.044 621.054L811.435 638.175C810.947 638.636 810.831 639.373 811.203 639.926L828.069 666.403L773.521 754.634H776.82L829.998 668.546L923.901 753.989L923.506 754.634H931.637L928.129 753.229L972.479 705.829L1035.02 734.38C1032.56 740.993 1030.05 747.768 1027.52 754.634H1042.48C1045.29 746.984 1048.08 739.472 1050.77 732.214C1055.6 740.094 1060.27 747.675 1064.62 754.634H1081.11C1077.14 748.344 1072.7 741.223 1067.96 733.55L1106.36 748.597L1120.74 754.634H1127.92L1108.71 746.569L1136.31 679.745L1148 684.445L1148 681.45L1137.38 677.164L1148 651.448L1148 644.12L1145.84 649.328L1121.07 637.806L1128.32 622.667L1148 630.018L1148 627.045L1129.5 620.132L1135.57 607.458C1135.8 606.952 1135.71 606.398 1135.38 605.984L1148 611.145L1148 608.15L1109.29 592.342C1111.22 588.102 1113.22 583.724 1115.22 579.3L1148 592.918L1148 589.9L1116.35 576.765C1120.56 567.456 1124.81 557.939 1128.9 548.768L1148.02 556.464L1148.02 541.463L1134.59 536.048C1139.66 524.642 1144.23 514.249 1147.79 506.161L1148.02 506.276L1148.02 467.218C1133.92 493.211 1114.4 518.328 1068.78 531.785C1066.5 532.131 1064.2 532.522 1061.88 532.983C1041.41 537.039 988.788 536.394 944.415 534.32L959.167 485.814L996.315 435.626L1043.31 469.062C1043.57 469.246 1043.85 469.315 1044.13 469.315C1044.57 469.315 1044.99 469.108 1045.26 468.739C1045.71 468.117 1045.57 467.241 1044.94 466.804L997.941 433.414L1023.12 399.38L1148.02 450.627L1148.02 447.632L1023.43 396.499L988.625 363.778L1047.68 291.815L1148 341.357L1148 325.826L1055.21 279.994L1148.02 98.5525L1148.02 73.4816L1121.72 79.1733L1129.69 51.0607C1134.31 53.365 1140.72 56.2685 1148.04 58.9875L1148.04 44.0787C1139.19 40.484 1132.38 36.8432 1129.9 35.4606C1119.98 23.4321 1034.67 -79.9851 1019.59 -93.9953C1004.77 -107.798 950.455 -131.924 937.422 -137.593C900.762 -204.348 846.399 -304.54 843.263 -313.619C842.171 -318.942 837.757 -359.083 833.715 -397.495H819.636C820.449 -389.684 821.355 -381.181 822.285 -372.609L813.387 -397.518H798.518L803.234 -384.315L738.022 -389.269L739.254 -397.518H736.419L735.211 -389.476L677.573 -393.855L677.178 -397.518H671.533L671.974 -393.578L642.911 -388.854L640.727 -397.518H637.847L640.17 -388.416L595.681 -381.204L593.915 -397.518H591.104L592.893 -380.743L535.185 -371.388L530.864 -397.518H528.029L532.42 -370.927L475.85 -361.756C475.595 -374.153 475.386 -385.859 475.223 -396.044L484.005 -397.518H443.79L403.413 -395.928L403.506 -397.518H400.695L398.767 -361.11H380.414C380.112 -361.11 379.833 -361.018 379.577 -360.834C379.368 -360.673 362.943 -348.713 350.142 -339.588L347.122 -358.875L368.356 -368.046C368.798 -368.231 369.123 -368.669 369.193 -369.152L372.561 -395.03C372.654 -395.767 372.166 -396.435 371.423 -396.574L366.265 -397.518H351.002L369.634 -394.062L366.544 -370.282L345.055 -360.995C344.474 -360.742 344.125 -360.143 344.218 -359.497L347.61 -337.768C344.427 -335.51 341.57 -333.505 339.409 -332.007C329.001 -324.864 287.416 -311.36 283.815 -310.208L254.729 -311.867L202.48 -369.682L195.557 -391.389L204.85 -397.518H199.786L194.675 -394.154L193.583 -397.518H190.632L199.879 -368.576C199.948 -368.392 200.041 -368.208 200.181 -368.069L251.616 -311.107L142.449 -271.219C139.894 -271.796 123.887 -275.69 120.774 -285.299C119.589 -288.917 111.202 -307.604 100.237 -331.869C100.26 -331.869 100.307 -331.869 100.33 -331.892L153.74 -357.838L167.842 -324.91C168.004 -324.541 168.306 -324.265 168.678 -324.149C168.817 -324.103 168.98 -324.08 169.143 -324.08C169.375 -324.08 169.607 -324.149 169.816 -324.265L202.132 -342.1C202.457 -342.284 202.713 -342.607 202.806 -342.976C202.899 -343.344 202.852 -343.736 202.643 -344.059L175.88 -386.757C175.555 -387.287 174.904 -387.518 174.3 -387.356L147.374 -379.821L139.801 -397.518H136.757L152.648 -360.396L99.1217 -334.38C98.6571 -335.417 98.1924 -336.431 97.7278 -337.468C89.5269 -355.603 79.8392 -377.033 70.7555 -397.518H67.689C76.7494 -377.102 86.5068 -355.465 95.1723 -336.339C107.323 -309.448 116.917 -288.202 118.149 -284.446C121.378 -274.469 135.433 -270.113 140.498 -268.846C137.083 -262.532 124.235 -239.12 118.497 -233.429C113.874 -228.843 95.3117 -217.713 84.2998 -211.284L40.7399 -254.49L-25.4246 -397.518H-40.8506L-12.7399 -336.731L-115.727 -345.879C-105.644 -361.018 -93.494 -379.245 -81.2973 -397.518H-98.1172C-108.618 -381.803 -119.514 -365.466 -128.783 -351.501L-120.118 -397.518H-122.975L-129.109 -364.913L-184.238 -379.015L-180.428 -397.518H-183.285L-193.693 -346.985L-255.118 -363.023L-252.563 -397.518H-255.374L-257.999 -362.078L-257.999 -362.055L-257.999 -362.032L-262.042 -269.837C-262.065 -269.169 -261.623 -268.593 -260.996 -268.431L-235.069 -261.864L-290.013 -225.663L-332.388 -349.105C-327.137 -355.995 -315.126 -373.577 -307.925 -397.542H-322.7C-329.507 -377.379 -339.729 -362.608 -343.818 -357.216L-353.087 -373.369C-353.296 -373.738 -353.645 -373.968 -354.063 -374.061C-354.481 -374.13 -354.899 -374.015 -355.225 -373.761L-374.391 -357.608L-425.71 -397.518H-430.241L-376.528 -355.718L-429.125 -311.407L-431.123 -350.695C-431.147 -351.294 -431.588 -351.824 -432.169 -351.962L-448.176 -355.972C-448.454 -356.041 -448.733 -356.018 -449.012 -355.926L-481.188 -344.012L-532.159 -348.552L-521.588 -387.979H-501.795C-501.168 -387.979 -500.61 -388.416 -500.447 -389.016L-498.194 -397.518H-501.098L-502.887 -390.744H-522.541L-538.385 -394.039L-537.711 -397.518H-540.569L-541.126 -394.615L-555.089 -397.518H-568.749L-541.638 -391.896L-549.838 -349.566L-577.415 -336.362L-594.374 -339.657L-594.374 -336.823L-578.785 -333.781L-581.713 -310.37L-594.374 -313.642L-594.374 -310.761L-590.82 -309.84L-594.374 -272.418L-594.374 -242.761L-591.958 -268.201L-543.032 -258.638L-547.306 -211.077L-594.374 -212.644L-594.374 -209.856L-546.075 -208.243H-546.028L-494.941 -209.026L-486.485 -155.059C-524.771 -158.308 -566.078 -169.784 -594.374 -179.024L-594.374 -164.346C-587.753 -162.226 -580.551 -160.037 -572.838 -157.848C-531.625 -146.142 -496.08 -140.243 -466.877 -140.243C-462.486 -140.243 -458.235 -140.381 -454.146 -140.634C-443.436 -141.326 -432.494 -143.215 -421.598 -145.888L-376.598 -135.127L-381.5 -105.309C-400.179 -109.227 -422.295 -115.08 -422.621 -115.149C-422.713 -115.172 -422.806 -115.195 -422.876 -115.195L-462.719 -117.983C-462.928 -117.983 -463.137 -117.96 -463.323 -117.891L-564.684 -78.7638L-594.374 -110.678L-594.374 -106.577L-566.519 -76.6209L-567.704 -47.1718C-567.704 -46.9644 -567.681 -46.7801 -567.611 -46.5958L-550.071 -3.62044L-552.44 7.30195L-594.374 -82.7273L-594.374 -49.5913L-551.023 43.5256C-556.39 46.7286 -561.036 49.5169 -564.846 51.7981L-594.374 31.4511L-594.374 48.3647L-573.814 62.5362L-584.338 86.6392C-586.847 80.8093 -590.169 74.8181 -594.374 68.85L-594.374 99.9581C-593.584 102.539 -592.934 105.051 -592.446 107.539C-592.399 107.954 -592.33 108.369 -592.19 108.784C-589.077 125.628 -592.33 139.431 -594.374 145.814L-594.374 168.811L-584.036 156.921C-583.571 156.391 -583.199 155.814 -582.921 155.169C-582.34 153.833 -573.744 133.762 -578.158 107.47L-559.549 64.8635C-554.833 62.0292 -550.001 59.1488 -545.099 56.1993L-502.817 147.035L-535.528 159.156C-536.015 159.34 -536.341 159.755 -536.434 160.262L-539.826 182.729L-556.669 220.542L-584.663 234.737C-585.314 235.06 -585.592 235.843 -585.314 236.511L-515.688 400.97L-503.839 428.921C-509.972 431.686 -515.92 434.405 -521.705 437.032L-594.374 268.656L-594.374 275.708L-524.237 438.23C-527.745 439.82 -531.16 441.387 -534.529 442.908L-594.374 302.852L-594.374 309.973L-537.061 444.06C-544.727 447.563 -552.022 450.881 -558.876 454.015L-579.924 400.002C-580.203 399.287 -581.016 398.942 -581.736 399.195C-582.456 399.472 -582.828 400.278 -582.549 400.993L-561.431 455.167C-574.069 460.928 -585.128 465.997 -594.374 470.26L-594.374 485.584C-584.291 480.952 -571.467 475.053 -556.39 468.163L-538.269 514.664C-557.273 522.89 -575.626 530.84 -592.283 538.03L-594.374 531.877L-594.374 541.947C-594.235 541.878 -594.118 541.832 -593.979 541.786L-554.624 658.153L-594.374 674.537L-594.374 677.555L-553.741 660.803L-523.052 751.547ZM-250.379 754.588L-252.005 724.84L-237.021 722.535L-234.581 753.759L-250.379 754.588ZM148.466 -377.241L174.045 -384.407L199.46 -343.782L169.793 -327.398L148.466 -377.241ZM-372.765 698.594L-520.404 750.625L-551.139 659.743L-506.255 641.24C-505.558 640.94 -505.21 640.157 -505.489 639.442L-514.898 615.408C-514.921 615.339 -514.967 615.293 -515.014 615.224L-395.044 572.64L-390.096 570.889C-391.978 598.84 -385.635 638.774 -372.765 698.594ZM502.451 -256.103C502.497 -256.61 502.265 -257.094 501.847 -257.371C501.429 -257.647 500.894 -257.693 500.43 -257.463L479.405 -247.139C478.499 -263.431 477.709 -286.336 477.058 -310.485L542.689 -308.849L543.269 -305.323C543.13 -303.825 542.201 -293.663 542.038 -279.123C542.038 -279.031 542.015 -278.962 542.038 -278.87C541.968 -271.404 542.108 -262.786 542.665 -253.592C542.665 -253.568 542.642 -253.522 542.642 -253.499C542.642 -253.43 542.665 -253.384 542.689 -253.315C543.502 -240.019 545.221 -225.571 548.45 -211.676C551.935 -196.744 560.856 -164.945 571.148 -129.505L490.742 -115.425C490.579 -117.684 490.417 -119.965 490.254 -122.246L502.451 -256.103ZM489.023 -139.551C486.235 -177.319 483.192 -214.557 481.24 -225.709C480.659 -229.074 480.102 -235.549 479.591 -244.167L499.454 -253.914L489.023 -139.551ZM685.077 -274.63L689.352 -235.733L659.011 -245.043L659.011 -277.533L685.077 -274.63ZM659.011 -280.368L659.011 -319.84L680.57 -315.531L684.752 -277.464L659.011 -280.368ZM624.488 -158.562L617.17 -179.739L695.02 -184.347L696.251 -173.125L624.488 -158.562ZM696.553 -170.383L697.901 -158.239L633.642 -132.132L625.417 -155.935L696.553 -170.383ZM616.218 -182.481L612.733 -192.55C612.477 -193.288 611.687 -193.657 610.944 -193.403C610.2 -193.15 609.829 -192.366 610.084 -191.629L631.481 -129.781C631.597 -129.412 631.876 -129.136 632.224 -128.975C632.41 -128.882 632.596 -128.859 632.805 -128.859C632.991 -128.859 633.177 -128.906 633.34 -128.952L698.226 -155.313L698.249 -154.99C690.699 -127.661 680.221 -98.1431 672.95 -86.0685L592.846 -65.5602C576.212 -121.624 556.721 -188.495 551.168 -212.321C548.078 -225.571 546.406 -239.351 545.569 -252.117H584.041C584.808 -252.117 585.435 -252.739 585.435 -253.499L585.435 -264.698L611.316 -256.748L598.492 -218.382C598.259 -217.644 598.654 -216.861 599.374 -216.63C599.514 -216.584 599.676 -216.561 599.816 -216.561C600.397 -216.561 600.954 -216.93 601.14 -217.506L613.964 -255.919L627.95 -251.633L627.95 -214.81C627.95 -214.05 628.577 -213.427 629.344 -213.427L691.768 -213.427L694.672 -187.089L616.218 -182.481ZM756.376 -45.4897L749.011 -62.4263C748.709 -63.1176 747.919 -63.4402 747.222 -63.1637L733.748 -57.956C733.237 -57.7716 732.911 -57.3108 732.865 -56.7808L730.914 -32.3782L692.07 -21.9166C691.35 -21.7323 690.908 -21.018 691.071 -20.3036L696.298 5.08984C696.437 5.75809 697.018 6.19589 697.669 6.19589C697.762 6.19589 697.855 6.19591 697.947 6.17286L762.974 -6.96167C763.345 3.82248 763.647 12.648 763.81 17.4409C732.029 16.8879 694.625 15.6666 688.469 12.3484C680.129 7.83195 633.943 -30.0278 604.787 -54.3152L759.814 -93.9953C760.186 -83.9946 760.859 -65.5371 761.58 -46.2501L756.376 -45.4897ZM761.649 -43.4388C762.067 -31.8021 762.509 -20.0501 762.857 -9.77293L698.737 3.17726L694.068 -19.5662L732.586 -29.9126C733.167 -30.0739 733.562 -30.5578 733.608 -31.1339L735.56 -55.6517L746.943 -60.0529L754.192 -43.3697C754.447 -42.7936 755.075 -42.448 755.679 -42.5402L761.649 -43.4388ZM872.28 467.679C872.28 467.771 872.28 467.864 872.28 467.956C872.628 483.74 871.606 497.612 871.118 502.06C868.075 501.184 860.687 499.041 850.813 496.022C850.837 495.907 850.86 495.815 850.837 495.7L846.12 456.964C846.028 456.204 845.331 455.651 844.564 455.743C843.797 455.835 843.24 456.526 843.333 457.287L847.933 495.124C829.789 489.524 804.559 481.321 782.419 472.657C792.85 461.273 800.493 453.715 804.187 451.526C814.897 445.143 839.918 435.903 866.75 426.916C870.537 438.484 871.954 453.784 872.28 467.679ZM869.399 426.04C895.976 417.192 923.924 408.689 941.325 403.504L874.951 464.73C874.487 451.365 872.977 437.055 869.399 426.04ZM482.983 492.427C482.773 491.736 482.03 491.321 481.333 491.483L459.1 496.714C458.38 496.875 457.915 497.566 458.031 498.28L461.005 516.484L442.048 522.43L430.548 486.482L499.361 469.523L504.333 501.138L487.908 507.912L482.983 492.427ZM485.283 508.903L463.723 515.655L461.028 499.133L480.729 494.501L485.283 508.903ZM457.822 571.719L450.923 550.15L511.581 533.997L517.645 556.372L457.822 571.719ZM518.365 559.045L526.38 588.609L463.886 602.274L458.496 574.415L518.365 559.045ZM455.522 573.654L461.191 603.057L410.801 622.529L375.674 582.203L434.103 506.806L439.794 524.596L439.794 524.619C439.794 524.619 439.794 524.619 439.794 524.642L447.763 549.528L447.763 549.551C447.763 549.574 447.786 549.574 447.786 549.574L455.522 573.654ZM408.408 624.003L370.075 656.195L341.802 625.87L373.932 584.415L408.408 624.003ZM433.08 503.58L339.874 623.842L284.582 564.552L403.808 450.743L421.976 470.237L383.62 514.295C383.109 514.871 383.178 515.747 383.759 516.254C384.34 516.761 385.223 516.692 385.734 516.116L423.277 472.979L433.08 503.58ZM280.749 564.368L269.807 574.806L240.302 540.726L283.908 497.889L314.412 532.2L282.607 562.571C282.096 562.34 281.492 562.409 281.051 562.801C280.633 563.216 280.516 563.838 280.749 564.368ZM60.185 549.597C59.4881 549.275 58.6517 549.551 58.3032 550.243L45.8045 575.544L31.1916 577.364L19.3665 558.861L36.2794 538.329H62.1365C62.9031 538.329 63.5304 537.707 63.5304 536.947C63.5304 536.186 62.9031 535.564 62.1365 535.564H37.0228L37.0228 515.724L59.3719 518.904C59.4416 518.904 59.5113 518.927 59.581 518.927C59.9527 518.927 60.3012 518.789 60.58 518.512C60.882 518.213 61.0446 517.775 60.9749 517.337L56.7002 486.206C56.6305 485.699 56.3053 485.284 55.8174 485.1L37.2784 477.91L50.2418 423.621L61.788 426.64C62.485 426.824 63.2052 426.455 63.4607 425.787L79.7463 382.305L82.4644 385.485C82.4876 385.508 82.5341 385.531 82.5574 385.554C82.5806 385.577 82.5806 385.623 82.6038 385.646L202.899 486.482L171.582 515.908L97.2631 452.287C96.6823 451.78 95.7995 451.849 95.2884 452.425L82.4644 466.85C81.9533 467.426 81.9998 468.301 82.5806 468.808C83.1614 469.315 84.0442 469.269 84.5553 468.693L96.4733 455.305L128.673 482.888L113.316 497.52C112.759 498.05 112.736 498.926 113.27 499.479L149.163 536.993L131.739 553.353L97.2864 585.729L81.8836 567.94C81.3725 567.364 80.4897 567.294 79.9089 567.778C79.3281 568.285 79.2584 569.161 79.7463 569.737L95.242 587.641L76.6564 605.085L48.3832 576.673L60.7891 551.579C61.184 550.749 60.882 549.92 60.185 549.597ZM-221.479 487.22L-212.86 525.218L-223.872 529.366L-237.253 491.69L-221.479 487.22ZM-239.483 489.432L-291.453 503.742L-303.557 462.195C-303.696 461.688 -304.138 461.296 -304.649 461.204L-321.608 458.232C-321.864 455.697 -322.235 453.254 -322.7 450.95C-322.863 450.143 -323.118 449.107 -323.467 447.908L-236.626 420.51L-222.106 484.501L-239.483 489.432ZM-231.817 416.339C-231.979 415.579 -232.467 414.934 -233.164 414.542C-233.397 414.404 -233.652 414.358 -233.884 414.312L-239.39 396.015L-168.045 372.166L-145.487 439.613L-161.656 446.042C-162.307 446.295 -162.679 447.01 -162.493 447.678L-144.116 516.3L-207.493 523.49L-231.817 416.339ZM-132.036 371.175L-111.801 363.294L-85.7346 415.786L-111.15 425.902L-132.036 371.175ZM-113.752 426.939L-142.908 438.53L-161.587 382.65L-134.638 372.166L-113.752 426.939ZM-162.47 380.023L-165.838 369.931L-170.856 354.953L-123.881 338.961L-113.032 360.806L-162.47 380.023ZM-159.496 448.139L-84.4801 418.298L-53.8604 479.961L-51.4443 497.243L-92.9597 504.479C-93.0527 504.502 -93.1688 504.525 -93.2617 504.571L-112.753 512.705L-141.329 515.954L-159.496 448.139ZM-81.8781 417.261L-15.5278 390.854L-15.4116 392.674L-36.5759 494.663L-48.6797 496.783L-51.1191 479.362C-51.1423 479.224 -51.1888 479.062 -51.2585 478.947L-81.8781 417.261ZM-35.3911 497.29L-20.8479 499.663L-15.0399 508.995L-34.7638 519.365H-34.787L-70.0066 538.813L-90.4275 506.876L-35.3911 497.29ZM-69.6116 541.786L-34.5315 522.43L-16.0389 550.289L-64.0128 573.608L-79.7408 551.832L-69.6116 541.786ZM-32.0689 521.093L-13.5531 511.369L10.7243 550.289L-13.2278 549.505L-32.0689 521.093ZM-11.0672 510.055L-0.496717 504.502C-0.0785421 504.272 0.200222 503.857 0.246686 503.396L2.73248 474.846L22.5029 466.389C23.223 466.089 23.5483 465.26 23.2463 464.568C22.9443 463.854 22.1079 463.531 21.411 463.831L0.873958 472.61C0.409319 472.818 0.0840713 473.256 0.0376075 473.763L-2.47144 502.382L-12.5309 507.659L-18.7803 497.635C-18.9893 497.29 -19.3378 497.059 -19.7327 496.99L-33.6951 494.709L-12.6006 393.043C-12.5773 392.928 -12.5773 392.812 -12.5773 392.674L-12.7632 389.402C-12.5541 389.056 -12.5076 388.619 -12.6702 388.204C-12.7167 388.089 -12.7864 388.019 -12.8561 387.927L-14.2733 364.032C-14.2965 363.824 -14.3429 363.617 -14.4359 363.432L-31.8134 332.117L44.0853 322.347L52.3094 350.067C52.3558 350.252 52.4488 350.436 52.5882 350.574L77.7251 379.77L61.3466 423.529L49.6377 420.464C49.266 420.372 48.8943 420.418 48.5691 420.625C48.2438 420.81 48.0115 421.132 47.9186 421.501L34.3511 478.348C34.3279 478.463 34.3046 478.556 34.3046 478.671L34.3046 478.717L34.3046 536.394L17.9029 556.326L-11.0672 510.055ZM241.557 176.438C241.812 176.876 242.277 177.129 242.765 177.129C242.997 177.129 243.229 177.06 243.462 176.945L244.042 176.599C246.18 179.457 248.317 182.314 250.338 185.056C250.036 185.056 249.734 185.125 249.479 185.333L216.141 210.933L199.042 186.508C211.889 171.115 222.808 157.704 226.34 153.372C231.195 159.663 236.817 167.013 242.323 174.364L242.021 174.525C241.417 174.917 241.185 175.77 241.557 176.438ZM251.221 187.545C251.453 187.36 251.593 187.107 251.686 186.853C260.328 198.582 267.251 208.422 268.227 210.98C265.811 213.514 250.989 225.566 235.237 238.193L217.767 213.238L251.221 187.545ZM233.054 239.945C226.014 245.567 218.905 251.236 212.702 256.121C212.098 256.605 212.006 257.481 212.47 258.08C212.749 258.425 213.144 258.61 213.562 258.61C213.864 258.61 214.166 258.517 214.445 258.31C227.339 248.125 269.528 214.643 270.922 212.063C271.34 211.302 272.269 209.459 246.528 175.217L279.285 156.575L282.631 165.631C282.886 166.345 283.699 166.714 284.419 166.46C285.14 166.184 285.511 165.4 285.256 164.686L281.33 154.086C281.19 153.695 280.888 153.395 280.493 153.257C280.098 153.118 279.68 153.165 279.308 153.349L260.653 163.949L255.821 155.008L280.772 138.74C281.423 138.325 281.608 137.449 281.167 136.804C280.749 136.159 279.866 135.974 279.215 136.412L253.196 153.372C252.592 153.764 252.383 154.547 252.731 155.192L258.214 165.331L244.786 172.959C240.023 166.645 234.401 159.294 227.78 150.722L231.776 97.6538L294.502 50.4616L330.233 121.066L346.844 193.997L333.021 196.439C332.788 196.486 332.556 196.578 332.37 196.739L212.4 296.723L112.248 335.366L103.884 301.838C103.745 301.285 103.28 300.871 102.723 300.801L48.5923 293.243L52.9367 239.438C74.2171 244 104.651 249.623 125.583 249.623C135.41 249.623 143.123 248.378 146.84 245.222C155.691 237.663 178.157 211.463 197.16 188.743L233.054 239.945ZM203.572 101.479L168.887 74.0116C188.82 60.6927 221.507 38.8018 248.271 20.6439L274.151 48.3647L203.572 101.479ZM663.262 389.056L663.75 424.082C663.704 424.036 663.657 424.013 663.611 423.967C594.008 365.069 552.005 329.79 533.396 314.212L557.232 283.035L622.444 316.609C622.653 316.724 622.862 316.77 623.094 316.77C623.605 316.77 624.093 316.494 624.349 316.01C624.697 315.319 624.442 314.489 623.745 314.143L524.637 263.126L510.791 200.011L536.648 171.507L636.174 203.491L623.117 245.613C622.885 246.351 623.303 247.134 624.047 247.342C624.186 247.388 624.326 247.411 624.465 247.411C625.069 247.411 625.626 247.019 625.812 246.42L638.985 203.974H671.3L661.473 259.393L663.262 389.056ZM205.919 485.284L187.868 470.145L270.643 395.785C270.945 395.531 271.108 395.14 271.108 394.748L271.108 359.815L325.354 327.117C325.517 327.024 325.656 326.886 325.772 326.725L343.73 301.7L369.495 295.87L395.538 303.29L398.256 314.535C398.256 314.535 398.256 314.535 398.256 314.558L411.405 368.778L305.421 472.864C305.421 472.864 305.421 472.864 305.421 472.887L237.514 539.574L205.106 566.81L195.464 536.486C195.395 536.232 195.232 536.025 195.046 535.841L173.766 517.637L206.012 487.335C206.29 487.058 206.453 486.69 206.453 486.298C206.407 485.906 206.221 485.538 205.919 485.284ZM372.956 132.311L383.596 161.368L343.963 168.281L337.621 140.468L372.956 132.311ZM336.993 137.772L333.299 121.526L365.383 111.641L371.98 129.661L336.993 137.772ZM384.549 164.018L400.323 207.108L356.183 215.957C355.579 216.072 355.161 216.579 355.091 217.155L344.567 171L384.549 164.018ZM396.978 276.814L363.222 246.927L410.917 236.027L422.115 266.606L396.978 276.814ZM423.114 269.209L436.821 302.714L400.625 312.461L398.093 302.023L398.093 279.348L423.114 269.209ZM361.317 244.507L355.3 218.077C355.556 218.469 355.997 218.699 356.462 218.699C356.554 218.699 356.647 218.699 356.74 218.676L401.299 209.735L409.965 233.377L361.317 244.507ZM357.275 239.461L327.747 253.794L322.45 247.411C321.962 246.812 321.079 246.742 320.475 247.226C319.871 247.71 319.802 248.586 320.289 249.185L326.307 256.397C326.585 256.72 326.98 256.904 327.375 256.904C327.584 256.904 327.793 256.858 328.002 256.766L357.925 242.226L358.785 246.005L347.564 268.311L282.979 302.76L268.993 278.957L278.449 273.703C278.774 273.518 279.03 273.196 279.123 272.827C279.215 272.458 279.146 272.067 278.96 271.744L268.273 254.761C268.134 254.554 267.948 254.416 267.762 254.301L333.996 199.089L347.564 196.693L357.275 239.461ZM275.777 271.998L266.368 277.228C266.043 277.413 265.811 277.712 265.694 278.081C265.602 278.45 265.648 278.818 265.834 279.141L280.493 304.074L251.593 319.489C251.802 319.075 251.825 318.591 251.569 318.153L231.892 285.363C231.729 285.086 231.451 284.902 231.172 284.787L265.764 255.96C265.787 256.052 265.811 256.167 265.88 256.259L275.777 271.998ZM249.153 319.558C249.386 319.95 249.781 320.158 250.222 320.204L102.769 398.827L85.0432 383.964L91.2693 346.496L213.701 299.258C213.841 299.211 213.98 299.119 214.096 299.027L229.313 286.353C229.337 286.515 229.383 286.653 229.476 286.814L249.153 319.558ZM349.283 270.546C349.538 270.408 349.748 270.2 349.864 269.947L360.69 248.448L395.282 279.072L395.282 300.364L369.89 293.128C369.657 293.059 369.425 293.059 369.193 293.105L342.569 299.142C342.244 299.211 341.942 299.419 341.733 299.695L323.635 324.927L268.97 357.879C268.552 358.133 268.296 358.57 268.296 359.077L268.296 394.172L185.707 468.371L105.069 400.785L349.283 270.546ZM327.306 455.282L341.338 471.527L322.311 488.833L308.302 473.947L327.306 455.282ZM306.304 475.906L321.196 491.736C321.474 492.036 321.846 492.174 322.218 492.174C322.566 492.174 322.891 492.059 323.17 491.805L343.15 473.647L357.902 490.699L316.433 530.287L285.906 495.953L306.304 475.906ZM329.303 453.323L369.471 413.874L392.099 438.138L401.926 448.669L359.946 488.741L329.303 453.323ZM371.446 411.915L412.381 371.705L425.971 406.108L393.191 435.281L371.446 411.915ZM401.276 315.18L437.866 305.318L455.732 348.984L413.891 367.281L401.276 315.18ZM425.716 268.219L451.573 259.14L481.263 337.832L458.31 347.878L425.716 268.219ZM454.198 258.218L468.3 253.264L498.432 330.32L483.819 336.726L454.198 258.218ZM470.948 252.319L487.048 246.673L510.977 312.392C511.395 313.544 512.115 314.558 513.068 315.342C513.161 315.411 515.368 317.254 519.805 320.964L501.034 329.167L470.948 252.319ZM522.152 322.969C539.459 337.463 581.997 373.18 654.527 434.52C657.594 437.101 660.637 439.613 663.68 442.101L662.496 484.731L510.745 347.994L502.172 331.702L522.152 322.969ZM638.149 201.186L536.648 168.557C536.137 168.396 535.556 168.534 535.185 168.949L508.236 198.652C507.934 198.974 507.817 199.435 507.91 199.873L522.059 264.324C522.152 264.716 522.407 265.062 522.779 265.269L554.746 281.722L531.282 312.392C527.565 309.281 524.986 307.115 523.522 305.894L473.759 169.202C473.643 168.903 473.504 168.603 473.365 168.304L458.473 140.468L516.065 100.742H565.247C566.013 100.742 566.641 100.119 566.641 99.359L566.641 34.2624L616.543 22.833L635.291 74.3803C635.361 74.5646 635.454 74.7029 635.57 74.8412L663.518 104.935L667.212 165.216C667.235 165.631 667.444 166 667.769 166.253L679.083 174.618L683.218 201.186H638.149V201.186ZM460.726 174.41L486.072 244.046L469.926 249.715L410.499 97.746L421.186 94.4508C427.203 109.682 434.079 124.591 441.839 139.062L460.726 174.41ZM467.301 250.66L453.222 255.614L395.421 102.424L407.827 98.5986L467.301 250.66ZM450.597 256.536L424.717 265.638L368.078 110.834L392.75 103.23L450.597 256.536ZM367.079 108.231L333.508 21.773C342.337 16.3118 350.421 12.5327 357.739 10.4819L391.751 100.649L367.079 108.231ZM364.407 109.06L332.37 118.923L296.848 48.7564L327.91 25.3908C328.978 24.6534 330.047 23.9851 331.092 23.2938L364.407 109.06ZM101.468 303.428L109.692 336.38L89.5037 344.168C89.039 344.353 88.7138 344.745 88.6209 345.228L82.6503 381.337L54.8649 349.054L46.455 320.734L48.4529 296.055L101.468 303.428ZM37.0228 480.745L54.0286 487.335L57.9315 515.839L37.0228 512.867L37.0228 480.745ZM169.561 517.752L151.254 534.965L116.313 498.465L130.857 484.616L169.561 517.752ZM97.1237 589.623L110.273 604.832C110.505 605.108 110.854 605.292 111.226 605.315L121.843 606.168C121.889 606.168 121.912 606.168 121.959 606.168C122.679 606.168 123.283 605.615 123.353 604.901C123.422 604.14 122.842 603.472 122.075 603.403L112.039 602.596L99.1682 587.734L132.715 556.211L150.185 574.369C150.464 574.645 150.836 574.806 151.208 574.806C151.556 574.806 151.905 574.668 152.183 574.415C152.741 573.885 152.764 573.009 152.23 572.456L134.759 554.298L171.698 519.595L192.886 537.73L202.759 568.792L112.759 644.42L78.6544 606.998L97.1237 589.623ZM162.986 605.845L190.423 635.294L176.182 645.756L169.329 637.599C169.073 637.276 168.678 637.092 168.26 637.092C167.795 637.115 167.447 637.276 167.191 637.576L146.12 661.978L127.348 635.801L162.986 605.845ZM165.124 604.048L203.665 571.65L217.558 615.385L192.7 633.635L165.124 604.048ZM205.989 569.714L238.234 542.615L267.785 576.742L259.794 584.369L219.928 613.634L205.989 569.714ZM404.877 447.77L395.119 437.309L427.087 408.873L442.164 447.033L423.834 468.094L404.877 447.77ZM428.992 406.085C428.992 406.062 428.968 406.039 428.968 406.016L414.704 369.977L456.707 351.611L484.586 434.912L444.627 445.65L428.992 406.085ZM459.263 350.482L482.355 340.389L523.847 424.358L487.304 434.175L459.263 350.482ZM484.911 339.26L499.57 332.854L508.329 349.514C508.398 349.653 508.514 349.791 508.631 349.906L627.834 457.31L609.202 481.182L557.673 440.742C557.069 440.258 556.186 440.373 555.698 440.972C555.211 441.571 555.327 442.447 555.931 442.931L659.452 524.158L624.651 530.679L535.58 447.378L527.146 424.773C527.146 424.75 527.123 424.727 527.1 424.704C527.1 424.681 527.1 424.658 527.077 424.635L484.911 339.26ZM661.334 526.623L659.382 596.974C655.735 601.444 652.041 605.984 648.347 610.569L631.597 597.619L625.766 533.283L661.334 526.623ZM611.455 482.888L629.971 459.176L662.403 488.395L661.473 522.13L611.455 482.888ZM665.121 490.861L711.956 533.052C696.6 551.441 679.873 571.788 662.263 593.402L665.121 490.861ZM665.214 487.197L666.398 444.291C693.162 465.721 719.158 482.565 743.412 495.838C734.305 506.415 724.362 518.167 713.722 530.909L665.214 487.197ZM739.091 451.088C722.016 438.115 698.668 417.699 682.893 403.62C683.009 403.574 683.149 403.527 683.242 403.435L692.767 395.854L725.919 403.573L745.457 437.309L739.091 451.088ZM747.873 438.783L788.761 446.341C783.603 451.18 776.843 458.209 768.758 467.103C757.398 462.218 747.687 457.31 741.391 452.793L747.873 438.783ZM738.789 454.36C745.108 459.107 755.075 464.223 766.76 469.292C762.486 474.039 757.839 479.247 752.891 484.915C725.895 470.444 696.554 451.411 666.561 426.409L666.073 392.213C675.993 401.223 714.419 436.041 738.789 454.36ZM756.097 502.543C799.796 524.803 836.851 535.334 860.757 540.265C859.502 544.781 858.201 549.482 856.877 554.206L739.974 521.485C745.573 514.848 750.963 508.512 756.097 502.543ZM737.976 523.812L771.616 533.237L767.481 547.454L727.684 536.048C731.192 531.9 734.631 527.799 737.976 523.812ZM774.334 533.997L856.11 556.879C854.716 561.856 853.346 566.834 851.998 571.65L770.175 548.215L774.334 533.997ZM859.177 556.303C859.2 556.303 859.2 556.303 859.177 556.303C860.64 551.049 862.081 545.818 863.475 540.818C864.195 540.956 864.892 541.094 865.566 541.233C885.847 545.957 899.693 549.713 909.218 553.422L844.889 607.643C847.422 598.61 853.346 577.295 859.177 556.303ZM864.497 526.692C860.222 525.725 855.715 524.711 850.976 523.651C829.51 518.236 799.796 508.581 765.622 491.552C770.965 485.445 775.914 479.869 780.374 474.938C816.988 489.386 862.081 502.405 870.56 504.825C869.724 507.866 867.447 516.07 864.497 526.692ZM796.962 439.636C795.521 440.511 793.616 441.986 791.34 443.991L747.942 435.972L728.056 401.661C727.87 401.338 727.545 401.085 727.173 400.993L692.767 392.974C692.348 392.881 691.907 392.974 691.559 393.25L681.499 401.269C681.267 401.453 681.127 401.707 681.058 401.983C673.205 394.955 667.56 389.794 666.027 388.388L664.215 259.623L674.111 203.974H684.798L805.023 205.541C811.9 235.751 819.752 270.108 828.627 308.936C834.063 332.739 837.664 348.454 838.129 350.528C839.894 358.524 853.926 398.596 859.618 414.657C832.971 423.667 808.206 432.953 796.962 439.636ZM769.827 23.1095C776.332 23.2017 782.976 23.2939 789.713 23.386C803.327 23.5473 814.107 23.6856 818.126 23.9621C818.382 23.9852 818.637 23.9851 818.939 23.9851C835.062 23.9851 927.548 -0.763086 953.986 -7.92948L982.771 116.411C982.794 116.549 982.863 116.664 982.887 116.78C982.91 116.872 982.91 116.941 982.933 117.033L1025.08 243.194L830.323 291.054C810.599 204.735 773.683 43.157 769.827 23.1095ZM895.186 1.81773C860.408 10.6893 825.537 18.9387 818.521 18.4087C814.339 18.1092 803.49 17.9709 789.783 17.8096C783.789 17.7405 776.82 17.6483 769.409 17.5331C768.874 -0.0257354 766.18 -72.9109 765.343 -95.424L850.627 -117.246L874.254 -108.72L895.21 -45.0288L895.21 1.81773H895.186ZM804.419 202.753L686.053 201.209L681.755 173.65C681.708 173.281 681.499 172.959 681.197 172.751L669.953 164.433L666.259 104.313C666.236 103.991 666.12 103.691 665.887 103.461L637.777 73.2051L618.703 20.8283C618.401 19.8604 608.783 -11.962 596.772 -52.2413L598.073 -52.5639C616.009 -37.609 675.389 11.6801 685.727 17.2796C692.743 21.0817 724.989 22.3721 764.112 23.0634C766.04 33.4328 778.097 87.3075 804.419 202.753ZM680.245 -87.9811C689.328 -105.102 698.342 -134.758 702.594 -149.829L752.612 -106.508L680.245 -87.9811ZM590.128 -64.915L579.256 -62.1268L494.993 -52.4948C494.273 -63.7628 492.74 -86.8289 490.928 -112.683L571.914 -126.878C577.838 -106.485 584.181 -85.0085 590.128 -64.915ZM546.057 -305.623L545.523 -308.803L601.628 -307.42L644.932 -284.308L628.298 -254.513L614.87 -258.638L618.727 -270.183C618.959 -270.92 618.564 -271.703 617.844 -271.934C617.1 -272.187 616.311 -271.772 616.078 -271.058L612.198 -259.444L544.849 -280.137C545.035 -295.023 546.034 -305.047 546.057 -305.277C546.08 -305.392 546.08 -305.508 546.057 -305.623ZM631.039 -253.661L647.418 -282.994L656.223 -278.294L656.223 -245.941L649.764 -247.923C649.741 -247.923 649.718 -247.946 649.695 -247.946L631.039 -253.661ZM649.3 -216.262H630.784L630.784 -250.826L647.906 -245.573L649.3 -216.262ZM582.624 -265.62L582.624 -254.951H545.383C544.919 -262.97 544.779 -270.528 544.803 -277.234L582.624 -265.62ZM670.998 -216.262L670.998 -238.475L689.7 -232.738L691.512 -216.262L670.998 -216.262ZM668.257 -239.328C668.234 -239.213 668.187 -239.12 668.187 -239.005L668.187 -216.262H652.111L650.74 -244.697L668.257 -239.328ZM656.223 -281.451L603.324 -309.678L601.372 -327.928L653.598 -335.556L656.223 -325.232L656.223 -281.451ZM601.07 -330.717L599.072 -349.451L647.255 -360.58L652.924 -338.298L601.07 -330.717ZM600.443 -310.231L545.081 -311.614L541.039 -336.063L596.308 -348.828L600.443 -310.231ZM542.224 -311.683L476.965 -313.296C476.826 -318.734 476.687 -324.218 476.547 -329.703L538.275 -335.464L542.224 -311.683ZM581.37 -48.3931C581.695 -48.4392 581.997 -48.4853 582.322 -48.5775L594.124 -51.5961C604.811 -15.695 613.639 13.5006 615.66 20.183L564.898 31.8198C564.271 31.9581 563.806 32.5341 563.806 33.1793L563.806 97.9764H515.577C515.298 97.9764 515.019 98.0686 514.787 98.2299L457.125 138.025L454.221 132.587C438.981 104.106 427.133 73.9195 419.002 42.9035C410.964 7.80893 410.453 -14.0359 417.469 -23.8522C420.535 -28.1613 425.437 -30.5578 432.918 -31.4104L581.37 -48.3931ZM420.187 91.87L394.446 99.7968L360.481 9.76758C368.008 8.06239 374.675 8.26977 380.414 10.4128C394.701 15.7357 401.903 32.8567 405.411 46.2678C409.454 61.7066 414.402 76.9381 420.187 91.87ZM398.86 5.71201C394.771 2.02512 390.264 -0.786134 385.339 -2.60654C380.135 -4.54215 374.536 -5.39477 368.542 -5.18738L398.14 -27.4469L403.739 -28.0922C399.557 -20.0501 397.931 -9.05859 398.86 5.71201ZM276.404 46.6826L250.617 19.0539C273.663 3.40769 291.761 -9.10469 292.434 -10.2568C293.503 -12.0542 297.081 -22.9075 299.427 -30.1891C319.918 -29.06 347.355 -28.7604 370.029 -28.7604C372.306 -28.7604 374.513 -28.7604 376.697 -28.7604L276.404 46.6826ZM290.111 -11.8007C288.833 -10.4412 271.595 1.426 248.666 16.9801L203.758 -31.1108L200.761 -47.7709C228.872 -41.1806 263.882 -33.5534 283.188 -31.4104C287.021 -30.9956 291.552 -30.6269 296.523 -30.3273C293.828 -21.9857 290.831 -13.0451 290.111 -11.8007ZM201.087 -30.2121C201.133 -29.9587 201.249 -29.7052 201.435 -29.5208L211.169 -19.1054L183.151 -8.09079L163.288 -56.8268C170.118 -55.1217 182.826 -51.9878 197.788 -48.4622L201.087 -30.2121ZM180.55 -7.07689L123.701 15.2518L120.867 10.7815L133.993 -43.8536L160.105 -57.2647L180.55 -7.07689ZM213.19 -16.9163L246.319 18.57C221.693 35.2532 191.12 55.7846 166.587 72.1912L146.422 55.7846L146.515 53.6876C146.584 52.259 146.213 50.8533 145.446 49.6551L125.188 17.6483L213.19 -16.9163ZM146.259 59.241L165.635 75.0025L201.249 103.207L141.822 147.911L146.259 59.241ZM228.872 99.889L225.062 150.607C220.485 156.252 160.524 229.944 145.098 243.125C135.085 251.674 88.3654 244.323 52.4488 236.534C52.2862 236.442 52.0771 236.373 51.868 236.35C51.7983 236.35 51.7518 236.373 51.6821 236.373C49.1266 235.82 46.6408 235.267 44.2247 234.714C49.3357 233.078 52.2397 232.133 52.5185 232.064C53.2619 231.834 53.9821 231.465 54.6094 230.981L228.872 99.889ZM50.2418 238.862L47.8721 268.08L-28.4215 276.929L-33.4628 260.177C-1.28661 249.462 24.4543 241.097 39.1137 236.373C42.3197 237.087 46.06 237.94 50.2418 238.862ZM-30.7447 278.841C-30.5588 279.44 -30.0245 279.832 -29.3972 279.832C-29.3508 279.832 -29.2811 279.832 -29.2346 279.832L47.663 270.915L43.7369 319.651L-33.3234 329.559L-65.8249 271.03C-55.4634 267.527 -45.5202 264.209 -36.088 261.075L-30.7447 278.841ZM-17.0843 364.539L-15.6904 387.927L-83.1094 414.749L-141.607 296.953C-116.099 288.059 -91.3335 279.602 -68.5197 271.905L-17.0843 364.539ZM-125.136 336.449L-171.739 352.303L-185.121 312.3C-171.414 307.415 -157.754 302.599 -144.279 297.898L-125.136 336.449ZM-173.946 354.515L-168.928 369.493L-240.18 393.319L-256.698 338.454C-234.21 330.02 -210.955 321.54 -187.723 313.245L-173.946 354.515ZM-236.696 414.703L-325.139 442.585C-329.414 429.635 -338.614 405.693 -350.532 375.668C-323.746 364.216 -292.475 351.888 -259.37 339.445L-236.696 414.703ZM-429.869 470.444C-411.818 462.518 -397.321 456.089 -385.705 450.881L-372.788 490.284L-415.814 510.055L-429.869 470.444ZM-409.541 536.071L-424.735 541.44L-433.121 521.254L-417.393 513.881L-409.541 536.071ZM-418.346 511.254L-435.537 519.319C-436.211 519.641 -436.513 520.425 -436.234 521.116L-426.825 543.744C-426.593 544.274 -426.082 544.597 -425.525 544.597C-425.362 544.597 -425.199 544.574 -425.06 544.528L-408.612 538.721L-397.321 570.52L-442.321 586.489L-465.251 524.503L-477.518 491.321C-460.489 483.902 -445.527 477.357 -432.401 471.597L-418.346 511.254ZM-414.861 512.705L-371.882 492.957L-363.611 518.19C-364.68 519.111 -365.749 520.01 -366.887 520.932C-380.524 531.739 -387.889 546.003 -389.864 567.871L-394.673 569.576L-414.861 512.705ZM-369.327 491.782L-336.477 476.689C-339.427 490.699 -347.791 504.041 -361.312 516.185L-369.327 491.782ZM-370.209 489.109L-383.126 449.729C-360.545 439.613 -349.417 434.359 -343.911 431.502C-339.845 442.447 -337.081 450.512 -336.43 453.669C-335.083 460.329 -334.943 466.896 -335.896 473.348L-370.209 489.109ZM-344.84 429.013C-351.275 432.262 -365.284 438.691 -383.986 447.056L-400.202 397.605C-388.47 392.375 -376.552 387.075 -364.494 381.729C-364.123 381.567 -363.728 381.383 -363.333 381.222C-356.363 398.919 -349.765 415.832 -344.84 429.013ZM-370.233 369.055C-390.514 378.042 -410.401 386.913 -429.613 395.508L-437.907 372.765C-438.163 372.097 -438.883 371.705 -439.58 371.889L-452.102 375.184L-505.024 251.881L-456.818 227.571C-452.079 231.327 -446.48 235.682 -440.021 240.682C-428.614 249.554 -413.212 261.49 -409.587 265.062C-408.17 269.325 -403.687 280.547 -389.515 315.802C-383.382 331.08 -375.901 349.676 -368.513 368.248C-369.071 368.548 -369.652 368.825 -370.233 369.055ZM-402.78 398.781L-386.565 448.231C-399.505 454.015 -414.536 460.651 -430.798 467.818L-448.083 419.081C-433.47 412.491 -418.323 405.716 -402.78 398.781ZM-433.377 468.924C-447.711 475.214 -462.951 481.897 -478.516 488.671L-496.242 440.788C-481.839 434.267 -466.575 427.377 -450.661 420.211L-433.377 468.924ZM-468.387 524.089L-491.457 532.108L-503.235 502.497C-498.124 500.262 -492.99 498.05 -487.856 495.815C-485.231 494.663 -482.652 493.557 -480.119 492.451L-468.387 524.089ZM-493.571 534.366C-493.362 534.919 -492.827 535.242 -492.27 535.242C-492.107 535.242 -491.968 535.218 -491.805 535.172L-467.435 526.716L-459.629 547.777L-482.373 557.455C-483.093 557.755 -483.418 558.584 -483.116 559.275C-482.884 559.805 -482.373 560.128 -481.839 560.128C-481.653 560.128 -481.467 560.082 -481.281 560.013L-458.676 550.381L-444.97 587.411L-499.448 606.744C-499.472 606.629 -499.472 606.514 -499.518 606.398L-534.691 516.139C-525.282 512.06 -515.595 507.866 -505.814 503.603L-493.571 534.366ZM-316.009 617.782L-326.998 579.553L-314.755 573.424L-303.185 610.823L-316.009 617.782ZM-285.273 601.122L-300.676 609.486L-312.106 572.502C-312.153 572.387 -312.222 572.295 -312.269 572.203L-299.422 565.774L-285.273 601.122ZM-328.973 577.456C-331.784 577.433 -350.811 577.549 -376.389 585.084C-377.132 556.971 -371.139 542.085 -358.152 531.785C-326.905 506.991 -320.168 481.067 -321.376 461.112L-305.996 463.808L-280.046 552.916L-328.973 577.456ZM-257.093 541.901C-257.116 541.901 -257.14 541.924 -257.163 541.947C-257.186 541.947 -257.186 541.947 -257.209 541.947L-277.491 551.671L-290.663 506.415L-239.971 492.474L-226.497 530.379L-257.093 541.901ZM-233.257 561.925C-233.002 561.349 -233.164 560.704 -233.652 560.312L-253.864 543.675L-212.256 527.983L-190.464 624.049L-223.43 632.068L-256.605 615.293L-233.257 561.925ZM-279.489 667.578L-257.72 617.828L-225.475 634.142L-248.335 679.883L-279.489 667.578ZM-224.383 717.812L-227.705 688.8C-227.751 688.293 -228.1 687.856 -228.588 687.671L-245.733 680.897L-222.64 634.695L-189.86 626.722L-170.787 710.853L-224.383 717.812ZM5.4739 661.149C5.35774 661.172 5.26478 661.195 5.14862 661.241L-44.2657 681.265C-44.2657 681.104 -44.2889 680.943 -44.3586 680.781L-53.4423 657.6C-53.6746 657.001 -54.3018 656.632 -54.9523 656.725L-94.0981 662.624L-104.041 594.716L-91.8911 585.867C-91.4032 585.521 -91.2173 584.899 -91.38 584.346L-99.9293 556.349C-100.162 555.612 -100.928 555.197 -101.672 555.427C-102.415 555.658 -102.833 556.418 -102.601 557.155L-94.3304 584.208L-106.365 592.964C-106.783 593.264 -106.992 593.771 -106.922 594.278L-96.6536 664.398C-96.6071 664.767 -96.3981 665.089 -96.096 665.32C-95.794 665.55 -95.4223 665.619 -95.0506 665.573L-55.6261 659.628L-46.9373 681.772C-46.8676 681.957 -46.7282 682.072 -46.5889 682.187L-160.983 728.55L-206.889 526.163L-112.219 515.424C-112.08 515.401 -111.963 515.378 -111.824 515.332L-93.2385 507.567L-72.2369 540.426L-82.5751 550.68C-83.0629 551.164 -83.1326 551.925 -82.7144 552.478L-65.5925 576.166C-65.3138 576.535 -64.8956 576.742 -64.4542 576.742C-64.2451 576.742 -64.036 576.696 -63.8501 576.604L-13.6925 552.224L12.4899 553.1L16.4625 559.46L28.5896 578.47L5.72942 595.13L-4.98049 581.351C-5.44513 580.752 -6.32792 580.636 -6.95518 581.097C-7.55921 581.558 -7.67538 582.434 -7.21074 583.056L3.45267 596.766L-8.88344 605.753C-9.23192 606.007 -9.46424 606.422 -9.46424 606.882L-9.46424 628.405C-9.46424 628.75 -9.34809 629.073 -9.11577 629.326L17.3221 659.328L5.4739 661.149ZM20.6443 658.868L-6.60672 627.921L-6.60672 607.62L31.029 580.175L46.2459 578.286L75.6807 607.85L109.855 645.341L20.6443 658.868ZM180.642 722.812L163.079 742.975L125.513 700.437L95.7995 674.744L85.3684 651.885L112.829 647.738C112.852 647.738 112.875 647.715 112.921 647.692C113.131 647.646 113.316 647.576 113.479 647.438C113.502 647.415 113.525 647.438 113.525 647.415L113.549 647.392L125.165 637.645L144.819 665.043L180.642 722.812ZM168.422 697.764L147.723 664.375L168.213 640.64L174.858 648.544C174.858 648.544 174.881 648.544 174.881 648.567C174.881 648.567 174.881 648.567 174.881 648.59L196.022 672.371L168.422 697.764ZM198.09 670.481L177.994 647.876L192.328 637.345L211.611 658.038L198.09 670.481ZM213.051 655.526L194.582 635.686L218.418 618.173L222.344 630.548L213.051 655.526ZM259.329 665.757L250.431 676.357L215.304 657.462L224.899 631.746L260.096 622.644L266.81 630.939L259.329 665.757ZM342.917 754.358L294.386 704.562L287.649 684.215C287.509 683.777 287.138 683.431 286.696 683.316L266.833 677.832L262.117 666.287L269.737 630.893C269.83 630.478 269.714 630.064 269.458 629.741L261.768 620.247C261.42 619.81 260.862 619.625 260.328 619.763L224.83 628.935L220.857 616.445L261.652 586.489L282.607 566.465L404.017 696.658L342.917 754.358ZM406.015 694.723L371.98 658.245L410.151 626.192L438.424 664.098L406.015 694.723ZM440.398 662.024L412.613 624.81L462.376 605.569L476.083 620.962L455.824 644.281C455.824 644.281 455.824 644.281 455.801 644.281L440.398 662.024ZM517.877 725.278L507.19 699.4C507.074 699.101 506.842 698.87 506.563 698.709L442.489 663.845L457.079 647.069L531.793 707.051L517.877 725.278ZM533.489 704.861L458.914 644.996L478.15 622.874L552.167 680.459L533.489 704.861ZM553.84 678.224L481.101 621.63L524.754 611.191L577.955 646.678L553.84 678.224ZM578.442 697.349L556.047 679.929L580.255 648.222L604.741 664.559C596.029 675.389 587.247 686.358 578.442 697.349ZM606.507 662.37L525.799 608.541C525.474 608.334 525.079 608.265 524.684 608.334L478.452 619.372L465.442 604.739L528.447 590.983C528.819 590.891 529.144 590.66 529.353 590.337C529.563 590.015 529.609 589.623 529.516 589.254L513.951 531.877C513.742 531.14 512.975 530.702 512.231 530.886L450.109 547.431L442.954 525.033L487.49 511.069H487.513H487.536L487.629 511.046L506.493 503.258C507.097 503.004 507.446 502.382 507.33 501.76L501.94 467.564C501.94 467.541 501.917 467.518 501.917 467.518C501.917 467.495 501.917 467.472 501.917 467.449L499.222 456.757C499.036 456.019 498.269 455.559 497.526 455.743C496.782 455.927 496.318 456.688 496.504 457.425L498.85 466.758L429.758 483.786L425.484 470.444L444.603 448.484L525.032 426.87L533.14 448.6C533.21 448.807 533.326 448.991 533.489 449.13L622.932 532.776L628.879 598.449C628.925 598.84 629.111 599.186 629.413 599.416L646.605 612.689C633.525 628.819 620.12 645.456 606.507 662.37ZM699.899 645.871L680.338 680.413L678.107 684.445L627.113 659.052C640.239 642.76 654.062 625.686 667.978 608.611L705.823 611.514L699.899 645.871ZM670.116 605.961C689.096 582.687 708.146 559.483 725.756 538.398L768.085 550.519L851.278 574.346C846.167 592.711 841.869 608.127 841.126 610.823L832.112 618.427L670.116 605.961ZM830.764 665.504L814.153 639.419L843.31 612.62L912.169 554.598C918.372 557.271 922.437 559.99 925.179 563.101C933.078 572.11 973.966 616.607 989.833 633.843L897.44 726.107L830.764 665.504ZM925.643 751.8L899.484 727.997L917.907 709.608L944.624 731.476L925.643 751.8ZM946.529 729.448L919.882 707.627L937.631 689.907L969.784 704.585L946.529 729.448ZM939.722 687.833L991.692 635.94C993.481 637.875 994.828 639.35 995.525 640.11C997.035 642.668 1002.01 651.102 1008.93 662.739L986.813 709.332L939.722 687.833ZM1015.64 646.632C1012.65 641.562 1009.81 636.792 1007.26 632.437C1007 632.022 1006.72 631.608 1006.37 631.262C1006.28 631.147 1004.49 629.211 1001.59 626.054L1001.98 625.662L1020.85 633.267L1015.64 646.632ZM1023.45 634.304L1042.87 642.115C1042.85 642.161 1042.8 642.207 1042.78 642.253L1031.07 672.555C1026.31 664.582 1021.71 656.863 1017.46 649.673L1023.45 634.304ZM1035.97 731.753L989.369 710.484L1010.67 665.619C1019.22 679.998 1030.35 698.594 1041.48 716.982C1039.69 721.775 1037.83 726.729 1035.97 731.753ZM1047.73 700.276C1042.76 692.026 1037.76 683.708 1032.91 675.597L1045.43 643.244C1045.45 643.198 1045.43 643.175 1045.45 643.129L1066.41 651.563C1061.67 663.43 1055.21 680.367 1047.73 700.276ZM1106.13 745.509L1065.55 729.61C1062.76 725.07 1059.88 720.346 1056.95 715.553C1061.02 704.631 1064.83 694.492 1068.26 685.413L1121.42 708.502L1106.13 745.509ZM1122.49 705.898L1069.24 682.786C1073.17 672.44 1076.53 663.614 1079.23 656.771L1133.71 678.708L1122.49 705.898ZM1144.81 651.909L1134.8 676.127L1107.78 665.25C1107.92 665.135 1108.08 665.02 1108.15 664.836L1119.89 640.341L1144.81 651.909ZM1117.96 637.898L1105.64 663.66C1105.53 663.891 1105.5 664.121 1105.53 664.352L1080.27 654.19C1082.9 647.53 1084.74 643.175 1085.53 641.747C1087.31 639.166 1091.73 630.248 1097.51 617.943L1122.02 629.395L1117.96 637.898ZM1134.22 605.546C1133.73 605.592 1133.29 605.845 1133.08 606.306L1123.23 626.884L1098.7 615.408C1101.6 609.21 1104.81 602.274 1108.15 594.9L1134.22 605.546ZM1074.12 633.704C1073.26 634.834 1070.89 640.318 1067.4 649.005L1004.12 623.519L1083.6 544.159C1096.84 543.284 1108.08 544.205 1115.24 545.15C1097.51 584.853 1077.42 629.004 1074.12 633.704ZM1143.7 480.192C1143.07 481.828 1142.54 483.21 1142.1 484.247C1138.87 491.851 1130.73 510.401 1121.14 531.969C1113.61 530.725 1099.37 529.066 1081.95 530.333C1113.71 518.259 1131.18 499.94 1143.7 480.192ZM1064.62 546.625C1069.68 545.611 1074.58 544.943 1079.3 544.505L1001.29 622.39L996.408 620.432C978.682 601.145 942.881 562.156 935.726 553.999C933.612 551.579 931.103 549.413 928.059 547.385C974.965 550.035 1039.53 551.602 1064.62 546.625ZM1020.8 397.836L956.751 484.362C956.658 484.478 956.588 484.639 956.542 484.777L941.534 534.181C917.233 533.006 895.697 531.439 883.803 530.011C880.573 529.619 874.905 528.812 867.238 527.292C870.816 514.411 873.418 505.009 873.627 504.179C873.929 502.958 875.416 487.035 875.021 468.44L947.365 401.707C954.195 399.679 958.354 398.481 958.563 398.435C959.934 398.043 961.142 397.237 962.048 396.154L986.836 365.944L1020.8 397.836ZM952.569 385.692C942.742 388.549 902.737 400.255 864.938 412.883C859.316 397.006 845.307 356.98 843.635 349.353C843.17 347.256 839.569 331.518 834.133 307.714C833.32 304.189 832.46 300.433 831.577 296.515L1026.86 248.517L1037.95 281.699L952.569 385.692ZM1136.59 90.1648L1047.17 265.085L998.684 120.006L1136.59 90.1648ZM1010 -83.8564C1023.68 -71.1366 1102.95 24.7686 1117.56 42.4657L1106.2 82.5376L994.851 106.641L942.37 -120.149C964.905 -109.964 1000.19 -92.9814 1010 -83.8564ZM952.708 -13.3446C938.514 -9.49642 918.395 -4.12738 897.974 1.1034L897.974 -45.2593C897.974 -45.3975 897.951 -45.5588 897.904 -45.6971L877.577 -107.522L935.772 -86.5293L952.708 -13.3446ZM713.861 -388.301L804.257 -381.457L818.265 -342.123L765.32 -338.528C765.227 -338.528 765.111 -338.505 765.018 -338.482L713.861 -323.412L713.861 -388.301ZM713.861 -320.486L765.668 -335.74L819.241 -339.381L823.911 -326.292L713.861 -272.925L713.861 -320.486V-320.486ZM713.861 -269.837L824.84 -323.665L829.835 -309.655C829.858 -309.586 829.905 -309.517 829.928 -309.448C832.088 -303.641 843.681 -281.335 858.34 -253.845L741.693 -196.168C740.996 -195.823 740.717 -194.993 741.066 -194.302C741.321 -193.818 741.809 -193.541 742.32 -193.541C742.529 -193.541 742.739 -193.587 742.948 -193.68L859.641 -251.379C882.618 -208.381 912.517 -153.815 925.76 -129.689L932.032 -102.613L853.346 -131.002C852.021 -131.486 850.558 -131.555 849.21 -131.21L759.187 -108.167L703.755 -156.165L698.737 -201.676L729.241 -216.723C729.868 -217.022 730.17 -217.737 729.938 -218.405L713.838 -266.841L713.838 -269.837H713.861ZM711.073 -388.509L711.073 -271.266C710.864 -270.874 710.818 -270.413 711.027 -269.998C711.05 -269.975 711.073 -269.952 711.073 -269.929L711.073 -266.634C711.073 -266.496 711.097 -266.334 711.143 -266.196L726.918 -218.704L698.435 -204.648L681.035 -362.723C681.127 -362.677 681.197 -362.631 681.29 -362.608L699.388 -358.599L699.388 -342.584L685.031 -344.105C684.264 -344.174 683.567 -343.644 683.497 -342.86C683.404 -342.1 683.962 -341.409 684.752 -341.339L700.666 -339.634C700.712 -339.634 700.758 -339.634 700.805 -339.634C701.153 -339.634 701.479 -339.75 701.734 -339.98C702.036 -340.233 702.199 -340.625 702.199 -341.017L702.199 -359.682C702.199 -360.327 701.734 -360.903 701.107 -361.041L681.917 -365.281C681.499 -365.373 681.104 -365.258 680.802 -365.051L677.945 -390.997L711.073 -388.509ZM680.245 -318.435L659.011 -322.675L659.011 -325.44C659.011 -325.555 658.987 -325.67 658.964 -325.785L649.95 -361.226L674.901 -366.986L680.245 -318.435ZM672.276 -390.813L674.599 -369.729L649.277 -363.876L643.608 -386.158L672.276 -390.813ZM640.843 -385.72L646.558 -363.276L598.77 -352.239L595.959 -378.439L640.843 -385.72ZM593.172 -377.978L596.006 -351.594L540.574 -338.782L535.626 -368.646L593.172 -377.978ZM532.861 -368.208L537.833 -338.183L476.478 -332.468C476.269 -341.432 476.083 -350.349 475.897 -358.967L532.861 -368.208ZM473.876 -245.688L428.597 -245.688L425.484 -267.579L472.784 -269.169C473.109 -260.435 473.481 -252.485 473.876 -245.688ZM470.577 -345.625L466.163 -358.345H470.298C470.391 -354.174 470.484 -349.912 470.577 -345.625ZM469.601 -395.767C469.764 -385.467 469.996 -373.646 470.228 -361.11H465.187L453.408 -395.122L469.601 -395.767ZM403.274 -393.14L450.504 -395.007L462.236 -361.11H401.555L403.274 -393.14ZM340.989 -329.726C351.327 -336.823 377.44 -355.834 380.855 -358.322H399.998C400.021 -358.322 400.045 -358.322 400.068 -358.322H400.091L463.212 -358.345L470.786 -336.477C471.297 -314.172 471.924 -291.336 472.668 -271.957L423.834 -270.321C423.439 -270.298 423.067 -270.136 422.812 -269.814C422.556 -269.514 422.44 -269.123 422.487 -268.731L425.995 -244.121C426.088 -243.43 426.692 -242.923 427.389 -242.923L474.061 -242.923C474.573 -234.512 475.13 -228.152 475.734 -224.742C479.451 -203.565 487.49 -82.0821 489.464 -51.8726L411.382 -42.955C408.478 -42.9089 386.965 -42.6093 361.689 -42.6784L361.689 -102.752C361.689 -102.913 361.665 -103.074 361.596 -103.236L285.813 -307.95C293.573 -310.439 330.79 -322.721 340.989 -329.726ZM120.449 -231.447C126.977 -237.922 141.381 -264.606 143.541 -268.639L254.241 -309.079L282.979 -307.443L358.854 -102.475L358.854 -42.6554C331.905 -42.7706 301.402 -43.3697 284.745 -45.1901C254.59 -48.5083 181.781 -66.5049 165.007 -70.6988L128.673 -166.327C128.324 -167.249 127.767 -168.102 127.07 -168.793L86.3209 -209.234C97.4955 -215.755 115.663 -226.7 120.449 -231.447ZM-259.184 -270.828L-255.258 -360.189L-192.95 -343.92C-192.834 -343.897 -192.718 -343.874 -192.601 -343.874C-192.346 -343.874 -192.09 -343.943 -191.858 -344.082C-191.533 -344.289 -191.3 -344.612 -191.231 -344.98L-184.772 -376.296L-129.596 -362.17L-132.733 -345.51C-141.84 -331.8 -148.856 -321.131 -151.527 -316.914L-231.933 -263.915L-259.184 -270.828ZM-159.566 -294.931C-164.514 -280.045 -172.622 -255.758 -181.241 -231.332L-229.168 -249.052L-159.566 -294.931ZM-232.072 -247.163L-182.193 -228.728C-194.344 -194.486 -207.284 -160.659 -213.789 -153.032C-215.462 -151.05 -217.599 -149.022 -220.015 -146.971L-269.685 -178.079L-273.774 -199.256L-277.258 -217.414L-232.072 -247.163ZM-222.269 -145.082C-241.04 -130.288 -274.726 -115.08 -285.111 -111.923C-286.458 -111.508 -290.152 -109.642 -295.705 -106.646C-306.391 -106.554 -320.725 -105.332 -333.456 -104.111C-320.261 -113.835 -304.347 -139.321 -302.883 -141.694L-270.707 -175.429L-222.269 -145.082ZM-272.519 -178.056L-304.951 -164.761L-309.969 -172.941L-276.074 -196.583L-272.519 -178.056ZM-316.776 -260.527L-333.712 -262.993L-346.861 -308.365L-334.595 -312.42L-316.776 -260.527ZM-354.644 -370.512L-345.63 -354.797C-347.163 -352.93 -347.628 -350.441 -346.838 -348.183L-335.478 -315.047L-347.628 -311.038L-350.834 -322.145C-350.997 -322.675 -351.461 -323.089 -352.019 -323.135L-365.958 -324.725L-381.988 -347.446L-354.644 -370.512ZM-384.172 -345.649L-367.933 -322.629C-367.7 -322.306 -367.352 -322.099 -366.934 -322.052L-353.297 -320.509L-336.175 -261.38C-336.012 -260.85 -335.571 -260.458 -335.036 -260.389L-315.777 -257.578L-302.047 -217.598C-307.344 -214.027 -317.334 -207.505 -330.343 -199.947L-356.967 -204.279C-356.921 -204.487 -356.897 -204.694 -356.944 -204.925L-377.829 -300.807C-377.899 -301.175 -378.155 -301.498 -378.48 -301.705C-378.805 -301.913 -379.2 -301.959 -379.572 -301.867L-412.561 -292.903L-421.343 -314.356L-384.172 -345.649ZM-370.697 -254.928L-359.755 -204.74L-409.68 -212.851L-417.045 -244.582L-370.697 -254.928ZM-417.672 -247.278L-426.686 -286.151L-380.246 -298.779L-371.278 -257.647L-417.672 -247.278ZM-409.518 -210.017L-334.153 -197.758C-355.132 -185.822 -382.987 -171.927 -411.632 -163.101L-409.518 -210.017ZM-448.454 -353.161L-433.888 -349.52L-431.867 -309.77L-471.059 -305.554L-479.376 -341.731L-448.454 -353.161ZM-482.141 -341.293L-473.847 -305.231L-534.668 -298.71L-532.6 -345.787L-482.141 -341.293ZM-538.919 -391.32L-524.4 -388.301L-534.993 -348.782L-546.934 -349.842L-538.919 -391.32ZM-575.928 -333.989L-548.352 -347.192L-535.411 -346.04L-537.456 -298.94L-578.971 -309.678L-575.928 -333.989ZM-591.702 -270.989L-588.078 -309.148L-561.873 -302.374L-566.31 -266.012L-591.702 -270.989ZM-544.495 -211.054L-540.244 -258.431L-502.98 -260.32L-495.383 -211.791L-544.495 -211.054ZM-500.401 -261.979C-500.517 -262.694 -501.144 -263.177 -501.865 -263.154L-541.429 -261.15L-563.545 -265.482L-559.131 -301.682L-536.48 -295.829C-536.41 -295.806 -536.317 -295.806 -536.248 -295.806C-536.225 -295.806 -536.201 -295.783 -536.201 -295.783C-536.178 -295.783 -536.155 -295.783 -536.132 -295.783C-536.085 -295.783 -536.039 -295.783 -535.992 -295.783L-430.241 -307.144C-430.217 -307.144 -430.194 -307.167 -430.171 -307.167C-429.939 -307.213 -429.753 -307.282 -429.59 -307.42C-429.567 -307.443 -429.52 -307.443 -429.497 -307.466L-423.596 -312.443L-415.302 -292.143L-428.777 -288.479C-429.497 -288.271 -429.939 -287.557 -429.776 -286.82L-412.654 -212.99L-492.595 -211.814L-500.401 -261.979ZM-455.075 -154.506C-464.182 -153.907 -473.777 -154.092 -483.628 -154.806L-492.13 -209.049L-412.329 -210.248L-414.489 -162.203C-428.08 -158.193 -441.833 -155.382 -455.075 -154.506ZM-415.837 -147.363C-353.157 -164.346 -293.567 -206.399 -289.711 -209.141L-279.744 -215.709L-276.631 -199.556L-312.617 -174.439C-313.221 -174.024 -313.384 -173.194 -313.012 -172.572L-306.67 -162.272C-306.322 -161.696 -305.578 -161.442 -304.928 -161.719L-276.399 -173.425L-304.974 -143.469C-305.044 -143.4 -305.114 -143.33 -305.16 -143.238C-305.392 -142.87 -327.346 -107.337 -340.38 -103.42C-340.565 -103.397 -340.751 -103.374 -340.914 -103.374C-341.588 -103.305 -342.261 -103.236 -342.935 -103.189L-342.935 -128.836C-342.935 -129.482 -343.376 -130.035 -344.004 -130.196L-415.837 -147.363ZM-373.88 -134.482L-345.746 -127.753L-345.746 -102.936C-351.136 -102.429 -355.666 -102.014 -358.384 -101.876C-362.171 -101.715 -369.931 -102.959 -378.782 -104.756L-373.88 -134.482ZM-550.489 11.4958L-547.236 -3.45915C-547.167 -3.73567 -547.19 -4.01216 -547.306 -4.26564L-564.893 -47.3561L-563.731 -76.16L-462.626 -115.195L-423.248 -112.453C-419.717 -111.508 -370.511 -98.5579 -358.268 -99.0878C-354.714 -99.2491 -348.209 -99.8713 -340.682 -100.609C-328.949 -101.738 -313.384 -103.259 -301.025 -103.719C-346.49 -78.5334 -474.776 -2.07655 -538.966 36.3132L-550.489 11.4958ZM-533.042 49.0099C-428.01 -13.8055 -290.919 -94.9862 -280.999 -98.627C-268.616 -102.406 -220.131 -123.951 -203.079 -144.045C-191.51 -157.686 -167.674 -226.355 -145.905 -291.728C-143.141 -300 -140.748 -307.213 -140.097 -308.895C-138.61 -311.36 -129.759 -324.772 -117.493 -343.229L-11.4157 -333.804L28.4735 -247.531C28.822 -246.771 29.3098 -246.103 29.8906 -245.503L116.058 -160.037L150.952 -68.1871L124.654 -54.6839C122.841 -53.7621 121.541 -52.08 121.053 -50.1213L106.509 10.4358C106.068 12.2562 106.393 14.1688 107.392 15.7357L132.39 55.2315L127.209 158.925L47.0358 219.229C27.9624 225.335 -220.48 305.018 -355.713 362.787C-362.148 346.634 -369.187 329.098 -376.552 310.779C-385.914 287.506 -394.765 265.476 -396.299 261.006C-396.508 257.273 -399.087 254.946 -431.425 229.852C-444.644 219.575 -461.116 206.809 -463.927 203.629C-467.574 199.481 -476.449 176.691 -482.884 157.013C-482.977 156.759 -483.07 156.506 -483.186 156.252L-533.042 49.0099ZM-582.201 236.65L-554.926 222.801C-554.647 222.662 -554.415 222.409 -554.276 222.132L-537.154 183.697C-537.107 183.581 -537.061 183.466 -537.061 183.351L-533.762 161.506L-501.632 149.593L-496.01 161.644C-493.385 169.617 -481.63 204.505 -474.404 212.708C-472.337 215.058 -467.156 219.39 -459.188 225.727L-507.417 250.038C-508.067 250.36 -508.369 251.144 -508.067 251.812L-468.132 344.883L-526.792 367.442L-582.201 236.65ZM-525.747 370.023L-467.063 347.441L-454.773 376.106L-513.597 398.734L-525.747 370.023ZM-512.505 401.269L-452.474 378.18L-440.091 374.908L-432.169 396.638C-456.632 407.606 -479.91 418.091 -501.284 427.769L-512.505 401.269ZM-553.834 466.988C-537.711 459.614 -519.149 451.18 -498.798 441.963L-481.095 489.824C-499.216 497.727 -517.709 505.769 -535.713 513.558L-553.834 466.988ZM-591.4 540.68C-575.788 533.951 -557.18 525.909 -537.247 517.268L-502.12 607.435C-502.074 607.528 -502.004 607.574 -501.934 607.643L-561.594 628.819L-591.4 540.68ZM-560.711 631.446L-517.569 616.146C-517.546 616.238 -517.546 616.33 -517.523 616.422L-508.602 639.189L-552.022 657.093L-560.711 631.446Z" fill="#6775FF"/>
</g>
</svg>
