<svg width="1440" height="145" viewBox="0 0 1440 145" fill="none" xmlns="http://www.w3.org/2000/svg"><mask id="a" style="mask-type:alpha" maskUnits="userSpaceOnUse" x="0" y="0" width="1440" height="145"><path fill="#7481FF" d="M0 0h1440v145H0z"/></mask><g mask="url(#a)"><g filter="url(#b)"><path d="M1211.34 110c3.85-6.667 13.47-6.667 17.32 0l25.99 45c3.84 6.667-.97 15-8.67 15h-51.96c-7.7 0-12.51-8.333-8.67-15l25.99-45Z" fill="#7582FF"/></g><g filter="url(#c)"><path d="M1357.34 126c3.85-6.667 13.47-6.667 17.32 0l25.99 45c3.84 6.667-.97 15-8.67 15h-51.96c-7.7 0-12.51-8.333-8.67-15l25.99-45Z" fill="#7582FF"/></g><g filter="url(#d)"><path d="M836.661 166c-3.849 6.667-13.473 6.667-17.322 0l-25.984-45c-3.85-6.667.962-15 8.661-15h51.968c7.699 0 12.511 8.333 8.661 15l-25.984 45Z" fill="#7582FF"/></g><g filter="url(#e)"><path d="M592.661 87c-3.849 6.667-13.473 6.667-17.322 0l-25.984-45c-3.85-6.667.962-15 8.661-15h51.968c7.699 0 12.511 8.333 8.661 15l-25.984 45Z" fill="#7582FF"/></g><g filter="url(#f)"><path d="M1042.66 126c-3.85 6.667-13.47 6.667-17.32 0l-25.985-45c-3.85-6.667.965-15 8.665-15h51.96c7.7 0 12.51 8.333 8.67 15l-25.99 45Z" fill="#7582FF"/></g><g filter="url(#g)"><path d="M987.661 33c-3.849 6.667-13.473 6.667-17.322 0l-25.984-45c-3.85-6.667.962-15 8.661-15h51.964c7.7 0 12.51 8.333 8.67 15l-25.989 45Z" fill="#7582FF"/></g><g filter="url(#h)"><path d="M1178.66 141c-3.85 6.667-13.47 6.667-17.32 0l-25.99-45c-3.84-6.667.97-15 8.67-15h51.96c7.7 0 12.51 8.333 8.67 15l-25.99 45Z" fill="#7582FF"/></g><g filter="url(#i)"><path d="M1374.66 61c-3.85 6.667-13.47 6.667-17.32 0l-25.99-45c-3.84-6.667.97-15 8.67-15h51.96c7.7 0 12.51 8.333 8.67 15l-25.99 45Z" fill="#7582FF"/></g><g filter="url(#j)"><path d="M1025.34-5c3.85-6.667 13.47-6.667 17.32 0l25.99 45c3.84 6.667-.97 15-8.67 15h-51.96c-7.7 0-12.515-8.333-8.665-15l25.985-45Z" fill="#7582FF"/></g><g filter="url(#k)"><path d="M757.339 113c3.849-6.667 13.473-6.667 17.322 0l25.984 45c3.85 6.667-.962 15-8.661 15h-51.968c-7.699 0-12.511-8.333-8.661-15l25.984-45Z" fill="#7582FF"/></g><g filter="url(#l)"><path d="M870.339 134c3.849-6.667 13.473-6.667 17.322 0l25.984 45c3.85 6.667-.962 15-8.661 15h-51.968c-7.699 0-12.511-8.333-8.661-15l25.984-45Z" fill="#7582FF"/></g><g filter="url(#m)"><path d="M1309.34 31c3.85-6.667 13.47-6.667 17.32 0l25.99 45c3.84 6.667-.97 15-8.67 15h-51.96c-7.7 0-12.51-8.333-8.67-15l25.99-45Z" fill="#7582FF"/></g><g filter="url(#n)"><path d="M835.339 35c3.849-6.667 13.473-6.667 17.322 0l25.984 45c3.85 6.667-.962 15-8.661 15h-51.968c-7.699 0-12.511-8.333-8.661-15l25.984-45Z" fill="#7582FF"/></g><g filter="url(#o)"><path d="M706.661 41c-3.849 6.667-13.473 6.667-17.322 0L663.355-4c-3.85-6.667.962-15 8.661-15h51.968c7.699 0 12.511 8.333 8.661 15l-25.984 45Z" fill="#7582FF"/></g><g filter="url(#p)"><path d="M1094.66 28c-3.85 6.667-13.47 6.667-17.32 0l-25.99-45c-3.84-6.667.97-15 8.67-15h51.96c7.7 0 12.51 8.333 8.67 15l-25.99 45Z" fill="#7582FF"/></g><g filter="url(#q)"><path d="M1326.66 161c-3.85 6.667-13.47 6.667-17.32 0l-25.99-45c-3.84-6.667.97-15 8.67-15h51.96c7.7 0 12.51 8.333 8.67 15l-25.99 45Z" fill="#7582FF"/></g><g filter="url(#r)"><path d="M645.339 17c3.849-6.667 13.473-6.667 17.322 0l25.984 45c3.85 6.667-.962 15-8.661 15h-51.968c-7.699 0-12.511-8.333-8.661-15l25.984-45Z" fill="#7582FF"/></g></g><defs><filter id="b" x="1154" y="75" width="132" height="125" filterUnits="userSpaceOnUse" color-interpolation-filters="sRGB"><feFlood flood-opacity="0" result="BackgroundImageFix"/><feColorMatrix in="SourceAlpha" values="0 0 0 0 0 0 0 0 0 0 0 0 0 0 0 0 0 0 127 0" result="hardAlpha"/><feOffset/><feGaussianBlur stdDeviation="15"/><feColorMatrix values="0 0 0 0 0 0 0 0 0 0 0 0 0 0 0 0 0 0 0.08 0"/><feBlend in2="BackgroundImageFix" result="effect1_dropShadow_1153_3583"/><feBlend in="SourceGraphic" in2="effect1_dropShadow_1153_3583" result="shape"/></filter><filter id="c" x="1300" y="91" width="132" height="125" filterUnits="userSpaceOnUse" color-interpolation-filters="sRGB"><feFlood flood-opacity="0" result="BackgroundImageFix"/><feColorMatrix in="SourceAlpha" values="0 0 0 0 0 0 0 0 0 0 0 0 0 0 0 0 0 0 127 0" result="hardAlpha"/><feOffset/><feGaussianBlur stdDeviation="15"/><feColorMatrix values="0 0 0 0 0 0 0 0 0 0 0 0 0 0 0 0 0 0 0.08 0"/><feBlend in2="BackgroundImageFix" result="effect1_dropShadow_1153_3583"/><feBlend in="SourceGraphic" in2="effect1_dropShadow_1153_3583" result="shape"/></filter><filter id="d" x="762" y="76" width="132" height="125" filterUnits="userSpaceOnUse" color-interpolation-filters="sRGB"><feFlood flood-opacity="0" result="BackgroundImageFix"/><feColorMatrix in="SourceAlpha" values="0 0 0 0 0 0 0 0 0 0 0 0 0 0 0 0 0 0 127 0" result="hardAlpha"/><feOffset/><feGaussianBlur stdDeviation="15"/><feColorMatrix values="0 0 0 0 0 0 0 0 0 0 0 0 0 0 0 0 0 0 0.08 0"/><feBlend in2="BackgroundImageFix" result="effect1_dropShadow_1153_3583"/><feBlend in="SourceGraphic" in2="effect1_dropShadow_1153_3583" result="shape"/></filter><filter id="e" x="518" y="-3" width="132" height="125" filterUnits="userSpaceOnUse" color-interpolation-filters="sRGB"><feFlood flood-opacity="0" result="BackgroundImageFix"/><feColorMatrix in="SourceAlpha" values="0 0 0 0 0 0 0 0 0 0 0 0 0 0 0 0 0 0 127 0" result="hardAlpha"/><feOffset/><feGaussianBlur stdDeviation="15"/><feColorMatrix values="0 0 0 0 0 0 0 0 0 0 0 0 0 0 0 0 0 0 0.08 0"/><feBlend in2="BackgroundImageFix" result="effect1_dropShadow_1153_3583"/><feBlend in="SourceGraphic" in2="effect1_dropShadow_1153_3583" result="shape"/></filter><filter id="f" x="968" y="36" width="132" height="125" filterUnits="userSpaceOnUse" color-interpolation-filters="sRGB"><feFlood flood-opacity="0" result="BackgroundImageFix"/><feColorMatrix in="SourceAlpha" values="0 0 0 0 0 0 0 0 0 0 0 0 0 0 0 0 0 0 127 0" result="hardAlpha"/><feOffset/><feGaussianBlur stdDeviation="15"/><feColorMatrix values="0 0 0 0 0 0 0 0 0 0 0 0 0 0 0 0 0 0 0.08 0"/><feBlend in2="BackgroundImageFix" result="effect1_dropShadow_1153_3583"/><feBlend in="SourceGraphic" in2="effect1_dropShadow_1153_3583" result="shape"/></filter><filter id="g" x="913" y="-57" width="132" height="125" filterUnits="userSpaceOnUse" color-interpolation-filters="sRGB"><feFlood flood-opacity="0" result="BackgroundImageFix"/><feColorMatrix in="SourceAlpha" values="0 0 0 0 0 0 0 0 0 0 0 0 0 0 0 0 0 0 127 0" result="hardAlpha"/><feOffset/><feGaussianBlur stdDeviation="15"/><feColorMatrix values="0 0 0 0 0 0 0 0 0 0 0 0 0 0 0 0 0 0 0.08 0"/><feBlend in2="BackgroundImageFix" result="effect1_dropShadow_1153_3583"/><feBlend in="SourceGraphic" in2="effect1_dropShadow_1153_3583" result="shape"/></filter><filter id="h" x="1104" y="51" width="132" height="125" filterUnits="userSpaceOnUse" color-interpolation-filters="sRGB"><feFlood flood-opacity="0" result="BackgroundImageFix"/><feColorMatrix in="SourceAlpha" values="0 0 0 0 0 0 0 0 0 0 0 0 0 0 0 0 0 0 127 0" result="hardAlpha"/><feOffset/><feGaussianBlur stdDeviation="15"/><feColorMatrix values="0 0 0 0 0 0 0 0 0 0 0 0 0 0 0 0 0 0 0.08 0"/><feBlend in2="BackgroundImageFix" result="effect1_dropShadow_1153_3583"/><feBlend in="SourceGraphic" in2="effect1_dropShadow_1153_3583" result="shape"/></filter><filter id="i" x="1300" y="-29" width="132" height="125" filterUnits="userSpaceOnUse" color-interpolation-filters="sRGB"><feFlood flood-opacity="0" result="BackgroundImageFix"/><feColorMatrix in="SourceAlpha" values="0 0 0 0 0 0 0 0 0 0 0 0 0 0 0 0 0 0 127 0" result="hardAlpha"/><feOffset/><feGaussianBlur stdDeviation="15"/><feColorMatrix values="0 0 0 0 0 0 0 0 0 0 0 0 0 0 0 0 0 0 0.08 0"/><feBlend in2="BackgroundImageFix" result="effect1_dropShadow_1153_3583"/><feBlend in="SourceGraphic" in2="effect1_dropShadow_1153_3583" result="shape"/></filter><filter id="j" x="968" y="-40" width="132" height="125" filterUnits="userSpaceOnUse" color-interpolation-filters="sRGB"><feFlood flood-opacity="0" result="BackgroundImageFix"/><feColorMatrix in="SourceAlpha" values="0 0 0 0 0 0 0 0 0 0 0 0 0 0 0 0 0 0 127 0" result="hardAlpha"/><feOffset/><feGaussianBlur stdDeviation="15"/><feColorMatrix values="0 0 0 0 0 0 0 0 0 0 0 0 0 0 0 0 0 0 0.08 0"/><feBlend in2="BackgroundImageFix" result="effect1_dropShadow_1153_3583"/><feBlend in="SourceGraphic" in2="effect1_dropShadow_1153_3583" result="shape"/></filter><filter id="k" x="700" y="78" width="132" height="125" filterUnits="userSpaceOnUse" color-interpolation-filters="sRGB"><feFlood flood-opacity="0" result="BackgroundImageFix"/><feColorMatrix in="SourceAlpha" values="0 0 0 0 0 0 0 0 0 0 0 0 0 0 0 0 0 0 127 0" result="hardAlpha"/><feOffset/><feGaussianBlur stdDeviation="15"/><feColorMatrix values="0 0 0 0 0 0 0 0 0 0 0 0 0 0 0 0 0 0 0.08 0"/><feBlend in2="BackgroundImageFix" result="effect1_dropShadow_1153_3583"/><feBlend in="SourceGraphic" in2="effect1_dropShadow_1153_3583" result="shape"/></filter><filter id="l" x="813" y="99" width="132" height="125" filterUnits="userSpaceOnUse" color-interpolation-filters="sRGB"><feFlood flood-opacity="0" result="BackgroundImageFix"/><feColorMatrix in="SourceAlpha" values="0 0 0 0 0 0 0 0 0 0 0 0 0 0 0 0 0 0 127 0" result="hardAlpha"/><feOffset/><feGaussianBlur stdDeviation="15"/><feColorMatrix values="0 0 0 0 0 0 0 0 0 0 0 0 0 0 0 0 0 0 0.08 0"/><feBlend in2="BackgroundImageFix" result="effect1_dropShadow_1153_3583"/><feBlend in="SourceGraphic" in2="effect1_dropShadow_1153_3583" result="shape"/></filter><filter id="m" x="1252" y="-4" width="132" height="125" filterUnits="userSpaceOnUse" color-interpolation-filters="sRGB"><feFlood flood-opacity="0" result="BackgroundImageFix"/><feColorMatrix in="SourceAlpha" values="0 0 0 0 0 0 0 0 0 0 0 0 0 0 0 0 0 0 127 0" result="hardAlpha"/><feOffset/><feGaussianBlur stdDeviation="15"/><feColorMatrix values="0 0 0 0 0 0 0 0 0 0 0 0 0 0 0 0 0 0 0.08 0"/><feBlend in2="BackgroundImageFix" result="effect1_dropShadow_1153_3583"/><feBlend in="SourceGraphic" in2="effect1_dropShadow_1153_3583" result="shape"/></filter><filter id="n" x="778" y="0" width="132" height="125" filterUnits="userSpaceOnUse" color-interpolation-filters="sRGB"><feFlood flood-opacity="0" result="BackgroundImageFix"/><feColorMatrix in="SourceAlpha" values="0 0 0 0 0 0 0 0 0 0 0 0 0 0 0 0 0 0 127 0" result="hardAlpha"/><feOffset/><feGaussianBlur stdDeviation="15"/><feColorMatrix values="0 0 0 0 0 0 0 0 0 0 0 0 0 0 0 0 0 0 0.08 0"/><feBlend in2="BackgroundImageFix" result="effect1_dropShadow_1153_3583"/><feBlend in="SourceGraphic" in2="effect1_dropShadow_1153_3583" result="shape"/></filter><filter id="o" x="632" y="-49" width="132" height="125" filterUnits="userSpaceOnUse" color-interpolation-filters="sRGB"><feFlood flood-opacity="0" result="BackgroundImageFix"/><feColorMatrix in="SourceAlpha" values="0 0 0 0 0 0 0 0 0 0 0 0 0 0 0 0 0 0 127 0" result="hardAlpha"/><feOffset/><feGaussianBlur stdDeviation="15"/><feColorMatrix values="0 0 0 0 0 0 0 0 0 0 0 0 0 0 0 0 0 0 0.08 0"/><feBlend in2="BackgroundImageFix" result="effect1_dropShadow_1153_3583"/><feBlend in="SourceGraphic" in2="effect1_dropShadow_1153_3583" result="shape"/></filter><filter id="p" x="1020" y="-62" width="132" height="125" filterUnits="userSpaceOnUse" color-interpolation-filters="sRGB"><feFlood flood-opacity="0" result="BackgroundImageFix"/><feColorMatrix in="SourceAlpha" values="0 0 0 0 0 0 0 0 0 0 0 0 0 0 0 0 0 0 127 0" result="hardAlpha"/><feOffset/><feGaussianBlur stdDeviation="15"/><feColorMatrix values="0 0 0 0 0 0 0 0 0 0 0 0 0 0 0 0 0 0 0.08 0"/><feBlend in2="BackgroundImageFix" result="effect1_dropShadow_1153_3583"/><feBlend in="SourceGraphic" in2="effect1_dropShadow_1153_3583" result="shape"/></filter><filter id="q" x="1252" y="71" width="132" height="125" filterUnits="userSpaceOnUse" color-interpolation-filters="sRGB"><feFlood flood-opacity="0" result="BackgroundImageFix"/><feColorMatrix in="SourceAlpha" values="0 0 0 0 0 0 0 0 0 0 0 0 0 0 0 0 0 0 127 0" result="hardAlpha"/><feOffset/><feGaussianBlur stdDeviation="15"/><feColorMatrix values="0 0 0 0 0 0 0 0 0 0 0 0 0 0 0 0 0 0 0.08 0"/><feBlend in2="BackgroundImageFix" result="effect1_dropShadow_1153_3583"/><feBlend in="SourceGraphic" in2="effect1_dropShadow_1153_3583" result="shape"/></filter><filter id="r" x="588" y="-18" width="132" height="125" filterUnits="userSpaceOnUse" color-interpolation-filters="sRGB"><feFlood flood-opacity="0" result="BackgroundImageFix"/><feColorMatrix in="SourceAlpha" values="0 0 0 0 0 0 0 0 0 0 0 0 0 0 0 0 0 0 127 0" result="hardAlpha"/><feOffset/><feGaussianBlur stdDeviation="15"/><feColorMatrix values="0 0 0 0 0 0 0 0 0 0 0 0 0 0 0 0 0 0 0.08 0"/><feBlend in2="BackgroundImageFix" result="effect1_dropShadow_1153_3583"/><feBlend in="SourceGraphic" in2="effect1_dropShadow_1153_3583" result="shape"/></filter></defs></svg>