<svg width="30" height="30" viewBox="0 0 30 30" fill="none" xmlns="http://www.w3.org/2000/svg"><rect width="30" height="30" rx="2" fill="#fff"/><path d="M14.857 10.695a4.137 4.137 0 0 0-4.128 4.13 4.115 4.115 0 0 0 4.129 4.128c2.29 0 4.129-1.87 4.129-4.129 0-2.258-1.871-4.129-4.13-4.129Zm0 6.774a2.657 2.657 0 0 1-2.645-2.645 2.657 2.657 0 0 1 2.646-2.645 2.657 2.657 0 0 1 2.645 2.645 2.657 2.657 0 0 1-2.646 2.646Zm4.293-5.935a.936.936 0 1 0 0-1.87.936.936 0 0 0 0 1.87Z" fill="#7481FF"/><path d="M21.567 8.18c-.839-.871-2.032-1.323-3.387-1.323h-6.645c-2.807 0-4.678 1.87-4.678 4.677v6.613c0 1.387.452 2.58 1.355 3.452.871.839 2.033 1.258 3.355 1.258h6.58c1.388 0 2.55-.452 3.388-1.258.87-.839 1.322-2.032 1.322-3.42v-6.645c0-1.354-.451-2.516-1.29-3.354Zm-.129 10c0 1-.355 1.806-.935 2.354-.581.549-1.387.84-2.355.84h-6.58c-.969 0-1.775-.291-2.356-.84-.58-.58-.87-1.387-.87-2.387v-6.613c0-.967.29-1.774.87-2.354.549-.549 1.387-.84 2.355-.84h6.645c.968 0 1.774.291 2.355.872.549.58.871 1.387.871 2.322v6.646Z" fill="#7481FF"/></svg>