<svg width="360" height="505" viewBox="0 0 360 505" fill="none" xmlns="http://www.w3.org/2000/svg"><mask id="a" style="mask-type:alpha" maskUnits="userSpaceOnUse" x="0" y="0" width="360" height="505"><path fill="#7481FF" d="M0 0h360v505H0z"/></mask><g mask="url(#a)"><path d="m-503.946 502.889-6.121 2.095h5.829l.907-.312.114.312h2.056l-.324-.938 102.71-35.239c2.445 11.042 5.23 23.07 8.323 36.177h10.023c-13.1-55.775-20.257-90.529-21.212-113.146 16.759-4.88 29.438-5.24 32.466-5.24l8.015 27.153a.94.94 0 0 0 .567.61.986.986 0 0 0 .372.078.98.98 0 0 0 .47-.11l23.252-12.278c.437-.234.615-.735.437-1.173l-10.266-24.947 13.375-6.522 14.59-6.82 14.314 11.496-58.795 130.899h2.121l25.762-57.355 34.993 13.451 2.25 19.176-32.871 4.927a.947.947 0 0 0-.825.876l-1.312 18.925h1.959l1.247-18.049 12.549-1.877 1.118 19.926h14.994l-1.781-22.069 6.137-.923 23.398-2.956 5.214 25.948h1.992l-5.263-26.198 13.181-1.674 2.979 12.81-9.731 15.047h2.299l8.031-12.435 2.899 12.435h3.999l-3.675-15.813 36.967-14.593 9.279 24.259a.977.977 0 0 0 1.133.594l11.027-2.518 2.445 8.071h2.041l-2.85-9.463c-.146-.485-.664-.766-1.166-.657l-11.092 2.534-9.003-23.54 77.222-30.484 53.274-7.852 7.594 16.189c.065.125.146.234.243.328l20.775 17.487 26.831 29.608 5.311 5.85h2.591l-5.878-6.476 12.031-13.451 11.497 17.08a.983.983 0 0 0 .826.422.966.966 0 0 0 .534-.156.918.918 0 0 0 .292-1.298l-12.193-18.112-9.522-14.969 19.496-17.455 9.959 10.902-.26 19.566c0 .517.422.955.972.955h.016c.535 0 .972-.407.972-.939l.259-19.942a.961.961 0 0 0-.243-.641L-.034 449.24l9.651-8.649 25.309 13.247a.98.98 0 0 0 .47.11.982.982 0 0 0 .745-.344l5.829-6.757 2.963 7.085c.113.266.356.47.648.563l13.812 3.707 4.615 13.53a.92.92 0 0 0 .227.359l32.87 32.846h5.134l41.954-38.617h.017s0-.016.016-.016l23.43-21.569 44.805 23.743 7.757 18.285-14.266 18.221h2.445l24.402-31.094.016.016a.999.999 0 0 0 .616.203c.291 0 .566-.125.761-.344a.922.922 0 0 0-.146-1.329l-.065-.047L247 455.794l15.577 11.809c-4.258 5.192-8.533 10.385-12.808 15.594l-.016.015c-.016.016-.033.031-.033.047-2.623 3.206-5.246 6.397-7.869 9.604-3.725 4.536-7.076 8.634-9.959 12.137h17.602c3.011-7.773 5.683-13.201 7.918-15.938.324-.391.648-.798.988-1.204l16.791 11.433c.178.11.373.172.567.172a.978.978 0 0 0 .777-.375l6.251-8.008a.91.91 0 0 0-.195-1.314.984.984 0 0 0-1.36.187l-5.684 7.289-15.933-10.839a15015 15015 0 0 1 36.854-44.765l35.834 17.393-26.232 45.953h2.235l5.489-9.603 18.201 9.603h4.064l-21.326-11.261 21.796-38.195 13.715-23.587a1.13 1.13 0 0 0 .113-.297l4.178-23.634v-.031l84.622 6.335-12.97 11.621c-.34.313-.421.813-.162 1.189l11.756 17.971-38.02 59.889h2.299l37.065-58.434 65.45 57.996-.275.438h5.667l-2.445-.954 30.912-32.173 43.59 19.379a4695.46 4695.46 0 0 0-5.23 13.748h10.428a4571.312 4571.312 0 0 1 5.781-15.218 2248.2 2248.2 0 0 0 9.65 15.218h11.497a1709.75 1709.75 0 0 1-9.165-14.311l26.766 10.213 10.024 4.098h5.003l-13.391-5.474 19.237-45.359 8.144 3.191v-2.033l-7.4-2.91 7.4-17.455v-4.974l-1.506 3.535-17.261-7.82 5.052-10.276 13.715 4.989v-2.018l-12.889-4.692 4.226-8.602a.936.936 0 0 0-.129-1.001l8.792 3.503v-2.033l-26.976-10.73c1.344-2.878 2.736-5.85 4.129-8.853l22.847 9.244v-2.049l-22.054-8.915a4253.51 4253.51 0 0 0 8.744-19.004l13.327 5.224V360.29l-9.36-3.676c3.53-7.742 6.72-14.796 9.198-20.286l.162.078v-26.511c-9.829 17.643-23.431 34.691-55.233 43.826-1.587.234-3.19.5-4.809.813-14.266 2.753-50.942 2.315-81.87.907l10.282-32.924 25.892-34.066 32.758 22.695a.962.962 0 0 0 .567.172c.307 0 .599-.141.793-.391a.926.926 0 0 0-.227-1.314l-32.757-22.664 17.552-23.101 87.052 34.785V296.6l-86.841-34.708-24.257-22.21 41.162-48.846 69.919 33.628v-10.542l-64.673-31.11 64.69-123.157V42.637l-18.33 3.864 5.554-19.082a135.601 135.601 0 0 0 12.792 5.38V22.68c-6.17-2.44-10.914-4.91-12.647-5.85-6.914-8.164-66.373-78.36-76.882-87.87-10.331-9.37-48.189-25.745-57.273-29.593-25.552-45.312-63.442-113.319-65.628-119.481-.761-3.613-3.838-30.86-6.655-56.933h-9.813c.567 5.302 1.198 11.073 1.846 16.892l-6.202-16.908h-10.363l3.287 8.962-45.453-3.362.859-5.6h-1.976l-.842 5.459-40.174-2.972-.275-2.487h-3.935l.308 2.675-20.257 3.206-1.522-5.881h-2.008l1.619 6.178-31.008 4.896-1.231-11.074h-1.959l1.246 11.387-40.222 6.35-3.012-17.737h-1.975l3.06 18.05-39.429 6.225c-.178-8.415-.324-16.361-.437-23.274l6.121-1.001H169.94l-28.143 1.079.065-1.079h-1.96l-1.344 24.713h-12.792a.996.996 0 0 0-.583.187c-.145.11-11.594 8.228-20.516 14.421l-2.105-13.091 14.8-6.225a.974.974 0 0 0 .583-.751l2.348-17.565c.065-.5-.275-.954-.793-1.048l-3.595-.641h-10.638l12.986 2.346-2.154 16.142-14.978 6.303a.95.95 0 0 0-.583 1.017l2.364 14.749a642.966 642.966 0 0 1-5.716 3.91c-7.254 4.849-36.239 14.015-38.748 14.797l-20.273-1.126L1.748-258.17l-4.826-14.733 6.477-4.161H-.13l-3.562 2.284-.761-2.284H-6.51l6.445 19.645c.049.125.113.25.21.344l35.85 38.665-76.088 27.074c-1.781-.391-12.938-3.034-15.108-9.556-.826-2.456-6.671-15.141-14.314-31.611.016 0 .049 0 .065-.015l37.226-17.612 9.83 22.351c.113.25.323.438.582.516a1.005 1.005 0 0 0 .793-.078l22.525-12.106a.977.977 0 0 0 .47-.595.906.906 0 0 0-.114-.735l-18.654-28.983c-.227-.359-.68-.516-1.101-.406l-18.767 5.114-5.279-12.012h-2.121l11.075 25.198-37.307 17.658c-.324-.704-.648-1.392-.972-2.096-5.716-12.309-12.468-26.855-18.8-40.76h-2.137c6.315 13.858 13.116 28.545 19.156 41.527 8.469 18.253 15.156 32.674 16.015 35.223 2.25 6.773 12.047 9.729 15.577 10.589-2.38 4.286-11.335 20.177-15.335 24.04-3.222 3.113-16.16 10.668-23.835 15.031l-30.361-29.326-46.117-97.084h-10.751l19.593 41.261-71.782-6.21a43324.32 43324.32 0 0 1 23.997-35.051h-11.723a13028.56 13028.56 0 0 0-21.374 31.235l6.04-31.235h-1.992l-4.275 22.132-38.425-9.572 2.656-12.56h-1.992l-7.254 34.301-42.813-10.886 1.781-23.415h-1.959l-1.83 24.056v.031l-2.818 62.58a.952.952 0 0 0 .729.954l18.071 4.457-38.296 24.572-29.535-83.788c3.66-4.677 12.031-16.611 17.051-32.878H-364.3c-4.745 13.686-11.87 23.712-14.719 27.372l-6.461-10.964a1.004 1.004 0 0 0-.68-.469 1.061 1.061 0 0 0-.81.203l-13.359 10.964-35.769-27.09h-3.158l37.437 28.373-36.66 30.077-1.392-26.668a.943.943 0 0 0-.729-.86l-11.156-2.721a1.054 1.054 0 0 0-.583.031l-22.427 8.086-35.527-3.081 7.368-26.762h13.796a.98.98 0 0 0 .939-.703l1.571-5.772h-2.024l-1.247 4.598h-13.699l-11.043-2.236.469-2.362h-1.991l-.389 1.971-9.732-1.971h-9.521l18.897 3.816-5.716 28.733-19.221 8.962-11.82-2.236v1.923l10.865 2.065-2.04 15.891-8.825-2.221v1.955l2.477.626-2.477 25.401v20.13l1.684-17.268 34.101 6.491-2.979 32.283-32.806-1.063v1.892l33.664 1.095h.032l35.608-.532 5.894 36.631c-26.685-2.205-55.476-9.994-75.198-16.266v9.963a480.839 480.839 0 0 0 15.01 4.411c28.726 7.945 53.5 11.949 73.855 11.949 3.06 0 6.023-.093 8.873-.265 7.465-.47 15.092-1.752 22.686-3.567l31.365 7.305-3.417 20.24c-13.019-2.66-28.434-6.633-28.661-6.68a.844.844 0 0 0-.178-.03l-27.77-1.893c-.146 0-.291.015-.421.062l-70.648 26.558-20.694-21.662v2.784l19.415 20.333-.826 19.99c0 .14.016.265.065.39l12.225 29.17-1.652 7.415-29.227-61.11V-40.9l30.215 63.205c-3.74 2.174-6.979 4.067-9.634 5.615l-20.581-13.81v11.48l14.33 9.619-7.335 16.36c-1.749-3.957-4.064-8.023-6.995-12.074V60.61a50.344 50.344 0 0 1 1.344 5.146c.032.281.081.563.178.844 2.17 11.434-.097 20.803-1.522 25.135v15.61l7.205-8.07c.324-.36.583-.751.778-1.19.405-.907 6.396-14.53 3.319-32.376l12.97-28.92c3.288-1.924 6.656-3.88 10.072-5.881l29.471 61.656-22.799 8.228a.976.976 0 0 0-.632.75l-2.364 15.25-11.74 25.667-19.512 9.635a.93.93 0 0 0-.453 1.204l48.529 111.63 8.258 18.972c-4.275 1.877-8.42 3.723-12.452 5.506l-50.65-114.289v4.787l48.885 110.315c-2.445 1.08-4.825 2.143-7.173 3.175l-41.712-95.065v4.833l39.947 91.014c-5.344 2.378-10.428 4.63-15.205 6.757l-14.67-36.662c-.195-.485-.762-.72-1.263-.548-.502.188-.762.736-.567 1.221l14.719 36.771a6159.25 6159.25 0 0 0-22.961 10.245v10.401c7.027-3.143 15.966-7.147 26.475-11.824l12.63 31.563c-13.246 5.584-26.038 10.98-37.648 15.86l-1.457-4.176v6.835c.097-.047.178-.078.275-.109l27.43 78.987-27.705 11.12v2.049l28.321-11.371 21.39 61.595Zm190.052 2.064-1.134-20.192 10.445-1.564 1.7 21.193-11.011.563ZM-35.9-263.3l17.828-4.864 17.715 27.575-20.678 11.121L-35.9-263.3Zm-363.296 730.246L-502.1 502.263l-21.423-61.688 31.284-12.56c.486-.203.729-.735.534-1.22l-6.557-16.313c-.017-.047-.049-.078-.081-.125l83.618-28.905 3.449-1.189c-1.312 18.973 3.109 46.079 12.08 86.683Zm610.022-648.021a.92.92 0 0 0-.421-.861 1.01 1.01 0 0 0-.988-.062l-14.654 7.007c-.632-11.058-1.182-26.605-1.636-42.997l45.744 1.11.405 2.394c-.097 1.016-.745 7.914-.858 17.783 0 .063-.016.11 0 .172a240.14 240.14 0 0 0 .437 17.159c0 .015-.016.046-.016.062 0 .047.016.078.032.125.567 9.025 1.765 18.832 4.016 28.263 2.429 10.136 8.647 31.72 15.82 55.776l-56.042 9.557a3312.02 3312.02 0 0 1-.34-4.63l8.501-90.858Zm-9.36 79.112c-1.943-25.636-4.064-50.912-5.424-58.482-.405-2.283-.793-6.679-1.15-12.528l13.845-6.616-7.271 77.626Zm136.649-91.688 2.98 26.402-21.148-6.319v-22.053l18.168 1.97Zm-18.168-3.894v-26.793l15.027 2.925 2.915 25.838-17.942-1.97Zm-24.062 82.678-5.1-14.374 54.261-3.128.858 7.617-50.019 9.885Zm50.23-8.024.939 8.243-44.789 17.721-5.732-16.157 49.582-9.807Zm-55.994-8.211-2.429-6.836c-.178-.5-.729-.75-1.247-.578a.928.928 0 0 0-.599 1.204l14.913 41.98a.93.93 0 0 0 .518.548.9.9 0 0 0 .405.078 1.4 1.4 0 0 0 .373-.063l45.226-17.893.016.219c-5.263 18.55-12.566 38.587-17.634 46.782l-55.832 13.92c-11.594-38.054-25.179-83.444-29.049-99.616-2.154-8.994-3.32-18.347-3.903-27.012h26.815c.534 0 .972-.423.972-.939v-7.601l18.038 5.396-8.938 26.042a.94.94 0 0 0 .615 1.189c.097.031.211.047.308.047.405 0 .793-.251.923-.642l8.938-26.073 9.748 2.909v24.994c0 .516.437.939.972.939h43.509l2.024 17.877-54.682 3.129Zm97.689 92.985-5.133-11.496a.978.978 0 0 0-1.246-.5l-9.392 3.534a.92.92 0 0 0-.615.798l-1.361 16.564-27.074 7.1c-.502.126-.809.61-.696 1.096l3.644 17.236a.96.96 0 0 0 .955.75c.065 0 .129 0 .194-.015l45.323-8.915c.259 7.32.47 13.31.583 16.564-22.151-.376-48.221-1.205-52.512-3.457-5.813-3.066-38.004-28.764-58.326-45.25L390.207-71.04c.259 6.788.729 19.316 1.231 32.408l-3.628.516Zm3.676 1.392c.292 7.899.599 15.876.842 22.852l-44.691 8.79-3.255-15.438 26.847-7.023a.943.943 0 0 0 .713-.829l1.36-16.642 7.934-2.987 5.052 11.324a.998.998 0 0 0 1.037.563l4.161-.61Zm77.109 346.932v.188c.243 10.714-.469 20.13-.809 23.149a930.87 930.87 0 0 1-14.153-4.098c.016-.078.033-.141.016-.219l-3.287-26.293c-.064-.516-.55-.891-1.085-.829-.534.063-.923.532-.858 1.048l3.206 25.683c-12.646-3.801-30.231-9.369-45.663-15.25 7.271-7.727 12.598-12.857 15.173-14.343 7.465-4.332 24.904-10.604 43.606-16.704 2.64 7.851 3.627 18.237 3.854 27.668Zm-2.008-28.263c18.525-6.006 38.004-11.777 50.132-15.297l-46.262 41.558c-.324-9.071-1.376-18.784-3.87-26.261Zm-269.331 45.062c-.145-.469-.663-.751-1.149-.641l-15.497 3.55a.942.942 0 0 0-.744 1.064l2.072 12.356-13.213 4.035-8.015-24.4 47.962-11.511 3.465 21.459-11.448 4.599-3.433-10.511Zm1.604 11.183-15.027 4.583-1.879-11.215 13.732-3.143 3.174 9.775Zm-19.14 42.637-4.809-14.64 42.278-10.964 4.227 15.188-41.696 10.416Zm42.198-8.602 5.586 20.067-43.558 9.275-3.756-18.91 41.728-10.432Zm-43.801 9.916 3.951 19.958-35.122 13.217-24.483-27.372 40.724-51.177 3.967 12.075v.031l5.554 16.892v.016c0 .015.017.015.017.015l5.392 16.345Zm-32.839 34.176-26.717 21.85-19.707-20.583 22.395-28.138 24.029 26.871Zm17.197-81.74-64.965 81.63-38.538-40.244 83.1-77.251 12.663 13.233-26.734 29.905a.92.92 0 0 0 .097 1.33.999.999 0 0 0 1.376-.094l26.168-29.28 6.833 20.771ZM56.3 375.837l-7.626 7.085-20.565-23.133 30.393-29.076 21.261 23.289-22.167 20.615a1.023 1.023 0 0 0-1.085.156.939.939 0 0 0-.21 1.064Zm-153.732-10.026c-.486-.219-1.069-.031-1.311.438l-8.712 17.174-10.185 1.235-8.242-12.559 11.788-13.936h18.022c.535 0 .972-.423.972-.939s-.437-.938-.972-.938h-17.504v-13.467l15.577 2.158c.049 0 .097.016.146.016.26 0 .502-.094.696-.282.21-.203.324-.5.276-.797l-2.98-21.131a.93.93 0 0 0-.615-.751l-12.922-4.88 9.036-36.85 8.047 2.049a.985.985 0 0 0 1.166-.579l11.351-29.514 1.895 2.158c.016.016.048.031.065.047.016.016.016.047.032.063L2.039 322.97l-21.828 19.974-51.8-43.185a1 1 0 0 0-1.376.094l-8.938 9.791a.92.92 0 0 0 .08 1.33.998.998 0 0 0 1.377-.078l8.307-9.088 22.443 18.723-10.704 9.932a.917.917 0 0 0-.032 1.329l25.018 25.463-12.145 11.106-24.013 21.975-10.736-12.075a1.016 1.016 0 0 0-1.376-.109.935.935 0 0 0-.114 1.329l10.8 12.153-12.953 11.841-19.707-19.286 8.647-17.033c.275-.563.065-1.126-.42-1.345Zm-196.318-42.34 6.007 25.792-7.675 2.815-9.327-25.573 10.995-3.034Zm-12.55 1.502-36.222 9.713-8.437-28.201a.972.972 0 0 0-.761-.673l-11.82-2.017a50.173 50.173 0 0 0-.761-4.943 25.81 25.81 0 0 0-.535-2.064l60.528-18.598 10.12 43.435-12.112 3.348Zm5.344-49.614a1.853 1.853 0 0 0-.939-1.22c-.162-.093-.34-.125-.502-.156l-3.838-12.419 49.727-16.188 15.723 45.781-11.27 4.364c-.453.172-.712.656-.583 1.11l12.809 46.579-44.174 4.88-16.953-72.731Zm69.547-30.656 14.104-5.349 18.168 35.63-17.715 6.866-14.557-37.147Zm12.743 37.851-20.321 7.868-13.019-37.93 18.783-7.116 14.557 37.178Zm-33.955-31.845-2.348-6.851-3.498-10.166 32.741-10.855 7.562 14.828-34.457 13.044Zm2.072 46.235 52.286-20.255 21.342 41.855 1.684 11.731-28.936 4.911c-.065.016-.146.031-.211.063l-13.585 5.521-19.917 2.205-12.663-46.031Zm54.1-20.959 46.246-17.925.081 1.236-14.752 69.227-8.436 1.439-1.7-11.825a.846.846 0 0 0-.098-.281l-21.341-41.871Zm32.401 54.321 10.136 1.611 4.049 6.335-13.748 7.038h-.016l-24.548 13.201-14.233-21.678 38.36-6.507Zm-23.852 30.203 24.451-13.139 12.889 18.91-33.437 15.829-10.963-14.781 7.06-6.819Zm26.167-14.046 12.906-6.6 16.921 26.417-16.694-.531-13.133-19.286Zm14.639-7.492 7.367-3.769a.973.973 0 0 0 .518-.751l1.733-19.379 13.78-5.74a.93.93 0 0 0 .518-1.236c-.211-.485-.794-.704-1.279-.501l-14.315 5.96a.958.958 0 0 0-.582.782l-1.749 19.426-7.012 3.582-4.355-6.804a.968.968 0 0 0-.664-.438l-9.732-1.549 14.703-69.008c.016-.078.016-.156.016-.25l-.13-2.221a.892.892 0 0 0 .065-.813c-.032-.078-.081-.125-.129-.188l-.988-16.22a1.187 1.187 0 0 0-.113-.406l-12.112-21.256 52.901-6.632 5.732 18.816c.032.125.097.25.194.344l17.52 19.817-11.415 29.702-8.161-2.08a.958.958 0 0 0-.745.11.949.949 0 0 0-.454.594l-9.456 38.586c-.016.078-.032.141-.032.219v39.181l-11.432 13.529-20.192-31.407Zm176.077-226.45a.979.979 0 0 0 .842.469c.162 0 .324-.046.486-.125l.405-.234c1.49 1.939 2.98 3.879 4.388 5.74a.938.938 0 0 0-.599.188L11.27 135.936l-11.92-16.58c8.954-10.448 16.565-19.55 19.026-22.491 3.385 4.27 7.303 9.259 11.14 14.249l-.21.109a.978.978 0 0 0-.324 1.298Zm6.736 7.539c.162-.125.26-.297.324-.469 6.024 7.961 10.85 14.64 11.53 16.376-1.685 1.721-12.015 9.901-22.994 18.472L12.402 137.5l23.317-17.44Zm-12.662 35.568a2776.503 2776.503 0 0 1-14.185 10.98.938.938 0 0 0-.162 1.329.98.98 0 0 0 .761.36c.21 0 .421-.063.616-.203 8.986-6.914 38.392-29.64 39.364-31.392.291-.516.939-1.767-17.002-25.01L55.28 99.039l2.332 6.147c.178.485.745.735 1.247.563.502-.188.76-.72.583-1.205l-2.737-7.194a.932.932 0 0 0-.583-.564 1.083 1.083 0 0 0-.826.063l-13.002 7.195-3.368-6.069 17.39-11.042a.919.919 0 0 0 .276-1.314.992.992 0 0 0-1.36-.266L37.096 96.865a.922.922 0 0 0-.324 1.235l3.821 6.882-9.359 5.177c-3.32-4.285-7.238-9.275-11.853-15.093l2.785-36.021 43.72-32.033L90.79 74.936l11.578 49.504-9.634 1.658a.98.98 0 0 0-.454.203L8.662 194.167l-69.806 26.23-5.83-22.758a.954.954 0 0 0-.81-.703l-37.728-5.131 3.028-36.521c14.832 3.097 36.045 6.913 50.634 6.913 6.85 0 12.226-.845 14.816-2.987 6.17-5.131 21.828-22.914 35.073-38.336l25.018 34.754ZM2.509 61.641l-24.176-18.644c13.893-9.04 36.676-23.9 55.33-36.224l18.039 18.816L2.509 61.64ZM322.91 256.84l.34 23.775c-.033-.032-.065-.047-.097-.078-48.513-39.979-77.789-63.925-90.76-74.498l16.614-21.163 45.452 22.789c.146.078.292.11.454.11a.99.99 0 0 0 .874-.516.92.92 0 0 0-.421-1.267l-69.077-34.629-9.651-42.841 18.022-19.348 69.369 21.71-9.1 28.591a.923.923 0 0 0 .648 1.174.981.981 0 0 0 1.23-.626l9.182-28.811h22.523l-6.849 37.617 1.247 88.011ZM4.144 322.157l-12.582-10.276 57.695-50.473a.911.911 0 0 0 .323-.704v-23.712l37.81-22.194a.94.94 0 0 0 .291-.266l12.517-16.986 17.958-3.958 18.152 5.037 1.894 7.633v.015l9.165 36.803-73.87 70.651v.015l-47.331 45.265-22.589 18.488-6.72-20.584c-.048-.172-.162-.312-.291-.438l-14.833-12.356L4.21 323.549a.978.978 0 0 0 .307-.704 1.05 1.05 0 0 0-.372-.688ZM120.568 82.569l7.417 19.723-27.625 4.692-4.42-18.878 24.628-5.537Zm-25.066 3.707-2.574-11.027 22.362-6.71 4.598 12.231-24.386 5.506Zm33.147 17.815 10.994 29.248-30.765 6.007a.942.942 0 0 0-.762.813l-7.335-31.329 27.868-4.739Zm8.663 76.562-23.528-20.286 33.243-7.398 7.805 20.755-17.52 6.929Zm18.216-5.161 9.554 22.742-25.228 6.616-1.765-7.085v-15.391l17.439-6.882Zm-43.072-16.767-4.194-17.941a.974.974 0 0 0 .81.423c.065 0 .129 0 .194-.016l31.057-6.069 6.04 16.048-33.907 7.555Zm-2.817-3.426-20.581 9.729-3.692-4.333c-.34-.406-.956-.453-1.376-.125a.922.922 0 0 0-.13 1.33l4.194 4.895c.194.219.47.345.745.345.145 0 .291-.032.437-.094l20.856-9.87.599 2.565-7.821 15.141-45.015 23.383-9.748-16.157 6.59-3.566a.972.972 0 0 0 .47-.595.973.973 0 0 0-.114-.735l-7.448-11.527a1.103 1.103 0 0 0-.356-.313l46.165-37.476 9.456-1.626 6.769 29.029Zm-56.804 22.085-6.558 3.551a.999.999 0 0 0-.47.579.93.93 0 0 0 .098.719l10.217 16.924L35.98 209.62a.908.908 0 0 0-.017-.907l-13.715-22.257c-.113-.188-.307-.313-.502-.391l24.111-19.567c.016.063.032.141.081.204l6.898 10.682Zm-18.557 32.283c.162.266.438.407.745.438L-67.75 263.472l-12.355-10.088 4.34-25.432 85.334-32.064a.965.965 0 0 0 .276-.157l10.606-8.602a.823.823 0 0 0 .113.313l13.715 22.225Zm69.79-33.268a.91.91 0 0 0 .405-.407l7.546-14.593 24.111 20.787v14.452l-17.699-4.911a1.026 1.026 0 0 0-.486-.016l-18.556 4.098a1.018 1.018 0 0 0-.583.376l-12.614 17.127-38.101 22.366a.932.932 0 0 0-.47.814v23.821l-57.565 50.364-56.204-45.875 170.216-88.403ZM88.75 301.793l9.78 11.027-13.261 11.746-9.764-10.104 13.245-12.669Zm-14.638 13.998 10.38 10.746a.975.975 0 0 0 .712.297c.243 0 .47-.078.664-.25l13.925-12.326 10.283 11.575-28.904 26.871-21.277-23.305 14.217-13.608Zm16.03-15.328 27.998-26.777 15.771 16.47 6.85 7.148-29.26 27.199-21.358-24.04Zm29.374-28.107 28.531-27.293 9.473 23.352-22.848 19.801-15.156-15.86Zm20.791-65.66 25.503-6.695 12.453 29.64L149.1 242.06l-8.793-35.364Zm17.035-31.877 18.022-6.162 20.694 53.414-15.998 6.819-22.718-54.071Zm19.852-6.788 9.829-3.363 21.002 52.304-10.186 4.348-20.645-53.289Zm11.675-4.004 11.221-3.832 16.678 44.608c.292.782.794 1.47 1.458 2.002.065.047 1.603 1.298 4.696 3.816l-13.084 5.569-20.969-52.163Zm35.688 47.955c12.064 9.838 41.712 34.082 92.265 75.718a583.75 583.75 0 0 0 6.38 5.146l-.826 28.936-105.769-92.814-5.975-11.058 13.925-5.928Zm80.85-82.662-70.746-22.148a.995.995 0 0 0-1.02.266l-18.783 20.161a.912.912 0 0 0-.227.829l9.861 43.748c.065.266.243.5.502.641l22.281 11.168-16.354 20.818c-2.591-2.112-4.388-3.582-5.409-4.411l-34.684-92.782a10.234 10.234 0 0 0-.275-.61l-10.38-18.894 40.142-26.965h34.279c.535 0 .972-.423.972-.939V16.017l34.781-7.758 13.068 34.988c.048.126.113.22.194.313l19.48 20.427 2.574 40.917a.954.954 0 0 0 .389.704l7.886 5.678 2.882 18.034h-31.413Zm-123.663-18.175 17.666 47.267-11.254 3.848-41.42-103.153 7.448-2.236a284.545 284.545 0 0 0 14.395 30.28l13.165 23.994Zm4.582 51.756-9.812 3.363-40.287-103.982 8.647-2.596 41.452 103.215Zm-11.642 3.988-18.038 6.178-39.478-105.076 17.197-5.161 40.319 104.059ZM116.472 66.224 93.074 7.539c6.153-3.707 11.788-6.272 16.888-7.664l23.706 61.203-17.196 5.146Zm-1.862.563-22.33 6.694-24.758-47.626 21.65-15.86c.744-.5 1.489-.954 2.218-1.424l23.22 58.216ZM-68.658 198.719l5.732 22.366-14.07 5.287a.97.97 0 0 0-.616.719l-4.162 24.51-19.366-21.913-5.862-19.223 1.393-16.751 36.951 5.005Zm-44.918 120.357 11.853 4.473 2.72 19.348-14.573-2.018v-21.803Zm92.379 25.119-12.76 11.684-24.354-24.775 10.137-9.4 26.977 22.491Zm-50.489 48.784 9.165 10.323a.965.965 0 0 0 .664.329l7.4.579h.081a.97.97 0 0 0 .972-.861c.048-.516-.357-.969-.89-1.016l-6.996-.548-8.97-10.088 23.38-21.397 12.177 12.325c.194.188.453.297.712.297.243 0 .486-.094.68-.266a.917.917 0 0 0 .033-1.329l-12.177-12.325 25.746-23.555 14.768 12.309 6.882 21.084-62.73 51.334-23.77-25.401 12.872-11.794Zm45.906 11.012 19.124 19.989-9.927 7.101-4.776-5.537a.957.957 0 0 0-.745-.344c-.324.015-.567.125-.745.328l-14.687 16.564-13.083-17.768 24.84-20.333Zm1.49-1.22 26.863-21.992 9.684 29.687-17.327 12.388-19.22-20.083Zm28.483-23.305 22.475-18.394 20.597 23.164-5.57 5.177-27.787 19.864-9.715-29.811Zm138.624-82.772-6.801-7.101 22.281-19.301 10.509 25.901-12.776 14.296-13.213-13.795Zm16.808-28.295c0-.016-.016-.031-.016-.047l-9.942-24.462 29.276-12.466 19.431 56.542-27.851 7.289-10.898-26.856Zm21.099-37.742 16.095-6.85 28.92 56.995-25.471 6.663-19.544-56.808Zm17.876-7.617 10.218-4.348 6.105 11.309c.048.093.129.187.21.265l83.084 72.903-12.986 16.204-35.915-27.45a1.005 1.005 0 0 0-1.377.157c-.34.406-.259 1.001.162 1.329l72.154 55.134-24.256 4.427-62.083-56.542-5.877-15.344c0-.016-.017-.031-.033-.047 0-.016 0-.031-.016-.047l-29.39-57.95Zm122.967 127.177-1.36 47.752a1896.826 1896.826 0 0 0-7.692 9.228l-11.675-8.79-4.064-43.67 24.791-4.52Zm-34.766-29.686 12.906-16.095 22.605 19.833-.648 22.898-34.863-26.636Zm37.405 5.411 32.644 28.639c-10.703 12.481-22.362 26.292-34.636 40.964l1.992-69.603Zm.065-2.487.826-29.123c18.654 14.546 36.773 25.98 53.678 34.989a2099.783 2099.783 0 0 0-20.694 23.805l-33.81-29.671Zm51.492-24.509c-11.901-8.806-28.175-22.664-39.17-32.22.081-.032.179-.063.243-.126l6.639-5.145 23.107 5.239 13.618 22.899-4.437 9.353Zm6.121-8.352 28.499 5.13c-3.595 3.284-8.307 8.055-13.942 14.092-7.918-3.315-14.687-6.647-19.075-9.713l4.518-9.509Zm-6.331 10.573c4.404 3.222 11.351 6.694 19.496 10.135a912.361 912.361 0 0 0-9.667 10.605c-18.816-9.823-39.267-22.742-60.172-39.713l-.34-23.211c6.914 6.116 33.697 29.749 50.683 42.184Zm12.063 32.705c30.458 15.109 56.285 22.257 72.948 25.605-.875 3.065-1.782 6.256-2.705 9.462l-81.481-22.21a1818.28 1818.28 0 0 1 11.238-12.857Zm-12.63 14.437 23.447 6.397-2.882 9.65-27.738-7.742c2.445-2.815 4.841-5.599 7.173-8.305Zm25.341 6.913 56.998 15.532c-.971 3.378-1.927 6.756-2.866 10.025l-57.03-15.906 2.898-9.651Zm59.136 15.141c.016 0 .016 0 0 0 1.02-3.567 2.024-7.117 2.995-10.511.502.094.988.188 1.457.281 14.137 3.207 23.787 5.756 30.426 8.274l-44.837 36.804c1.765-6.132 5.894-20.599 9.959-34.848Zm3.708-20.099c-2.98-.657-6.121-1.345-9.424-2.065-14.962-3.675-35.673-10.229-59.492-21.788a946.137 946.137 0 0 1 10.282-11.277c25.52 9.807 56.95 18.644 62.86 20.287-.583 2.064-2.17 7.632-4.226 14.843Zm-47.072-59.092c-1.004.595-2.332 1.596-3.919 2.957l-30.247-5.444-13.861-23.289a.998.998 0 0 0-.616-.453l-23.981-5.444c-.291-.062-.599 0-.842.188l-7.011 5.443a.876.876 0 0 0-.308.485c-5.473-4.77-9.408-8.274-10.476-9.228l-1.263-87.402 6.898-37.773h7.448l83.797 1.064c4.793 20.505 10.266 43.826 16.451 70.181 3.789 16.157 6.299 26.824 6.623 28.232 1.231 5.427 11.011 32.627 14.978 43.529-18.573 6.115-35.834 12.418-43.671 16.954ZM397.186 8.446c4.534.063 9.165.125 13.861.188 9.489.11 17.002.203 19.803.391.178.016.356.016.567.016 11.238 0 75.7-16.799 94.127-21.663l20.063 84.398c.016.094.065.173.081.25.016.063.016.11.032.173l29.374 85.634-135.743 32.486c-13.747-58.591-39.477-168.265-42.165-181.873Zm87.375-14.452C460.321.016 436.016 5.615 431.126 5.255c-2.915-.203-10.477-.297-20.031-.406-4.177-.047-9.035-.11-14.2-.188-.373-11.918-2.251-61.39-2.834-76.672l59.443-14.812 16.467 5.787 14.606 43.232v31.798h-.016Zm-63.264 136.389-82.501-1.048-2.996-18.706a.868.868 0 0 0-.389-.61l-7.837-5.647L325 63.565a.88.88 0 0 0-.26-.579L305.147 42.45 291.853 6.898c-.21-.657-6.914-22.257-15.285-49.598l.906-.219C289.975-32.768 331.363.688 338.569 4.49c4.89 2.58 27.365 3.457 54.634 3.926 1.344 7.038 9.748 43.607 28.094 121.968Zm-86.55-197.342c6.332-11.621 12.615-31.751 15.578-41.98l34.862 29.405-50.44 12.575Zm-62.81 15.657-7.579 1.892-58.73 6.538a7302.983 7302.983 0 0 0-2.834-40.854l56.448-9.635c4.129 13.843 8.549 28.42 12.695 42.059Zm-30.718-163.386-.372-2.158 39.105.938 30.183 15.688-11.594 20.224-9.359-2.8 2.688-7.836a.94.94 0 0 0-.616-1.189.973.973 0 0 0-1.23.595l-2.705 7.883-46.942-14.046c.13-10.104.826-16.908.842-17.064a.581.581 0 0 0 0-.235Zm59.233 35.271 11.415-19.911 6.137 3.19v21.96l-4.501-1.345c-.016 0-.033-.015-.049-.015l-13.002-3.879Zm12.727 25.385h-12.906v-23.462l11.934 3.567.972 19.895Zm-46.473-33.503v7.242H240.75a241.064 241.064 0 0 1-.405-15.125l26.361 7.883Zm61.597 33.503v-15.078l13.035 3.895 1.263 11.183h-14.298Zm-1.911-15.657c-.016.078-.048.141-.048.219v15.438h-11.206l-.955-19.301 12.209 3.644Zm-8.388-28.591-36.87-19.161-1.36-12.387 36.401-5.177 1.829 7.007v29.718Zm-38.441-33.441-1.392-12.716 33.583-7.554 3.951 15.124-36.142 5.146Zm-.437 13.905-38.587-.938-2.817-16.595 38.522-8.666 2.882 26.199Zm-40.579-.985-45.484-1.095c-.098-3.691-.195-7.414-.292-11.137l43.024-3.91 2.752 16.142Zm27.285 178.713c.227-.031.437-.062.664-.125l8.226-2.049a11582.06 11582.06 0 0 0 15.01 48.722l-35.381 7.899a.962.962 0 0 0-.761.922v43.983h-33.615a.993.993 0 0 0-.551.172l-40.19 27.012-2.024-3.691c-10.622-19.333-18.88-39.822-24.548-60.875-5.602-23.821-5.959-38.649-1.069-45.312 2.138-2.925 5.554-4.552 10.769-5.13l103.47-11.528ZM153.488 55.12l-17.941 5.38L111.873-.61c5.247-1.157 9.894-1.017 13.893.438 9.959 3.613 14.978 15.234 17.424 24.337a281.42 281.42 0 0 0 10.298 30.954ZM138.623-3.363c-2.85-2.502-5.991-4.41-9.424-5.646-3.627-1.314-7.529-1.893-11.707-1.752l20.629-15.109 3.903-.438c-2.915 5.459-4.049 12.92-3.401 22.945Zm-85.35 27.81L35.297 5.693C51.361-4.927 63.975-13.42 64.445-14.202c.745-1.22 3.239-8.587 4.874-13.53 14.282.767 33.405.97 49.209.97h4.647L53.272 24.447Zm9.553-39.697c-.89.923-12.906 8.978-28.888 19.536l-31.3-32.643L.55-39.665C20.142-35.192 44.544-30.015 58-28.56c2.672.281 5.83.531 9.295.735-1.878 5.662-3.967 11.73-4.47 12.575ZM.776-27.747a.883.883 0 0 0 .243.47l6.785 7.069-19.529 7.476-13.844-33.08a1974.91 1974.91 0 0 0 24.046 5.677L.776-27.747Zm-14.314 15.704L-53.161 3.113-55.137.078l9.149-37.084 18.2-9.103 14.25 34.066Zm22.75-6.68 23.09 24.088C15.14 16.689-6.17 30.625-23.27 41.761l-14.055-11.136.065-1.423a4.557 4.557 0 0 0-.745-2.737l-14.12-21.726L9.212-18.722Zm-46.65 51.694 13.504 10.699L.89 62.814l-41.42 30.344 3.093-60.187Zm57.58 27.591-2.655 34.426c-3.19 3.832-44.983 53.852-55.735 62.798-6.98 5.803-39.542.814-64.576-4.473a1.087 1.087 0 0 0-.405-.125c-.048 0-.081.015-.129.015-1.782-.375-3.514-.75-5.198-1.126 3.562-1.11 5.586-1.751 5.781-1.798a4.71 4.71 0 0 0 1.457-.736l121.46-88.981Zm-124.504 94.331-1.652 19.832-53.176 6.007-3.514-11.371a5753.301 5753.301 0 0 1 50.585-16.158c2.235.485 4.842 1.064 7.757 1.69Zm-56.448 27.137a.97.97 0 0 0 .94.672h.113l53.597-6.053-2.736 33.081-53.711 6.726-22.653-39.729a4294.522 4294.522 0 0 1 20.726-6.756l3.724 12.059Zm9.522 58.168.971 15.876-46.991 18.206-40.772-79.956a5409.51 5409.51 0 0 1 50.941-17.002l35.851 62.876Zm-75.312-19.066-32.482 10.761-9.327-27.153a4693.056 4693.056 0 0 1 28.466-9.775l13.343 26.167Zm-34.021 12.263 3.498 10.166-49.662 16.173-11.513-37.241a3297.836 3297.836 0 0 1 48.075-17.111l9.602 28.013Zm-43.736 40.854-61.645 18.925c-2.979-8.79-9.391-25.041-17.698-45.421 18.67-7.774 40.465-16.141 63.539-24.588l15.804 51.084Zm-134.641 37.835a4469.534 4469.534 0 0 0 30.782-13.279l9.003 26.746-29.988 13.42-9.797-26.887Zm14.169 44.546-10.59 3.644-5.846-13.701 10.963-5.005 5.473 15.062Zm-6.137-16.845-11.983 5.474a.943.943 0 0 0-.485 1.22l6.558 15.359c.161.36.518.579.906.579.114 0 .227-.016.324-.047l11.464-3.941 7.87 21.584-31.365 10.839-15.982-42.074-8.55-22.523c11.869-5.036 22.297-9.478 31.446-13.389l9.797 26.919Zm2.429.985 29.956-13.404 5.764 17.126a91.544 91.544 0 0 1-2.283 1.862c-9.505 7.335-14.638 17.017-16.014 31.86l-3.352 1.158-14.071-38.602Zm31.737-14.202 22.896-10.245c-2.056 9.51-7.885 18.566-17.309 26.809l-5.587-16.564Zm-.615-1.814-9.003-26.731c15.739-6.866 23.495-10.432 27.333-12.372 2.833 7.43 4.76 12.904 5.214 15.047a37.53 37.53 0 0 1 .372 13.357l-23.916 10.699Zm17.682-40.792c-4.485 2.205-14.249 6.569-27.284 12.247l-11.303-33.566c8.177-3.55 16.484-7.148 24.888-10.776.259-.11.534-.235.81-.344 4.858 12.012 9.456 23.492 12.889 32.439Zm-17.698-40.698c-14.137 6.1-27.997 12.122-41.389 17.956l-5.78-15.438a.994.994 0 0 0-1.166-.594l-8.728 2.237-36.887-83.695 33.6-16.501c3.303 2.549 7.206 5.505 11.707 8.899 7.951 6.022 18.686 14.124 21.212 16.548.988 2.894 4.113 10.511 13.991 34.442 4.275 10.37 9.489 22.992 14.638 35.599-.389.203-.794.391-1.198.547Zm-22.686 20.177 11.302 33.565c-9.019 3.926-19.496 8.431-30.83 13.295l-12.048-33.08a8845.35 8845.35 0 0 1 31.576-13.78Zm-21.326 47.611c-9.991 4.27-20.613 8.806-31.462 13.404l-12.355-32.502c10.04-4.426 20.678-9.103 31.77-13.967l12.047 33.065Zm-24.402 37.445-16.079 5.443-8.21-20.099c3.563-1.517 7.141-3.019 10.72-4.536 1.829-.782 3.627-1.533 5.392-2.284l8.177 21.476Zm-17.553 6.975c.146.376.518.595.907.595.113 0 .211-.016.324-.047l16.986-5.74 5.441 14.295-15.853 6.57a.929.929 0 0 0-.518 1.235c.162.36.518.579.891.579.129 0 .259-.031.388-.078l15.755-6.538 9.554 25.135-37.971 13.123c-.017-.078-.017-.157-.049-.235l-24.516-61.266c6.558-2.768 13.311-5.615 20.128-8.508l8.533 20.88Zm123.76 56.621-7.659-25.949 8.533-4.16 8.064 25.385-8.938 4.724Zm21.423-11.309-10.736 5.678-7.967-25.104c-.032-.078-.081-.141-.113-.203l8.954-4.364 9.862 23.993Zm-30.458-16.063c-1.96-.016-15.221.063-33.049 5.177-.519-19.082 3.659-29.186 12.711-36.177 21.779-16.83 26.475-34.426 25.633-47.971l10.719 1.83 18.087 60.483-34.101 16.658Zm50.099-24.134c-.016 0-.032.016-.048.031h-.033l-14.136 6.601-9.181-30.719 35.332-9.463 9.392 25.729-21.326 7.821Zm16.614 13.592a.897.897 0 0 0-.275-1.095l-14.088-11.293 29.001-10.651 15.189 65.207-22.978 5.443-23.123-11.386 16.274-36.225Zm-32.223 71.714 15.172-33.769 22.475 11.074-15.933 31.047-21.714-8.352Zm38.408 34.097-2.315-19.692a.923.923 0 0 0-.615-.766l-11.951-4.599 16.096-31.36 22.848-5.412 13.294 57.106-37.357 4.723Zm160.21-38.461a1.203 1.203 0 0 0-.227.063l-34.442 13.592a.803.803 0 0 0-.064-.329l-6.332-15.735a.985.985 0 0 0-1.052-.594l-27.285 4.004-6.93-46.094 8.469-6.006a.927.927 0 0 0 .356-1.032l-5.959-19.004a.972.972 0 0 0-1.214-.626c-.519.157-.81.673-.648 1.173l5.764 18.363-8.387 5.943a.926.926 0 0 0-.389.892l7.157 47.595c.033.251.178.47.389.626.21.156.469.203.728.172l27.479-4.035 6.056 15.031c.049.125.146.203.243.281l-79.732 31.47-31.997-137.375 65.985-7.288c.097-.016.178-.032.275-.063l12.954-5.271 14.639 22.304-7.206 6.96a.907.907 0 0 0-.097 1.22l11.934 16.079a1 1 0 0 0 1.214.297l34.96-16.548 18.249.595 2.769 4.316 8.452 12.904-15.933 11.309-7.465-9.354c-.324-.406-.939-.485-1.376-.172a.94.94 0 0 0-.179 1.33l7.433 9.306-8.598 6.1a.946.946 0 0 0-.405.767v14.608c0 .235.081.454.243.626l18.427 20.364-8.258 1.236Zm10.573-1.548-18.994-21.006v-13.78l26.232-18.628 10.607-1.283 20.516 20.067 23.819 25.448-62.18 9.182Zm111.519 43.403-12.242 13.686-26.183-28.873-20.71-17.44-7.271-15.516 19.14-2.815c.016 0 .032-.016.064-.031a.887.887 0 0 0 .389-.172c.016-.016.032 0 .032-.016l.016-.016 8.097-6.616 13.699 18.597 24.968 39.212Zm-8.518-17.001-14.427-22.664 14.281-16.11 4.631 5.364s.017 0 .017.016v.016l14.735 16.141-19.237 17.237Zm20.678-18.519-14.006-15.344 9.99-7.148 13.44 14.045-9.424 8.447Zm10.428-10.151-12.873-13.467 16.614-11.887 2.736 8.399-6.477 16.955Zm32.256 6.944-6.202 7.195-24.483-12.826 6.687-17.455 24.532-6.178 4.68 5.631-5.214 23.633Zm58.26 60.14-33.826-33.8-4.696-13.811a.947.947 0 0 0-.663-.61L46.6 452.853l-3.287-7.836 5.311-24.025a.91.91 0 0 0-.194-.782l-5.36-6.444a.98.98 0 0 0-1.004-.328l-24.742 6.225-2.77-8.477 28.435-20.334 14.606-13.592 84.622 88.372-42.586 39.165Zm43.979-40.479-23.722-24.76 26.605-21.756 19.706 25.729-22.589 20.787Zm23.965-22.195-19.366-25.26 34.685-13.06 9.553 10.448-14.12 15.829h-.016l-10.736 12.043Zm54.003 42.935-7.449-17.565a.96.96 0 0 0-.437-.469l-44.659-23.665 10.169-11.387 52.075 40.714-9.699 12.372Zm10.881-13.858-51.978-40.635 13.407-15.016 51.59 39.087-13.019 16.564Zm14.185-18.081-50.699-38.414 30.426-7.086 37.081 24.087-16.808 21.413Zm17.148 12.982-15.61-11.825 16.873-21.522 17.067 11.09c-6.073 7.351-12.193 14.796-18.33 22.257Zm19.56-23.743-56.253-36.537a1.11 1.11 0 0 0-.777-.141l-32.223 7.492-9.068-9.932 43.914-9.338c.259-.062.486-.219.632-.438a.904.904 0 0 0 .113-.735l-10.849-38.946c-.146-.5-.68-.798-1.198-.672l-43.299 11.23-4.987-15.203 31.041-9.479h.032l.065-.015 13.148-5.287c.421-.172.664-.594.583-1.017l-3.756-23.211c0-.015-.017-.031-.017-.031v-.047l-1.878-7.257c-.13-.501-.664-.814-1.182-.689-.518.126-.842.642-.712 1.142l1.635 6.335-48.157 11.559-2.979-9.057 13.326-14.905 56.059-14.672 5.651 14.75c.049.141.13.266.243.36l62.341 56.776 4.146 44.577a.95.95 0 0 0 .372.657l11.983 9.009a12194.73 12194.73 0 0 0-27.949 33.722Zm65.094-11.199-13.634 23.446-1.554 2.737-35.543-17.236a7870.73 7870.73 0 0 1 28.483-34.238l26.377 1.97-4.129 23.321Zm-20.759-27.09c13.23-15.797 26.508-31.548 38.782-45.859l29.503 8.227 57.985 16.172c-3.562 12.466-6.558 22.93-7.076 24.76l-6.283 5.162-112.911-8.462Zm111.972 40.416-11.578-17.705 20.322-18.191 47.995-39.384c4.323 1.815 7.157 3.66 9.068 5.772 5.505 6.115 34.004 36.318 45.063 48.017l-64.397 62.627-46.473-41.136Zm66.131 58.576-18.233-16.158 12.84-12.481 18.622 14.843-13.229 13.796Zm14.557-15.172-18.573-14.812 12.371-12.028 22.41 9.963-16.208 16.877Zm-4.745-28.248 36.223-35.223c1.247 1.314 2.186 2.315 2.672 2.831 1.052 1.736 4.517 7.461 9.343 15.359l-15.416 31.626-32.822-14.593Zm52.917-27.966c-2.088-3.441-4.064-6.678-5.845-9.635-.178-.281-.372-.563-.615-.797-.065-.079-1.312-1.392-3.336-3.535l.275-.266 13.149 5.161-3.628 9.072Zm5.441-8.368 13.537 5.303c-.016.031-.049.062-.065.093l-8.161 20.568a4315.505 4315.505 0 0 1-9.489-15.531l4.178-10.433Zm8.728 66.146-32.482-14.437 14.848-30.453a5352.126 5352.126 0 0 0 21.472 34.864c-1.247 3.253-2.543 6.616-3.838 10.026Zm8.193-21.366a6413.563 6413.563 0 0 1-10.33-16.751l8.727-21.96c.017-.031 0-.047.016-.078l14.606 5.724c-3.303 8.055-7.805 19.552-13.019 33.065Zm40.708 30.704-28.288-10.793c-1.943-3.081-3.951-6.287-5.991-9.541a3707.421 3707.421 0 0 1 7.886-20.458l37.048 15.672-10.655 25.12Zm11.4-26.887-37.113-15.688c2.736-7.023 5.084-13.013 6.963-17.659l37.971 14.89-7.821 18.457Zm15.561-36.647-6.979 16.439-18.832-7.383c.097-.078.211-.156.259-.281l8.177-16.627 17.375 7.852Zm-18.719-9.51-8.582 17.487c-.081.156-.097.313-.081.469l-17.601-6.898c1.83-4.52 3.109-7.476 3.66-8.446 1.246-1.751 4.323-7.805 8.355-16.157l17.083 7.774-2.834 5.771Zm11.335-21.96c-.34.032-.647.204-.793.517l-6.866 13.967-17.099-7.789c2.024-4.208 4.259-8.916 6.59-13.921l18.168 7.226Zm-41.89 19.114c-.599.766-2.251 4.489-4.68 10.385l-44.108-17.299 55.395-53.867c9.229-.595 17.067.031 22.054.672-12.355 26.95-26.362 56.918-28.661 60.109Zm48.497-104.2a90.17 90.17 0 0 1-1.117 2.752c-2.251 5.162-7.919 17.753-14.606 32.393-5.247-.845-15.173-1.971-27.317-1.111 22.135-8.196 34.312-20.63 43.04-34.034Zm-55.12 45.092c3.53-.688 6.947-1.141 10.234-1.439l-54.375 52.867-3.4-1.33c-12.355-13.091-37.308-39.556-42.295-45.092-1.473-1.643-3.222-3.113-5.343-4.489 32.692 1.798 77.691 2.862 95.179-.517ZM572.114 262.8l-44.643 58.731a.932.932 0 0 0-.145.282l-10.461 33.534c-16.937-.797-31.948-1.861-40.238-2.831-2.251-.266-6.202-.813-11.546-1.845 2.494-8.744 4.308-15.125 4.453-15.688.211-.829 1.247-11.637.972-24.259l50.423-45.297c4.761-1.376 7.66-2.189 7.805-2.221a4.957 4.957 0 0 0 2.429-1.548l17.278-20.505 23.673 21.647Zm-47.557-8.243c-6.85 1.939-34.733 9.885-61.079 18.456-3.918-10.776-13.682-37.945-14.848-43.122-.324-1.423-2.834-12.106-6.623-28.263-.567-2.393-1.166-4.943-1.781-7.602l136.114-32.58 7.724 22.523-59.507 70.588ZM652.818 53.962l-62.325 118.73-33.794-98.476 96.119-20.254ZM564.585-64.16c9.537 8.634 64.786 73.731 74.971 85.744l-7.918 27.2-77.611 16.36-36.579-153.939c15.707 6.914 40.303 18.441 47.137 24.635Zm-39.931 47.861a2996.005 2996.005 0 0 1-38.15 9.807v-31.47a.962.962 0 0 0-.048-.297l-14.169-41.964 40.562 14.248 11.805 49.676Zm-166.476-254.51 63.005 4.646 9.764 26.699-36.902 2.44c-.065 0-.146.016-.211.031l-35.656 10.229v-44.045Zm0 46.032 36.109-10.355 37.341-2.471 3.254 8.884-76.704 36.225v-32.283Zm0 34.379 77.352-36.538 3.481 9.51c.016.047.049.094.065.141 1.506 3.941 9.586 19.082 19.804 37.741l-81.303 39.15a.925.925 0 0 0-.437 1.267.99.99 0 0 0 .874.516c.146 0 .291-.031.437-.094l81.335-39.165c16.015 29.186 36.855 66.224 46.084 82.6l4.372 18.378-54.844-19.27a5.033 5.033 0 0 0-2.882-.14l-62.746 15.64-38.636-32.579-3.497-30.891 21.261-10.214a.912.912 0 0 0 .485-1.142l-11.221-32.877v-2.033h.016Zm-1.943-80.551v79.581c-.146.266-.178.579-.032.86.016.016.032.031.032.047v2.237c0 .094.016.203.049.297l10.994 32.236-19.852 9.541-12.128-107.297c.065.031.113.062.178.078l12.614 2.722v10.87l-10.007-1.032c-.534-.047-1.02.313-1.069.844-.064.517.324.986.875 1.033l11.092 1.157h.097a.97.97 0 0 0 .648-.234.914.914 0 0 0 .323-.704v-12.669a.961.961 0 0 0-.761-.923l-13.375-2.878a1.01 1.01 0 0 0-.777.156l-1.992-17.612 23.091 1.69Zm-21.488 47.564-14.8-2.878v-1.877c0-.078-.016-.156-.032-.235l-6.283-24.055 17.391-3.911 3.724 32.956Zm-5.554-49.128 1.62 14.311-17.65 3.973-3.951-15.125 19.981-3.159Zm-21.908 3.456 3.983 15.235-33.308 7.492-1.959-17.784 31.284-4.943Zm-33.227 5.256 1.975 17.908-38.635 8.697-3.449-20.271 40.109-6.334Zm-42.036 6.631 3.465 20.381-42.764 3.878c-.146-6.084-.276-12.137-.405-17.987l39.704-6.272Zm-41.113 83.163H159.35l-2.17-14.859 32.968-1.079c.227 5.928.486 11.324.761 15.938Zm-2.299-67.834-3.077-8.634h2.882c.065 2.831.13 5.724.195 8.634Zm-.68-34.035c.113 6.991.275 15.015.437 23.524h-3.514l-8.21-23.086 11.287-.438Zm-46.23 1.783 32.919-1.267 8.178 23.008h-42.295l1.198-21.741Zm-43.412 43.044c7.205-4.818 25.406-17.721 27.786-19.411h13.407l43.996-.015 5.278 14.843c.357 15.14.794 30.641 1.312 43.795l-34.037 1.11a.969.969 0 0 0-.712.344.943.943 0 0 0-.227.735l2.445 16.705c.065.469.486.813.972.813h32.531c.356 5.709.744 10.026 1.165 12.341 2.591 14.374 8.194 96.833 9.57 117.339l-54.423 6.053c-2.024.03-17.018.234-34.636.187v-40.776a.786.786 0 0 0-.065-.328L59.83-216.268c5.409-1.689 31.349-10.025 38.457-14.78ZM-55.429-164.34c4.55-4.395 14.59-22.507 16.095-25.244l77.157-27.45 20.03 1.111L110.74-76.797v40.604c-18.784-.078-40.045-.485-51.655-1.72-21.018-2.254-71.765-14.47-83.455-17.316l-25.325-64.91a4.733 4.733 0 0 0-1.117-1.674l-28.402-27.45c7.788-4.426 20.45-11.855 23.787-15.078Zm-264.603-26.73 2.737-60.656 43.428 11.043c.081.016.162.031.243.031.178 0 .356-.047.518-.141a.932.932 0 0 0 .437-.61l4.502-21.256 38.457 9.588-2.186 11.309c-6.347 9.306-11.238 16.548-13.1 19.41l-56.042 35.974-18.994-4.692Zm69.434-16.36c-3.449 10.104-9.101 26.589-15.108 43.169l-33.405-12.028 48.513-31.141Zm-50.537 32.423 34.765 12.513c-8.469 23.243-17.488 46.204-22.022 51.381-1.166 1.345-2.655 2.721-4.339 4.113l-34.62-21.115-2.85-14.374-2.429-12.325 31.495-20.193Zm6.833 69.29c-13.084 10.041-36.563 20.364-43.801 22.507-.939.282-3.514 1.549-7.384 3.582-7.448.063-17.439.891-26.313 1.72 9.198-6.6 20.29-23.899 21.31-25.51l22.426-22.898 33.762 20.599Zm-35.025-22.382-22.604 9.024-3.498-5.552 23.625-16.048 2.477 12.576Zm-30.846-55.979-11.805-1.674-9.165-30.797 8.55-2.753 12.42 35.224Zm-26.394-74.655 6.282 10.667c-1.068 1.267-1.392 2.957-.842 4.489l7.919 22.492-8.469 2.722-2.235-7.539a.962.962 0 0 0-.825-.673l-9.716-1.079-11.173-15.422 19.059-15.657Zm-20.581 16.877 11.319 15.625c.162.219.404.36.696.391l9.505 1.048 11.934 40.135c.113.36.421.626.793.672l13.424 1.909 9.57 27.137c-3.692 2.424-10.655 6.85-19.723 11.981l-18.556-2.941c.032-.141.048-.281.016-.438l-14.557-65.082c-.049-.25-.227-.469-.454-.61a.992.992 0 0 0-.761-.109l-22.993 6.084-6.121-14.562 25.908-21.24Zm9.392 61.578 7.626 34.066-34.797-5.505-5.133-21.538 32.304-7.023Zm-32.742 5.193-6.282-26.386 32.369-8.571 6.25 27.919-32.337 7.038Zm5.684 25.292 52.529 8.321c-14.622 8.102-34.037 17.533-54.003 23.524l1.474-31.845Zm-27.139-97.162 10.153 2.471 1.409 26.981-27.317 2.862-5.797-24.556 21.552-7.758Zm-23.479 8.055 5.781 24.478-42.392 4.427 1.441-31.955 35.17 3.05Zm-39.575-33.957 10.121 2.049-7.384 26.825-8.323-.72 5.586-28.154Zm-25.794 38.915 19.22-8.962 9.019.782-1.424 31.97-28.937-7.289 2.122-16.501Zm-10.995 42.763 2.526-25.902 18.265 4.599-3.093 24.681-17.698-3.378Zm32.903 40.682 2.963-32.158 25.973-1.283 5.295 32.94-34.231.501Zm30.734-34.567c-.081-.485-.518-.813-1.02-.797l-27.576 1.36-15.416-2.94 3.077-24.572 15.788 3.973a.59.59 0 0 0 .162.015c.016 0 .032.016.032.016h.147l73.708-7.711c.016 0 .033-.016.049-.016a.854.854 0 0 0 .405-.172c.016-.015.048-.015.064-.031l4.113-3.379 5.781 13.78-9.392 2.487c-.502.141-.809.626-.696 1.126l11.934 50.114-55.719.798-5.44-34.051Zm31.591 72.95c-6.347.406-13.035.281-19.9-.204l-5.927-36.818 55.622-.814-1.506 32.612c-9.473 2.721-19.059 4.629-28.289 5.224Zm27.35 4.848c43.687-11.527 85.221-40.072 87.909-41.933l6.947-4.458 2.169 10.965-25.082 17.048a.937.937 0 0 0-.275 1.267l4.42 6.992a.99.99 0 0 0 1.215.375l19.884-7.946-19.917 20.334c-.048.047-.097.094-.129.156-.162.25-15.464 24.369-24.548 27.028-.13.015-.259.031-.372.031-.47.047-.94.094-1.409.125V-94.69a.96.96 0 0 0-.745-.923l-50.067-11.653Zm29.243 8.744 19.61 4.567v16.845c-3.757.344-6.915.626-8.809.72-2.64.11-8.048-.736-14.217-1.956l3.416-20.176ZM-523.069.563l2.266-10.15a.794.794 0 0 0-.048-.548l-12.258-29.249.81-19.551 70.47-26.496 27.446 1.861c2.461.642 36.757 9.432 45.291 9.072 2.477-.11 7.011-.532 12.257-1.032 8.178-.766 19.027-1.799 27.641-2.112-31.689 17.096-121.104 68.993-165.844 95.05L-523.069.564Zm12.16 25.464c73.207-42.638 168.759-97.74 175.673-100.212 8.631-2.565 42.425-17.19 54.31-30.828 8.064-9.26 24.677-55.87 39.85-100.243 1.927-5.615 3.595-10.511 4.048-11.653 1.036-1.673 7.206-10.776 15.755-23.305l73.936 6.397 27.802 58.56c.243.516.583.97.988 1.377l60.058 58.012 24.321 62.345-18.33 9.165a4.783 4.783 0 0 0-2.51 3.097L-65.143-.156a4.55 4.55 0 0 0 .615 3.597l17.423 26.809-3.61 70.384-55.881 40.933c-13.294 4.144-186.457 58.231-280.714 97.443a12155.103 12155.103 0 0 0-14.525-35.302c-6.525-15.797-12.695-30.75-13.763-33.784-.146-2.534-1.944-4.114-24.484-21.147-9.213-6.976-20.694-15.641-22.653-17.799-2.542-2.816-8.728-18.285-13.213-31.642a6.982 6.982 0 0 0-.211-.516l-34.749-72.793Zm-34.263 127.364 19.01-9.4a1.04 1.04 0 0 0 .453-.454l11.934-26.089c.032-.078.065-.156.065-.234l2.299-14.828 22.394-8.087 3.919 8.181c1.83 5.412 10.023 29.092 15.059 34.66 1.441 1.596 5.052 4.536 10.606 8.837l-33.615 16.502c-.454.218-.664.75-.454 1.204l27.835 63.174-40.886 15.312-38.619-88.778Zm39.348 90.53 40.902-15.328 8.566 19.457-41 15.36-8.468-19.489Zm9.229 21.209 41.842-15.672 8.631-2.221 5.521 14.749a14707.277 14707.277 0 0 0-48.173 21.131l-7.821-17.987Zm-28.806 44.608a11758.09 11758.09 0 0 1 38.36-16.986l12.339 32.486a14285.262 14285.262 0 0 1-38.069 16.111l-12.63-31.611Zm-26.184 50.02a19920.775 19920.775 0 0 0 37.745-15.891l24.483 61.203c.033.062.081.094.13.141l-41.583 14.374-20.775-59.827Zm21.391 61.61 30.069-10.386c.017.063.017.125.033.188l6.218 15.453-30.264 12.153-6.056-17.408Z" fill="#6775FF"/></g></svg>