<svg width="30" height="30" viewBox="0 0 30 30" fill="none" xmlns="http://www.w3.org/2000/svg"><rect width="30" height="30" rx="2" fill="#fff"/><path d="M23.385 11.277a2.114 2.114 0 0 0-1.488-1.487c-1.32-.361-6.602-.361-6.602-.361s-5.282 0-6.603.347a2.157 2.157 0 0 0-1.487 1.502c-.348 1.32-.348 4.058-.348 4.058s0 2.752.348 4.06a2.115 2.115 0 0 0 1.487 1.486c1.335.362 6.603.362 6.603.362s5.282 0 6.602-.348a2.114 2.114 0 0 0 1.488-1.487c.347-1.32.347-4.059.347-4.059s.014-2.752-.347-4.072Zm-9.772 6.59v-5.06l4.392 2.53-4.392 2.53Z" fill="#7481FF"/></svg>