<svg width="768" height="725" viewBox="0 0 768 725" fill="none" xmlns="http://www.w3.org/2000/svg"><mask id="a" style="mask-type:alpha" maskUnits="userSpaceOnUse" x="0" y="0" width="768" height="725"><path fill="#7481FF" d="M0 0h768v725H0z"/></mask><g mask="url(#a)"><path d="m-523.052 751.547-8.782 3.087h8.364l1.301-.46.162.46h2.951l-.465-1.382 147.36-51.916c3.508 16.268 7.504 33.988 11.941 53.298h14.381c-18.795-82.171-29.063-133.373-30.434-166.693 24.045-7.189 42.236-7.719 46.58-7.719l11.5 40.002c.116.415.418.738.813.899a1.393 1.393 0 0 0 1.208-.046l33.361-18.089a1.383 1.383 0 0 0 .627-1.728l-14.729-36.754 19.19-9.609 20.932-10.047 20.537 16.937-84.355 192.847h3.043l36.962-84.498 50.204 19.817 3.23 28.25-47.161 7.259a1.381 1.381 0 0 0-1.185 1.29l-1.882 27.882h2.811l1.789-26.591 18.005-2.765 1.603 29.356h21.513l-2.556-32.513 8.805-1.36 33.57-4.355 7.481 38.228h2.857l-7.55-38.597 18.911-2.465 4.274 18.872-13.962 22.167h3.299l11.523-18.319 4.158 18.319h5.739l-5.274-23.296 53.039-21.499 13.311 35.739c.233.646.93 1.037 1.627.876l15.82-3.71 3.509 11.89h2.927l-4.089-13.941c-.21-.714-.953-1.129-1.673-.967l-15.914 3.733-12.917-34.68L6.031 663.845l76.433-11.568 10.896 23.85c.093.184.21.345.349.484l29.806 25.762 38.495 43.62 7.621 8.618h3.717l-8.434-9.539 17.262-19.817 16.494 25.163c.279.414.721.622 1.185.622.256 0 .535-.069.767-.231.65-.414.836-1.267.418-1.912l-17.494-26.684-13.66-22.052 27.971-25.716 14.288 16.061-.372 28.826c0 .761.604 1.406 1.394 1.406h.023c.767 0 1.394-.599 1.394-1.382l.372-29.38c0-.346-.116-.669-.348-.945l-14.683-16.522 13.846-12.743 36.312 19.518c.209.115.441.161.673.161.395 0 .813-.184 1.069-.507l8.364-9.955 4.251 10.439c.163.392.511.691.929.829l19.817 5.462 6.621 19.932c.07.207.186.392.325.53l47.161 48.39h7.365l60.194-56.893h.023s0-.023.023-.023l33.617-31.776 64.282 34.979 11.128 26.937-20.467 26.845h3.508l35.011-45.809.023.023c.255.207.581.299.883.299a1.44 1.44 0 0 0 1.091-.506c.488-.6.395-1.475-.209-1.959l-.092-.069 18.678-24.449 22.349 17.398c-6.11 7.65-12.243 15.3-18.376 22.973l-.024.023c-.023.024-.046.047-.046.07-3.764 4.723-7.527 9.424-11.291 14.148-5.343 6.683-10.152 12.72-14.287 17.882h25.253c4.321-11.453 8.154-19.449 11.36-23.481.465-.576.929-1.176 1.417-1.775l24.092 16.845c.255.161.534.253.813.253.418 0 .836-.184 1.115-.553l8.967-11.798a1.36 1.36 0 0 0-.278-1.935 1.388 1.388 0 0 0-1.952.276l-8.154 10.738-22.86-15.969a21901.27 21901.27 0 0 1 52.875-65.949l51.413 25.624-37.636 67.7h3.206l7.876-14.148 26.112 14.148h5.832l-30.597-16.591 31.27-56.271 19.678-34.749c.069-.138.139-.299.162-.437l5.994-34.819v-.046l121.41 9.333-18.609 17.121c-.488.461-.604 1.198-.232 1.751l16.866 26.477-54.548 88.231h3.299l53.178-86.088 93.903 85.443-.395.645h8.131l-3.508-1.405 44.35-47.4 62.541 28.551c-2.46 6.613-4.97 13.388-7.5 20.254h14.96c2.81-7.65 5.6-15.162 8.29-22.42 4.83 7.88 9.5 15.461 13.85 22.42h16.49c-3.97-6.29-8.41-13.411-13.15-21.084l38.4 15.047 14.38 6.037h7.18l-19.21-8.065 27.6-66.824 11.69 4.7v-2.995l-10.62-4.286 10.62-25.716v-7.328l-2.16 5.208-24.77-11.522 7.25-15.139 19.68 7.351v-2.973l-18.5-6.913 6.07-12.674c.23-.506.14-1.06-.19-1.474l12.62 5.161v-2.995l-38.71-15.808c1.93-4.24 3.93-8.618 5.93-13.042l32.78 13.618V589.9l-31.65-13.135c4.21-9.309 8.46-18.826 12.55-27.997l19.12 7.696v-15.001l-13.43-5.415c5.07-11.406 9.64-21.799 13.2-29.887l.23.115v-39.058c-14.1 25.993-33.62 51.11-79.24 64.567-2.28.346-4.58.737-6.9 1.198-20.47 4.056-73.092 3.411-117.465 1.337l14.752-48.506 37.148-50.188 46.995 33.436c.26.184.54.253.82.253.44 0 .86-.207 1.13-.576.45-.622.31-1.498-.32-1.935l-46.999-33.39 25.179-34.034 124.9 51.247v-2.995l-124.59-51.133-34.805-32.721 59.055-71.963L1148 341.357v-15.531l-92.79-45.832 92.81-181.442v-25.07l-26.3 5.691 7.97-28.112c4.62 2.304 11.03 5.208 18.35 7.926V44.08c-8.85-3.595-15.66-7.236-18.14-8.618-9.92-12.029-95.23-115.446-110.31-129.456-14.82-13.803-69.135-37.929-82.168-43.598-36.66-66.755-91.023-166.947-94.159-176.026-1.092-5.323-5.506-45.464-9.548-83.876h-14.079c.813 7.811 1.719 16.314 2.649 24.886l-8.898-24.909h-14.869l4.716 13.203-65.212-4.954 1.232-8.249h-2.835l-1.208 8.042-57.638-4.379-.395-3.663h-5.645l.441 3.94-29.063 4.724-2.184-8.664h-2.88l2.323 9.102-44.489 7.212-1.766-16.314h-2.811l1.789 16.775-57.708 9.355-4.321-26.13h-2.835l4.391 26.591-56.57 9.171a7588.006 7588.006 0 0 1-.627-34.288l8.782-1.474H443.79l-40.377 1.59.093-1.59h-2.811l-1.928 36.408h-18.353c-.302 0-.581.092-.837.276-.209.161-16.634 12.121-29.435 21.246l-3.02-19.287 21.234-9.171c.442-.185.767-.623.837-1.106l3.368-25.878a1.386 1.386 0 0 0-1.138-1.544l-5.158-.944h-15.263l18.632 3.456-3.09 23.78-21.489 9.287c-.581.253-.93.852-.837 1.498l3.392 21.729a963.775 963.775 0 0 1-8.201 5.761c-10.408 7.143-51.993 20.647-55.594 21.799l-29.086-1.659-52.249-57.815-6.923-21.707 9.293-6.129h-5.064l-5.111 3.364-1.092-3.364h-2.951l9.247 28.942c.069.184.162.368.302.507l51.435 56.962-109.167 39.888c-2.555-.577-18.562-4.471-21.675-14.08-1.185-3.618-9.572-22.305-20.537-46.57.023 0 .07 0 .093-.023l53.41-25.946 14.102 32.928c.162.369.464.645.836.761.139.046.302.069.465.069.232 0 .464-.069.673-.185l32.316-17.835c.325-.184.581-.507.674-.876.093-.368.046-.76-.163-1.083l-26.763-42.698c-.325-.53-.976-.761-1.58-.599l-26.926 7.535-7.573-17.697h-3.044l15.891 37.122-53.526 26.016c-.465-1.037-.93-2.051-1.394-3.088-8.201-18.135-17.889-39.565-26.972-60.05h-3.067c9.06 20.416 18.818 42.053 27.483 61.179 12.151 26.891 21.745 48.137 22.977 51.893 3.229 9.977 17.284 14.333 22.349 15.6-3.415 6.314-16.263 29.726-22.001 35.417-4.623 4.586-23.185 15.716-34.197 22.145L40.74-254.49l-66.165-143.028H-40.85l28.111 60.787-102.987-9.148a63789.082 63789.082 0 0 1 34.43-51.639h-16.82a18657.598 18657.598 0 0 0-30.666 46.017l8.665-46.017h-2.857l-6.134 32.605-55.129-14.102 3.81-18.503h-2.857l-10.408 50.533-61.425-16.038 2.555-34.495h-2.811l-2.625 35.44v.046l-4.043 92.195a1.397 1.397 0 0 0 1.046 1.406l25.927 6.567-54.944 36.201-42.375-123.442c5.251-6.89 17.262-24.472 24.463-48.437H-322.7c-6.807 20.163-17.029 34.934-21.118 40.326l-9.269-16.153c-.209-.369-.558-.599-.976-.692a1.493 1.493 0 0 0-1.162.3l-19.166 16.153-51.319-39.91h-4.531l53.713 41.8-52.597 44.311-1.998-39.288a1.38 1.38 0 0 0-1.046-1.267l-16.007-4.01a1.484 1.484 0 0 0-.836.046l-32.176 11.914-50.971-4.54 10.571-39.427h19.793c.627 0 1.185-.437 1.348-1.037l2.253-8.502h-2.904l-1.789 6.774h-19.654l-15.844-3.295.674-3.479h-2.858l-.557 2.903-13.963-2.903h-13.66l27.111 5.622-8.2 42.33-27.577 13.204-16.959-3.295v2.834l15.589 3.042-2.928 23.411-12.661-3.272v2.881l3.554.921-3.554 37.422v29.657l2.416-25.44 48.926 9.563-4.274 47.561-47.068-1.567v2.788l48.299 1.613h.047l51.087-.783 8.456 53.967c-38.286-3.249-79.593-14.725-107.889-23.965v14.678a675.564 675.564 0 0 0 21.536 6.498c41.213 11.706 76.758 17.605 105.961 17.605 4.391 0 8.642-.138 12.731-.391 10.71-.692 21.652-2.581 32.548-5.254l45 10.761-4.902 29.818c-18.679-3.918-40.795-9.771-41.121-9.84a1.192 1.192 0 0 0-.255-.046l-39.843-2.788c-.209 0-.418.023-.604.092l-101.361 39.127-29.69-31.914v4.101l27.855 29.956-1.185 29.45c0 .207.023.39.093.575l17.54 42.976-2.369 10.922-41.934-90.03v33.137l43.351 93.117c-5.367 3.203-10.013 5.99-13.823 8.272l-29.528-20.347v16.914l20.56 14.171-10.524 24.103c-2.509-5.83-5.831-11.82-10.036-17.789v31.108c.79 2.581 1.44 5.093 1.928 7.581.047.415.116.83.256 1.245 3.113 16.844-.14 30.647-2.184 37.03v22.997l10.338-11.89a6.59 6.59 0 0 0 1.115-1.752c.581-1.336 9.177-21.407 4.763-47.699l18.609-42.606c4.716-2.835 9.548-5.715 14.45-8.665l42.282 90.836-32.711 12.121a1.433 1.433 0 0 0-.906 1.106l-3.392 22.467-16.843 37.813-27.994 14.195c-.651.323-.929 1.106-.651 1.774l69.626 164.459 11.849 27.951c-6.133 2.765-12.081 5.484-17.866 8.111l-72.669-168.376v7.052l70.137 162.522c-3.508 1.59-6.923 3.157-10.292 4.678l-59.845-140.056v7.121l57.313 134.087c-7.666 3.503-14.961 6.821-21.815 9.955l-21.048-54.013c-.279-.715-1.092-1.06-1.812-.807-.72.277-1.092 1.083-.813 1.798l21.118 54.174a8536.92 8536.92 0 0 0-32.943 15.093v15.324c10.083-4.632 22.907-10.531 37.984-17.421l18.121 46.501c-19.004 8.226-37.357 16.176-54.014 23.366l-2.091-6.153v10.07a2.85 2.85 0 0 1 .395-.161l39.355 116.367-39.75 16.384v3.018l40.633-16.752 30.689 90.744Zm272.673 3.041-1.626-29.748 14.984-2.305 2.44 31.224-15.798.829ZM148.466-377.241l25.579-7.166 25.415 40.625-29.667 16.384-21.327-49.843ZM-372.765 698.594l-147.639 52.031-30.735-90.882 44.884-18.503a1.4 1.4 0 0 0 .766-1.798l-9.409-24.034c-.023-.069-.069-.115-.116-.184l119.97-42.584 4.948-1.751c-1.882 27.951 4.461 67.885 17.331 127.705Zm875.216-954.697a1.367 1.367 0 0 0-.604-1.268 1.418 1.418 0 0 0-1.417-.092l-21.025 10.324c-.906-16.292-1.696-39.197-2.347-63.346l65.631 1.636.58 3.526c-.139 1.498-1.068 11.66-1.231 26.2 0 .092-.023.161 0 .253-.07 7.466.07 16.084.627 25.278 0 .024-.023.07-.023.093 0 .069.023.115.047.184.813 13.296 2.532 27.744 5.761 41.639 3.485 14.932 12.406 46.731 22.698 82.171l-80.406 14.08c-.163-2.259-.325-4.54-.488-6.821l12.197-133.857Zm-13.428 116.552c-2.788-37.768-5.831-75.006-7.783-86.158-.581-3.365-1.138-9.84-1.649-18.458l19.863-9.747-10.431 114.363ZM685.077-274.63l4.275 38.897-30.341-9.31v-32.49l26.066 2.903Zm-26.066-5.738v-39.472l21.559 4.309 4.182 38.067-25.741-2.904Zm-34.523 121.806-7.318-21.177 77.85-4.608 1.231 11.222-71.763 14.563Zm72.065-11.821 1.348 12.144-64.259 26.107-8.225-23.803 71.136-14.448Zm-80.335-12.098-3.485-10.069c-.256-.738-1.046-1.107-1.789-.853a1.375 1.375 0 0 0-.86 1.774l21.397 61.848c.116.369.395.645.743.806.186.093.372.116.581.116.186 0 .372-.047.535-.093l64.886-26.361.023.323c-7.55 27.329-18.028 56.847-25.299 68.922L592.846-65.56c-16.634-56.064-36.125-122.935-41.678-146.761-3.09-13.25-4.762-27.03-5.599-39.796h38.472c.767 0 1.394-.622 1.394-1.382v-11.199l25.881 7.95-12.824 38.366c-.233.738.162 1.521.882 1.752.14.046.302.069.442.069.581 0 1.138-.369 1.324-.945l12.824-38.413 13.986 4.286v36.823c0 .76.627 1.383 1.394 1.383h62.424l2.904 26.338-78.454 4.608ZM756.376-45.49l-7.365-16.936a1.39 1.39 0 0 0-1.789-.738l-13.474 5.208a1.352 1.352 0 0 0-.883 1.175l-1.951 24.403-38.844 10.461a1.358 1.358 0 0 0-.999 1.613l5.227 25.394c.139.668.72 1.106 1.371 1.106.093 0 .186 0 .278-.023l65.027-13.135c.371 10.784.673 19.61.836 24.403-31.781-.553-69.185-1.774-75.341-5.093-8.34-4.516-54.526-42.376-83.682-66.663l155.027-39.68c.372 10 1.045 28.458 1.766 47.745l-5.204.76Zm5.273 2.051c.418 11.637.86 23.389 1.208 33.666l-64.12 12.95-4.669-22.743 38.518-10.347a1.376 1.376 0 0 0 1.022-1.22l1.952-24.519 11.383-4.4 7.249 16.682c.255.576.883.922 1.487.83l5.97-.899ZM872.28 467.68v.277c.348 15.784-.674 29.656-1.162 34.104a1307.409 1307.409 0 0 1-20.305-6.038c.024-.115.047-.207.024-.322l-4.717-38.736a1.403 1.403 0 0 0-1.556-1.221c-.767.092-1.324.783-1.231 1.544l4.6 37.837c-18.144-5.6-43.374-13.803-65.514-22.467 10.431-11.384 18.074-18.942 21.768-21.131 10.71-6.383 35.731-15.623 62.563-24.61 3.787 11.568 5.204 26.868 5.53 40.763Zm-2.881-41.639c26.577-8.848 54.525-17.351 71.926-22.536l-66.374 61.226c-.464-13.365-1.974-27.675-5.552-38.69Zm-386.416 66.387c-.21-.691-.953-1.106-1.65-.944l-22.233 5.231a1.384 1.384 0 0 0-1.069 1.566l2.974 18.204-18.957 5.946-11.5-35.948 68.813-16.959 4.972 31.615-16.425 6.774-4.925-15.485Zm2.3 16.476-21.56 6.752-2.695-16.522 19.701-4.632 4.554 14.402Zm-27.461 62.816-6.899-21.569 60.658-16.153 6.064 22.375-59.823 15.347Zm60.543-12.674 8.015 29.564-62.494 13.665-5.39-27.859 59.869-15.37Zm-62.843 14.609 5.669 29.403-50.39 19.472-35.127-40.326 58.429-75.397 5.691 17.79v.046l7.969 24.886v.023c0 .023.023.023.023.023l7.736 24.08Zm-47.114 50.349-38.333 32.192-28.273-30.325 32.13-41.455 34.476 39.588ZM433.08 503.58l-93.206 120.262-55.292-59.29 119.226-113.809 18.168 19.494-38.356 44.058a1.38 1.38 0 0 0 .139 1.959 1.407 1.407 0 0 0 1.975-.138l37.543-43.137 9.803 30.601Zm-152.331 60.788-10.942 10.438-29.505-34.08 43.606-42.837 30.504 34.311-31.805 30.371a1.434 1.434 0 0 0-1.556.23 1.408 1.408 0 0 0-.302 1.567ZM60.185 549.597a1.432 1.432 0 0 0-1.882.646l-12.498 25.301-14.613 1.82-11.826-18.503 16.913-20.532h25.857c.767 0 1.394-.622 1.394-1.382 0-.761-.627-1.383-1.394-1.383H37.023v-19.84l22.349 3.18c.07 0 .14.023.209.023.372 0 .72-.138.999-.415.302-.299.465-.737.395-1.175L56.7 486.206a1.362 1.362 0 0 0-.883-1.106l-18.539-7.19 12.964-54.289 11.546 3.019a1.405 1.405 0 0 0 1.673-.853l16.285-43.482 2.718 3.18c.024.023.07.046.093.069.024.023.024.069.047.092l120.295 100.836-31.317 29.426-74.319-63.621a1.407 1.407 0 0 0-1.975.138L82.464 466.85a1.377 1.377 0 0 0 .117 1.958c.58.507 1.463.461 1.974-.115l11.918-13.388 32.2 27.583-15.357 14.632a1.378 1.378 0 0 0-.046 1.959l35.893 37.514-17.424 16.36-34.453 32.376-15.402-17.789a1.431 1.431 0 0 0-1.975-.162 1.404 1.404 0 0 0-.163 1.959l15.496 17.904-18.586 17.444-28.273-28.412 12.406-25.094c.395-.83.093-1.659-.604-1.982Zm-281.664-62.377 8.619 37.998-11.012 4.148-13.381-37.676 15.774-4.47Zm-18.004 2.212-51.97 14.31-12.104-41.547a1.405 1.405 0 0 0-1.092-.991l-16.959-2.972a75.025 75.025 0 0 0-1.092-7.282 38.431 38.431 0 0 0-.767-3.042l86.841-27.398 14.52 63.991-17.377 4.931Zm7.666-73.093a2.713 2.713 0 0 0-1.347-1.797c-.233-.138-.488-.184-.72-.23l-5.506-18.297 71.345-23.849 22.558 67.447-16.169 6.429c-.651.253-1.023.968-.837 1.636l18.377 68.622-63.377 7.19-24.324-107.151Zm99.781-45.164 20.235-7.881 26.066 52.492-25.415 10.116-20.886-54.727Zm18.284 55.764-29.156 11.591-18.679-55.88 26.949-10.484 20.886 54.773Zm-48.718-46.916-3.368-10.092-5.018-14.978 46.975-15.992 10.849 21.845-49.438 19.217Zm2.974 68.116 75.016-29.841 30.62 61.663 2.416 17.282-41.516 7.236c-.093.023-.209.046-.302.092l-19.491 8.134-28.576 3.249-18.167-67.815Zm77.618-30.878 66.35-26.407.116 1.82-21.164 101.989-12.104 2.12-2.44-17.421a1.219 1.219 0 0 0-.139-.415l-30.62-61.686Zm46.487 80.029 14.543 2.373 5.808 9.332-19.724 10.37h-.023l-35.22 19.448-20.42-31.937 55.036-9.586Zm-34.22 44.496 35.08-19.356 18.492 27.859-47.974 23.319-15.728-21.776 10.13-10.046Zm37.542-20.693 18.516-9.724 24.277 38.92-23.952-.784-18.84-28.412Zm21.002-11.038 10.57-5.553c.418-.23.697-.645.744-1.106l2.485-28.55 19.77-8.457a1.383 1.383 0 0 0 .744-1.821 1.402 1.402 0 0 0-1.835-.737L.874 472.61a1.41 1.41 0 0 0-.836 1.153l-2.51 28.619-10.059 5.277-6.25-10.024a1.388 1.388 0 0 0-.952-.645l-13.962-2.281 21.094-101.666c.024-.115.024-.231.024-.369l-.186-3.272a1.35 1.35 0 0 0 .093-1.198c-.047-.115-.116-.185-.186-.277l-1.417-23.895a1.769 1.769 0 0 0-.163-.6l-17.377-31.315 75.898-9.77 8.224 27.72c.047.185.14.369.28.507l25.136 29.196-16.378 43.759-11.71-3.065a1.343 1.343 0 0 0-1.068.161 1.395 1.395 0 0 0-.65.876L34.35 478.348c-.023.115-.046.208-.046.323v57.723l-16.402 19.932-28.97-46.271Zm252.624-333.617c.255.438.72.691 1.208.691.232 0 .464-.069.697-.184l.58-.346c2.138 2.858 4.275 5.715 6.296 8.457-.302 0-.604.069-.859.277l-33.338 25.6-17.099-24.425c12.847-15.393 23.766-28.804 27.298-33.136a1866.396 1866.396 0 0 1 15.983 20.992l-.302.161a1.464 1.464 0 0 0-.464 1.913Zm9.664 11.107c.232-.185.372-.438.465-.692 8.642 11.729 15.565 21.569 16.541 24.127-2.416 2.534-17.238 14.586-32.99 27.213l-17.47-24.955 33.454-25.693Zm-18.167 52.4c-7.04 5.622-14.149 11.291-20.352 16.176a1.409 1.409 0 0 0-.232 1.959c.279.345.674.53 1.092.53.302 0 .604-.093.883-.3 12.894-10.185 55.083-43.667 56.477-46.247.418-.761 1.347-2.604-24.394-36.846l32.757-18.642 3.346 9.056c.255.714 1.068 1.083 1.788.829a1.4 1.4 0 0 0 .837-1.774l-3.926-10.6a1.355 1.355 0 0 0-.837-.829 1.515 1.515 0 0 0-1.185.092l-18.655 10.6-4.832-8.941 24.951-16.268a1.375 1.375 0 0 0 .395-1.936 1.4 1.4 0 0 0-1.952-.392l-26.019 16.96a1.379 1.379 0 0 0-.465 1.82l5.483 10.139-13.428 7.628a2491.842 2491.842 0 0 0-17.006-22.237l3.996-53.068 62.726-47.192 35.731 70.604 16.611 72.931-13.823 2.442a1.413 1.413 0 0 0-.651.3L212.4 296.723l-100.152 38.643-8.364-33.528a1.384 1.384 0 0 0-1.161-1.037l-54.13-7.558 4.344-53.805c21.28 4.562 51.714 10.185 72.646 10.185 9.827 0 17.54-1.245 21.257-4.401 8.851-7.559 31.317-33.759 50.32-56.479l35.894 51.202Zm-29.482-138.466-34.685-27.467c19.933-13.32 52.62-35.21 79.384-53.368l25.88 27.72-70.579 53.115Zm459.69 287.577.488 35.026c-.046-.046-.093-.069-.139-.115-69.603-58.898-111.606-94.177-130.215-109.755l23.836-31.177 65.212 33.574c.209.115.418.161.65.161.511 0 .999-.276 1.255-.76.348-.691.093-1.521-.604-1.867l-99.108-51.017-13.846-63.115 25.857-28.504 99.526 31.984-13.057 42.122a1.365 1.365 0 0 0 .93 1.729c.139.046.279.069.418.069.604 0 1.161-.392 1.347-.991l13.173-42.446H671.3l-9.827 55.419 1.789 129.663Zm-457.343 96.228-18.051-15.139 82.775-74.36c.302-.254.465-.645.465-1.037v-34.933l54.246-32.698c.163-.093.302-.231.418-.392L343.73 301.7l25.765-5.83 26.043 7.42 2.718 11.245v.023l13.149 54.22-105.984 104.086v.023l-67.907 66.687-32.408 27.236-9.642-30.324c-.069-.254-.232-.461-.418-.645l-21.28-18.204 32.246-30.302c.278-.277.441-.645.441-1.037a1.56 1.56 0 0 0-.534-1.014Zm167.037-352.973 10.64 29.057-39.633 6.913-6.342-27.813 35.335-8.157Zm-35.963 5.461-3.694-16.246 32.084-9.885 6.597 18.02-34.987 8.111Zm47.556 26.246 15.774 43.09-44.14 8.849c-.604.115-1.022.622-1.092 1.198L344.567 171l39.982-6.982Zm12.429 112.796-33.756-29.887 47.695-10.9 11.198 30.579-25.137 10.208Zm26.136-7.605 13.707 33.505-36.196 9.747-2.532-10.438v-22.675l25.021-10.139Zm-61.797-24.702-6.017-26.43c.256.392.697.622 1.162.622.092 0 .185 0 .278-.023l44.559-8.941 8.666 23.642-48.648 11.13Zm-4.042-5.046-29.528 14.333-5.297-6.383c-.488-.599-1.371-.669-1.975-.185-.604.484-.673 1.36-.186 1.959l6.018 7.212c.278.323.673.507 1.068.507.209 0 .418-.046.627-.138l29.923-14.54.86 3.779-11.221 22.306-64.585 34.449-13.986-23.803 9.456-5.254a1.43 1.43 0 0 0 .674-.876c.092-.369.023-.76-.163-1.083l-10.687-16.983a1.596 1.596 0 0 0-.511-.46l66.234-55.212 13.568-2.396 9.711 42.768Zm-81.498 32.537-9.409 5.23a1.473 1.473 0 0 0-.674.853c-.092.369-.046.737.14 1.06l14.659 24.933-28.9 15.415c.209-.414.232-.898-.024-1.336l-19.677-32.79c-.163-.277-.441-.461-.72-.576l34.592-28.827c.023.092.047.207.116.299l9.897 15.739Zm-26.624 47.56c.233.392.628.6 1.069.646l-147.453 78.623-17.726-14.863 6.226-37.468 122.432-47.238a1.38 1.38 0 0 0 .395-.231l15.217-12.674c.024.162.07.3.163.461l19.677 32.744Zm100.13-49.012c.255-.138.465-.346.581-.599l10.826-21.499 34.592 30.624v21.292l-25.392-7.236a1.432 1.432 0 0 0-.697-.023l-26.624 6.037a1.46 1.46 0 0 0-.836.553l-18.098 25.232-54.665 32.952a1.381 1.381 0 0 0-.674 1.198v35.095l-82.589 74.199-80.638-67.586 244.214-130.239Zm-21.977 184.736 14.032 16.245-19.027 17.306-14.009-14.886 19.004-18.665Zm-21.002 20.624 14.892 15.83c.278.3.65.438 1.022.438.348 0 .673-.115.952-.369l19.98-18.158 14.752 17.052-41.469 39.588-30.527-34.334 20.398-20.047Zm22.999-22.583 40.168-39.449 22.628 24.264 9.827 10.531-41.98 40.072-30.643-35.418Zm42.143-41.408 40.935-40.21 13.59 34.403-32.78 29.173-21.745-23.366Zm29.83-96.735 36.59-9.862 17.866 43.666-41.841 18.297-12.615-52.101Zm24.44-46.961 25.857-9.079 29.69 78.692-22.953 10.046-32.594-79.659Zm28.482-10.001 14.102-4.954 30.132 77.056-14.613 6.406-29.621-78.508Zm16.75-5.899 16.1-5.646 23.929 65.719a6.834 6.834 0 0 0 2.091 2.95c.093.069 2.3 1.912 6.737 5.622l-18.771 8.203-30.086-76.848Zm51.204 70.65c17.307 14.494 59.845 50.211 132.375 111.551a836.066 836.066 0 0 0 9.153 7.581l-1.184 42.63-151.751-136.737-8.573-16.292 19.98-8.733Zm115.997-121.783-101.501-32.629a1.401 1.401 0 0 0-1.463.392l-26.949 29.703a1.37 1.37 0 0 0-.326 1.221l14.149 64.451c.093.392.348.738.72.945l31.967 16.453-23.464 30.67c-3.717-3.111-6.296-5.277-7.76-6.498l-49.763-136.692a15.222 15.222 0 0 0-.394-.898l-14.892-27.836 57.592-39.726h49.182c.766 0 1.394-.623 1.394-1.383V34.262l49.902-11.429 18.748 51.547c.07.185.163.323.279.461l27.948 30.094 3.694 60.281c.023.415.232.784.557 1.037l11.314 8.365 4.135 26.568h-45.069ZM460.726 174.41l25.346 69.636-16.146 5.669-59.427-151.969 10.687-3.295c6.017 15.231 12.893 30.14 20.653 44.611l18.887 35.348Zm6.575 76.25-14.079 4.954-57.801-153.19 12.406-3.825 59.474 152.061Zm-16.704 5.876-25.88 9.102-56.639-154.804 24.672-7.604 57.847 153.306Zm-83.518-148.305-33.571-86.458c8.829-5.461 16.913-9.24 24.231-11.291l34.012 90.167-24.672 7.582Zm-2.672.829-32.037 9.863-35.522-70.167 31.062-23.365c1.068-.738 2.137-1.406 3.182-2.097l33.315 85.766ZM101.468 303.428l8.224 32.952-20.188 7.788a1.42 1.42 0 0 0-.883 1.06l-5.97 36.109-27.786-32.283-8.41-28.32 1.998-24.679 53.015 7.373ZM37.023 480.745l17.006 6.59 3.902 28.504-20.908-2.972v-32.122Zm132.538 37.007-18.307 17.213-34.941-36.5 14.544-13.849 38.704 33.136Zm-72.437 71.871 13.149 15.209c.232.276.581.46.953.483l10.617.853h.116c.72 0 1.324-.553 1.394-1.267.069-.761-.511-1.429-1.278-1.498l-10.036-.807-12.87-14.862 33.546-31.523 17.47 18.158c.279.276.651.437 1.023.437.348 0 .697-.138.975-.391.558-.53.581-1.406.047-1.959l-17.471-18.158 36.939-34.703 21.188 18.135 9.873 31.062-90 75.628-34.105-37.422 18.47-17.375Zm65.862 16.222 27.437 29.449-14.241 10.462-6.853-8.157a1.36 1.36 0 0 0-1.069-.507c-.465.023-.813.184-1.069.484l-21.071 24.402-18.772-26.177 35.638-29.956Zm2.138-1.797 38.541-32.398 13.893 43.735-24.858 18.25-27.576-29.587Zm40.865-34.334 32.245-27.099 29.551 34.127-7.991 7.627-39.866 29.265-13.939-43.92ZM404.877 447.77l-9.758-10.461 31.968-28.436 15.077 38.16-18.33 21.061-18.957-20.324Zm24.115-41.685c0-.023-.024-.046-.024-.069l-14.264-36.039 42.003-18.366 27.879 83.301-39.959 10.738-15.635-39.565Zm30.271-55.603 23.092-10.093 41.492 83.969-36.543 9.817-28.041-83.693Zm25.648-11.222 14.659-6.406 8.759 16.66c.069.139.185.277.302.392L627.834 457.31l-18.632 23.872-51.529-40.44c-.604-.484-1.487-.369-1.975.23-.487.599-.371 1.475.233 1.959l103.521 81.227-34.801 6.521-89.071-83.301-8.434-22.605c0-.023-.023-.046-.046-.069 0-.023 0-.046-.023-.069l-42.166-85.375Zm176.423 187.363-1.952 70.351c-3.647 4.47-7.341 9.01-11.035 13.595l-16.75-12.95-5.831-64.336 35.568-6.66Zm-49.879-43.735 18.516-23.712 32.432 29.219-.93 33.735-50.018-39.242Zm53.666 7.973 46.835 42.191c-15.356 18.389-32.083 38.736-49.693 60.35l2.858-102.541Zm.093-3.664 1.184-42.906c26.764 21.43 52.76 38.274 77.014 51.547-9.107 10.577-19.05 22.329-29.69 35.071l-48.508-43.712Zm73.877-36.109c-17.075-12.973-40.423-33.389-56.198-47.468.116-.046.256-.093.349-.185l9.525-7.581 33.152 7.719 19.538 33.736-6.366 13.779Zm8.782-12.305 40.888 7.558c-5.158 4.839-11.918 11.868-20.003 20.762-11.36-4.885-21.071-9.793-27.367-14.31l6.482-14.01Zm-9.084 15.577c6.319 4.747 16.286 9.863 27.971 14.932a1352.428 1352.428 0 0 0-13.869 15.623c-26.996-14.471-56.337-33.504-86.33-58.506l-.488-34.196c9.92 9.01 48.346 43.828 72.716 62.147Zm17.308 48.183c43.699 22.26 80.754 32.791 104.66 37.722-1.255 4.516-2.556 9.217-3.88 13.941l-116.903-32.721a2613.164 2613.164 0 0 1 16.123-18.942Zm-18.121 21.269 33.64 9.425-4.135 14.217-39.797-11.406c3.508-4.148 6.947-8.249 10.292-12.236Zm36.358 10.185 81.776 22.882c-1.394 4.977-2.764 9.955-4.112 14.771l-81.823-23.435 4.159-14.218Zm84.843 22.306c.023 0 .023 0 0 0 1.463-5.254 2.904-10.485 4.298-15.485.72.138 1.417.276 2.091.415 20.281 4.724 34.127 8.48 43.652 12.189l-64.329 54.221c2.533-9.033 8.457-30.348 14.288-51.34Zm5.32-29.611c-4.275-.967-8.782-1.981-13.521-3.041-21.466-5.415-51.18-15.07-85.354-32.099a1361.772 1361.772 0 0 1 14.752-16.614c36.614 14.448 81.707 27.467 90.186 29.887a13795.1 13795.1 0 0 1-6.063 21.867Zm-67.535-87.056c-1.441.875-3.346 2.35-5.622 4.355l-43.398-8.019-19.886-34.311a1.434 1.434 0 0 0-.883-.668l-34.406-8.019c-.419-.093-.86 0-1.208.276l-10.06 8.019a1.29 1.29 0 0 0-.441.714 1767.568 1767.568 0 0 1-15.031-13.595l-1.812-128.765 9.896-55.649h10.687l120.225 1.567c6.877 30.21 14.729 64.567 23.604 103.395 5.436 23.803 9.037 39.518 9.502 41.592 1.765 7.996 15.797 48.068 21.489 64.129-26.647 9.01-51.412 18.296-62.656 24.979ZM769.827 23.11c6.505.092 13.149.184 19.886.276 13.614.161 24.394.3 28.413.576.256.023.511.023.813.023 16.123 0 108.609-24.748 135.047-31.914l28.785 124.34c.023.138.092.253.116.369.023.092.023.161.046.253l42.147 126.161-194.757 47.86c-19.724-86.319-56.64-247.897-60.496-267.944ZM895.186 1.818c-34.778 8.871-69.649 17.12-76.665 16.59-4.182-.299-15.031-.437-28.738-.598-5.994-.07-12.963-.162-20.374-.277-.535-17.559-3.229-90.444-4.066-112.957l85.284-21.822 23.627 8.526 20.956 63.691V1.818h-.024Zm-90.767 200.935-118.366-1.544-4.298-27.559a1.294 1.294 0 0 0-.558-.899l-11.244-8.318-3.694-60.12a1.3 1.3 0 0 0-.372-.852l-28.11-30.256-19.074-52.377c-.302-.968-9.92-32.79-21.931-73.07l1.301-.322c17.936 14.955 77.316 64.244 87.654 69.844 7.016 3.802 39.262 5.092 78.385 5.783 1.928 10.37 13.985 64.245 40.307 179.69ZM680.245-87.981c9.083-17.121 18.097-46.777 22.349-61.848l50.018 43.321-72.367 18.527Zm-90.117 23.066-10.872 2.788-84.263 9.632c-.72-11.268-2.253-34.334-4.065-60.188l80.986-14.195c5.924 20.393 12.267 41.87 18.214 61.963Zm-44.071-240.708-.534-3.18 56.105 1.383 43.304 23.112-16.634 29.795-13.428-4.125 3.857-11.545c.232-.737-.163-1.52-.883-1.751a1.39 1.39 0 0 0-1.766.876l-3.88 11.614-67.349-20.693c.186-14.886 1.185-24.91 1.208-25.14a.876.876 0 0 0 0-.346Zm84.982 51.962 16.379-29.333 8.805 4.7v32.353l-6.459-1.982c-.023 0-.046-.023-.069-.023l-18.656-5.715Zm18.261 37.399h-18.516v-34.564l17.122 5.253 1.394 29.311Zm-66.676-49.358v10.669h-37.241a364.432 364.432 0 0 1-.58-22.283l37.821 11.614Zm88.374 49.358v-22.213l18.702 5.737 1.812 16.476h-20.514Zm-2.741-23.066c-.023.115-.07.208-.07.323v22.743h-16.076l-1.371-28.435 17.517 5.369Zm-12.034-42.123-52.899-28.227-1.952-18.25 52.226-7.628 2.625 10.324v43.781Zm-55.153-49.266-1.998-18.734 48.183-11.129 5.669 22.282-51.854 7.581Zm-.627 20.486-55.362-1.383-4.042-24.449 55.269-12.765 4.135 38.597Zm-58.219-1.452-65.259-1.613-.418-16.407 61.728-5.761 3.949 23.781Zm39.146 263.29c.325-.046.627-.092.952-.184l11.802-3.02a17632.178 17632.178 0 0 0 21.536 71.78L564.898 31.82a1.408 1.408 0 0 0-1.092 1.36v64.796h-48.229a1.4 1.4 0 0 0-.79.254l-57.662 39.795-2.904-5.438c-15.24-28.481-27.088-58.667-35.219-89.683-8.038-35.095-8.549-56.94-1.533-66.756 3.066-4.31 7.968-6.706 15.449-7.558L581.37-48.393ZM420.187 91.87l-25.741 7.927-33.965-90.03c7.527-1.705 14.194-1.497 19.933.646 14.287 5.323 21.489 22.444 24.997 35.855a422.724 422.724 0 0 0 14.776 45.602ZM398.86 5.712c-4.089-3.687-8.596-6.498-13.521-8.319-5.204-1.935-10.803-2.788-16.797-2.58l29.598-22.26 5.599-.645c-4.182 8.042-5.808 19.033-4.879 33.804Zm-122.456 40.97-25.787-27.628c23.046-15.646 41.144-28.159 41.817-29.31 1.069-1.798 4.647-12.651 6.993-19.933 20.491 1.129 47.928 1.429 70.602 1.429h6.668L276.404 46.683ZM290.111-11.8c-1.278 1.36-18.516 13.227-41.445 28.781l-44.908-48.09-2.997-16.66c28.111 6.59 63.121 14.217 82.427 16.36 3.833.414 8.364.783 13.335 1.083-2.695 8.341-5.692 17.282-6.412 18.526Zm-89.024-18.411c.046.253.162.507.348.691l9.734 10.416L183.151-8.09l-19.863-48.736a2771.64 2771.64 0 0 0 34.5 8.365l3.299 18.25ZM180.55-7.077l-56.849 22.329-2.834-4.47 13.126-54.636 26.112-13.41L180.55-7.078Zm32.64-9.84 33.129 35.487c-24.626 16.683-55.199 37.215-79.732 53.621l-20.165-16.406.093-2.097a6.853 6.853 0 0 0-1.069-4.033l-20.258-32.007 88.002-34.564Zm-66.931 76.158 19.376 15.761 35.614 28.205-59.427 44.704 4.437-88.67Zm82.613 40.648-3.81 50.718c-4.577 5.645-64.538 79.337-79.964 92.518-10.013 8.549-56.733 1.198-92.65-6.591a1.564 1.564 0 0 0-.58-.184c-.07 0-.116.023-.186.023a642.578 642.578 0 0 1-7.457-1.659c5.11-1.636 8.015-2.581 8.294-2.65a6.678 6.678 0 0 0 2.09-1.083L228.872 99.889ZM50.242 238.862l-2.37 29.218-76.293 8.849-5.042-16.752a8052.6 8052.6 0 0 1 72.577-23.804c3.206.714 6.946 1.567 11.128 2.489Zm-80.987 39.979c.186.599.72.991 1.348.991h.162l76.898-8.917-3.926 48.736-77.06 9.908-32.502-58.529a5966.933 5966.933 0 0 1 29.737-9.955l5.343 17.766Zm13.66 85.698 1.395 23.388-67.42 26.822-58.497-117.796a7679.664 7679.664 0 0 1 73.087-25.048l51.436 92.634Zm-108.051-28.09-46.603 15.854-13.382-40.003a6486.69 6486.69 0 0 1 40.842-14.402l19.143 38.551Zm-48.81 18.066 5.018 14.978-71.252 23.826-16.518-54.865c22.488-8.434 45.743-16.914 68.975-25.209l13.777 41.27Zm-62.75 60.188-88.443 27.882c-4.275-12.95-13.475-36.892-25.393-66.917 26.786-11.452 58.057-23.78 91.162-36.223l22.674 75.258Zm-193.173 55.741c18.051-7.926 32.548-14.355 44.164-19.563l12.917 39.403-43.026 19.771-14.055-39.611Zm20.328 65.627-15.194 5.369-8.386-20.186 15.728-7.373 7.852 22.19Zm-8.805-24.817-17.191 8.065a1.403 1.403 0 0 0-.697 1.797l9.409 22.628c.232.53.743.853 1.3.853.163 0 .326-.023.465-.069l16.448-5.807 11.291 31.799-45 15.969-22.93-61.986-12.267-33.182a18573.377 18573.377 0 0 0 45.117-19.724l14.055 39.657Zm3.485 1.451 42.979-19.748 8.271 25.233c-1.069.921-2.138 1.82-3.276 2.742-13.637 10.807-21.002 25.071-22.977 46.939l-4.809 1.705-20.188-56.871Zm45.534-20.923 32.85-15.093c-2.95 14.01-11.314 27.352-24.835 39.496l-8.015-24.403Zm-.882-2.673-12.917-39.38c22.581-10.116 33.709-15.37 39.215-18.227 4.066 10.945 6.83 19.01 7.481 22.167a56.75 56.75 0 0 1 .534 19.679l-34.313 15.761Zm25.369-60.096c-6.435 3.249-20.444 9.678-39.146 18.043l-16.216-49.451c11.732-5.23 23.65-10.53 35.708-15.876.371-.162.766-.346 1.161-.507 6.97 17.697 13.568 34.61 18.493 47.791Zm-25.393-59.958a18305.3 18305.3 0 0 0-59.38 26.453l-8.294-22.743c-.256-.668-.976-1.06-1.673-.876l-12.522 3.295-52.922-123.303 48.206-24.31c4.739 3.756 10.338 8.111 16.797 13.111 11.407 8.872 26.809 20.808 30.434 24.38 1.417 4.263 5.9 15.485 20.072 50.74 6.133 15.278 13.614 33.874 21.002 52.446-.558.3-1.139.577-1.72.807Zm-32.547 29.726 16.215 49.45c-12.94 5.784-27.971 12.42-44.233 19.587l-17.285-48.737c14.613-6.59 29.76-13.365 45.303-20.3Zm-30.597 70.143a16190.999 16190.999 0 0 1-45.139 19.747l-17.726-47.883a24624.635 24624.635 0 0 1 45.581-20.577l17.284 48.713Zm-35.01 55.165-23.07 8.019-11.778-29.611c5.111-2.235 10.245-4.447 15.379-6.682 2.625-1.152 5.204-2.258 7.737-3.364l11.732 31.638Zm-25.184 10.277c.209.553.744.876 1.301.876.163 0 .302-.024.465-.07l24.37-8.456 7.806 21.061-22.744 9.678a1.383 1.383 0 0 0-.743 1.82c.232.53.743.853 1.277.853.186 0 .372-.046.558-.115l22.605-9.632 13.706 37.03-54.478 19.333c-.024-.115-.024-.23-.07-.346l-35.173-90.259c9.409-4.079 19.096-8.273 28.877-12.536l12.243 30.763Zm177.562 83.416-10.989-38.229 12.243-6.129 11.57 37.399-12.824 6.959Zm30.736-16.66-15.403 8.364-11.43-36.984c-.047-.115-.116-.207-.163-.299l12.847-6.429 14.149 35.348Zm-43.7-23.666c-2.811-.023-21.838.093-47.416 7.628-.743-28.113 5.25-42.999 18.237-53.299 31.247-24.794 37.984-50.718 36.776-70.673l15.38 2.696 25.95 89.108-48.927 24.54Zm71.88-35.555c-.023 0-.047.023-.07.046h-.046l-20.282 9.724-13.172-45.256 50.692-13.941 13.474 37.905-30.596 11.522Zm23.836 20.024a1.344 1.344 0 0 0-.395-1.613l-20.212-16.637 41.608-15.692 21.792 96.066-32.966 8.019-33.175-16.775 23.348-53.368Zm-46.232 105.653 21.769-49.75 32.245 16.314-22.86 45.741-31.154-12.305Zm55.106 50.234-3.322-29.012a1.355 1.355 0 0 0-.883-1.129l-17.145-6.774 23.093-46.202 32.78-7.973 19.073 84.131-53.596 6.959ZM5.474 661.149c-.116.023-.21.046-.325.092l-49.415 20.024c0-.161-.023-.322-.093-.484l-9.083-23.181a1.407 1.407 0 0 0-1.51-.875l-39.146 5.899-9.943-67.908 12.15-8.849c.488-.346.674-.968.511-1.521l-8.55-27.997a1.39 1.39 0 0 0-1.742-.922c-.743.231-1.161.991-.929 1.728l8.27 27.053-12.034 8.756a1.38 1.38 0 0 0-.557 1.314l10.268 70.12c.047.369.256.691.558.922.302.23.674.299 1.045.253l39.425-5.945 8.689 22.144c.07.185.209.3.348.415l-114.394 46.363-45.906-202.387 94.67-10.739c.139-.023.256-.046.395-.092l18.585-7.765 21.002 32.859-10.338 10.254a1.363 1.363 0 0 0-.14 1.798l17.123 23.688a1.42 1.42 0 0 0 1.138.576c.209 0 .418-.046.604-.138l50.157-24.38 26.183.876 3.972 6.36 12.128 19.01-22.86 16.66-10.71-13.779c-.465-.599-1.348-.715-1.975-.254-.604.461-.72 1.337-.256 1.959l10.664 13.71-12.336 8.987a1.404 1.404 0 0 0-.581 1.129v21.523c0 .345.116.668.348.921l26.438 30.002-11.848 1.821Zm15.17-2.281-27.25-30.947V607.62l37.635-27.445 15.217-1.889L75.68 607.85l34.174 37.491-89.21 13.527Zm159.998 63.944-17.563 20.163-37.566-42.538-29.714-25.693-10.43-22.859 27.46-4.147c.023 0 .046-.023.092-.046.21-.046.395-.116.558-.254.023-.023.046 0 .046-.023l.024-.023 11.616-9.747 19.654 27.398 35.823 57.769Zm-12.22-25.048-20.699-33.389 20.49-23.735 6.645 7.904s.023 0 .023.023v.023l21.141 23.781-27.6 25.393Zm29.668-27.283-20.096-22.605 14.334-10.531 19.283 20.693-13.521 12.443Zm14.961-14.955-18.469-19.84 23.836-17.513 3.926 12.375-9.293 24.978Zm46.278 10.231-8.898 10.6-35.127-18.895 9.595-25.716 35.197-9.102 6.714 8.295-7.481 34.818Zm83.588 88.601-48.531-49.796-6.737-20.347a1.377 1.377 0 0 0-.953-.899l-19.863-5.484-4.716-11.545 7.62-35.394a1.365 1.365 0 0 0-.279-1.152l-7.69-9.494a1.386 1.386 0 0 0-1.44-.484l-35.498 9.172-3.973-12.49 40.795-29.956 20.955-20.024 121.41 130.193-61.1 57.7Zm63.098-59.635-34.035-36.478 38.171-32.053 28.273 37.906-32.409 30.625Zm34.383-32.699-27.785-37.214 49.763-19.241 13.707 15.393-20.259 23.319h-.023l-15.403 17.743Zm77.479 63.254L507.19 699.4c-.116-.299-.348-.53-.627-.691l-64.074-34.864 14.59-16.776 74.714 59.982-13.916 18.227Zm15.612-20.417-74.575-59.865 19.236-22.122 74.017 57.585-18.678 24.402Zm20.351-26.637-72.739-56.594 43.653-10.439 53.201 35.487-24.115 31.546Zm24.602 19.125-22.395-17.42 24.208-31.707 24.486 16.337c-8.712 10.83-17.494 21.799-26.299 32.79Zm28.065-34.979-80.708-53.829a1.562 1.562 0 0 0-1.115-.207l-46.232 11.038-13.01-14.633 63.005-13.756c.372-.092.697-.323.906-.646.21-.322.256-.714.163-1.083l-15.565-57.377a1.433 1.433 0 0 0-1.72-.991l-62.122 16.545-7.155-22.398 44.536-13.964h.046l.093-.023 18.864-7.788c.604-.254.953-.876.837-1.498l-5.39-34.196c0-.023-.023-.046-.023-.046v-.069l-2.695-10.692a1.41 1.41 0 0 0-1.696-1.014 1.396 1.396 0 0 0-1.022 1.682l2.346 9.333-69.092 17.028-4.274-13.342 19.119-21.96 80.429-21.614 8.108 21.73c.07.207.186.391.349.53l89.443 83.646 5.947 65.673c.046.391.232.737.534.967l17.192 13.273c-13.08 16.13-26.485 32.767-40.098 49.681Zm93.392-16.499-19.561 34.542-2.231 4.032-50.994-25.393a11613.358 11613.358 0 0 1 40.865-50.441l37.845 2.903-5.924 34.357Zm-29.783-39.91c18.98-23.274 38.03-46.478 55.64-67.563l42.329 12.121 83.193 23.827c-5.111 18.365-9.409 33.781-10.152 36.477l-9.014 7.604-161.996-12.466Zm160.648 59.543-16.611-26.085 29.157-26.799 68.859-58.022c6.203 2.673 10.268 5.392 13.01 8.503 7.899 9.009 48.787 53.506 64.654 70.742l-92.393 92.264-66.676-60.603Zm94.879 86.296-26.159-23.803 18.423-18.389 26.717 21.868-18.981 20.324Zm20.886-22.352-26.647-21.821 17.749-17.72 32.153 14.678-23.255 24.863Zm-6.807-41.615 51.97-51.893c1.789 1.935 3.136 3.41 3.833 4.17 1.51 2.558 6.485 10.992 13.405 22.629l-22.117 46.593-47.091-21.499Zm75.918-41.201c-2.99-5.07-5.83-9.84-8.38-14.195-.26-.415-.54-.829-.89-1.175-.09-.115-1.88-2.051-4.78-5.208l.39-.392 18.87 7.605-5.21 13.365Zm7.81-12.328 19.42 7.811c-.02.046-.07.092-.09.138l-11.71 30.302a6204.26 6204.26 0 0 1-13.61-22.882l5.99-15.369Zm12.52 97.449-46.601-21.269 21.301-44.865a7930.44 7930.44 0 0 0 30.81 51.363c-1.79 4.793-3.65 9.747-5.51 14.771Zm11.76-31.477c-4.97-8.25-9.97-16.568-14.82-24.679l12.52-32.353c.02-.046 0-.069.02-.115l20.96 8.434c-4.74 11.867-11.2 28.804-18.68 48.713Zm58.4 45.233-40.58-15.899c-2.79-4.54-5.67-9.264-8.6-14.057 4.07-10.922 7.88-21.061 11.31-30.14l53.16 23.089-15.29 37.007Zm16.36-39.611-53.25-23.112c3.93-10.346 7.29-19.172 9.99-26.015l54.48 21.937-11.22 27.19Zm22.32-53.989-10.01 24.218-27.02-10.877c.14-.115.3-.23.37-.414l11.74-24.495 24.92 11.568Zm-26.85-14.011-12.32 25.762c-.11.231-.14.461-.11.692l-25.26-10.162c2.63-6.66 4.47-11.015 5.26-12.443 1.78-2.581 6.2-11.499 11.98-23.804l24.51 11.452-4.06 8.503Zm16.26-32.352c-.49.046-.93.299-1.14.76l-9.85 20.578-24.53-11.476c2.9-6.198 6.11-13.134 9.45-20.508l26.07 10.646Zm-60.1 28.158c-.86 1.13-3.23 6.614-6.72 15.301l-63.28-25.486 79.48-79.36c13.24-.875 24.48.046 31.64.991-17.73 39.703-37.82 83.854-41.12 88.554Zm69.58-153.512c-.63 1.636-1.16 3.018-1.6 4.055-3.23 7.604-11.37 26.154-20.96 47.722-7.53-1.244-21.77-2.903-39.19-1.636 31.76-12.074 49.23-30.393 61.75-50.141Zm-79.08 66.433c5.06-1.014 9.96-1.682 14.68-2.12l-78.01 77.885-4.882-1.958c-17.726-19.287-53.527-58.276-60.682-66.433-2.114-2.42-4.623-4.586-7.667-6.614 46.906 2.65 111.471 4.217 136.561-.76Zm-43.82-148.789-64.049 86.526a1.397 1.397 0 0 0-.209.415l-15.008 49.404c-24.301-1.175-45.837-2.742-57.731-4.17-3.23-.392-8.898-1.199-16.565-2.719 3.578-12.881 6.18-22.283 6.389-23.113.302-1.221 1.789-17.144 1.394-35.739l72.344-66.733c6.83-2.028 10.989-3.226 11.198-3.272a7.1 7.1 0 0 0 3.485-2.281l24.788-30.21 33.964 31.892Zm-68.231-12.144c-9.827 2.857-49.832 14.563-87.631 27.191-5.622-15.877-19.631-55.903-21.303-63.53-.465-2.097-4.066-17.835-9.502-41.639-.813-3.525-1.673-7.281-2.556-11.199l195.283-47.998 11.09 33.182-85.381 103.993ZM1136.59 90.165l-89.42 174.92-48.486-145.079 137.906-29.841ZM1010-83.856c13.68 12.72 92.95 108.625 107.56 126.322l-11.36 40.072-111.349 24.103-52.481-226.79c22.535 10.185 57.82 27.168 67.63 36.293Zm-57.292 70.511c-14.194 3.849-34.313 9.218-54.734 14.448v-46.362c0-.139-.023-.3-.07-.438l-20.327-61.825 58.195 20.993 16.936 73.184ZM713.861-388.3l90.396 6.844 14.008 39.334-52.945 3.595c-.093 0-.209.023-.302.046l-51.157 15.07V-388.3Zm0 67.815 51.807-15.254 53.573-3.641 4.67 13.089-110.05 53.367v-47.561Zm0 50.649 110.979-53.828 4.995 14.01c.023.069.07.138.093.207 2.16 5.807 13.753 28.113 28.412 55.603l-116.647 57.677a1.379 1.379 0 0 0-.627 1.866c.255.484.743.761 1.254.761.209 0 .419-.046.628-.139l116.693-57.699c22.977 42.998 52.876 97.564 66.119 121.69l6.272 27.076-78.686-28.389a7.05 7.05 0 0 0-4.136-.208l-90.023 23.043-55.432-47.998-5.018-45.511 30.504-15.047a1.357 1.357 0 0 0 .697-1.682l-16.1-48.436v-2.996h.023Zm-2.788-118.672v117.243c-.209.392-.255.853-.046 1.268.023.023.046.046.046.069v3.295c0 .138.024.3.07.438l15.775 47.492-28.483 14.056-17.4-158.075c.092.046.162.092.255.115l18.098 4.009v16.015l-14.357-1.521c-.767-.069-1.464.461-1.534 1.245a1.367 1.367 0 0 0 1.255 1.521l15.914 1.705h.139c.348 0 .674-.116.929-.346.302-.253.465-.645.465-1.037v-18.665c0-.645-.465-1.221-1.092-1.359l-19.19-4.24a1.424 1.424 0 0 0-1.115.23l-2.857-25.946 33.128 2.488Zm-30.828 70.074-21.234-4.24v-2.765c0-.115-.024-.23-.047-.345l-9.014-35.441 24.951-5.76 5.344 48.551Zm-7.969-72.378 2.323 21.084-25.322 5.853-5.669-22.282 28.668-4.655Zm-31.433 5.093 5.715 22.444-47.788 11.037-2.811-26.2 44.884-7.281Zm-47.671 7.742 2.834 26.384-55.432 12.812-4.948-29.864 57.546-9.332Zm-60.311 9.77 4.972 30.025-61.355 5.715c-.209-8.964-.395-17.881-.581-26.499l56.964-9.241Zm-58.985 122.52h-45.279l-3.113-21.891 47.3-1.59c.325 8.734.697 16.684 1.092 23.481Zm-3.299-99.937-4.414-12.72h4.135c.093 4.171.186 8.433.279 12.72Zm-.976-50.142c.163 10.3.395 22.121.627 34.657h-5.041l-11.779-34.012 16.193-.645Zm-66.327 2.627 47.23-1.867 11.732 33.897h-60.681l1.719-32.03Zm-62.285 63.414c10.338-7.097 36.451-26.108 39.866-28.596h19.236l63.121-.023 7.574 21.868c.511 22.305 1.138 45.141 1.882 64.52l-48.834 1.636c-.395.023-.767.185-1.022.507-.256.3-.372.691-.325 1.083l3.508 24.61a1.4 1.4 0 0 0 1.394 1.198h46.672c.512 8.411 1.069 14.771 1.673 18.181 3.717 21.177 11.756 142.66 13.73 172.87l-78.082 8.917c-2.904.046-24.417.346-49.693.277v-60.074a1.21 1.21 0 0 0-.093-.484L285.813-307.95c7.76-2.489 44.977-14.771 55.176-21.776Zm-220.54 98.279c6.528-6.475 20.932-33.159 23.092-37.192l110.7-40.44 28.738 1.636 75.875 204.968v59.82c-26.949-.116-57.452-.715-74.109-2.535C254.59-48.508 181.781-66.505 165.007-70.7l-36.334-95.628a6.982 6.982 0 0 0-1.603-2.466l-40.75-40.441c11.176-6.521 29.343-17.466 34.129-22.213Zm-379.633-39.381 3.926-89.361 62.308 16.269c.116.023.232.046.349.046a1.38 1.38 0 0 0 1.37-1.106l6.459-31.316 55.176 14.126-3.137 16.66c-9.107 13.71-16.123 24.379-18.794 28.596l-80.406 52.999-27.251-6.913Zm99.618-24.103c-4.948 14.886-13.056 39.173-21.675 63.599l-47.927-17.72 69.602-45.879Zm-72.506 47.768 49.879 18.435c-12.151 34.242-25.091 68.069-31.596 75.696-1.673 1.982-3.81 4.01-6.226 6.061l-49.67-31.108-4.089-21.177-3.484-18.158 45.186-29.749Zm9.803 102.081c-18.771 14.794-52.457 30.002-62.842 33.159-1.347.415-5.041 2.281-10.594 5.277-10.686.092-25.02 1.314-37.751 2.535 13.195-9.724 29.109-35.21 30.573-37.583l32.176-33.735 48.438 30.347Zm-50.25-32.974-32.432 13.295-5.018-8.18 33.895-23.642 3.555 18.527Zm-44.257-82.471-16.936-2.466-13.149-45.372 12.266-4.055 17.819 51.893Zm-37.868-109.985 9.014 15.715c-1.533 1.867-1.998 4.356-1.208 6.614l11.36 33.136-12.15 4.009-3.206-11.107c-.163-.53-.627-.944-1.185-.99l-13.939-1.59-16.03-22.721 27.344-23.066Zm-29.528 24.863 16.239 23.02a1.4 1.4 0 0 0 .999.577l13.637 1.543 17.122 59.129c.163.53.604.922 1.139.991l19.259 2.811 13.73 39.98c-5.297 3.571-15.287 10.093-28.296 17.651l-26.624-4.332c.046-.208.07-.415.023-.646l-20.885-95.882c-.07-.368-.326-.691-.651-.898a1.395 1.395 0 0 0-1.092-.162l-32.989 8.964-8.782-21.453 37.171-31.293Zm13.475 90.721 10.942 50.188-49.925-8.111-7.365-31.731 46.348-10.346Zm-46.975 7.65-9.014-38.873 46.44-12.628 8.968 41.132-46.394 10.369Zm8.154 37.261 75.365 12.259c-20.979 11.936-48.834 25.831-77.479 34.657l2.114-46.916Zm-38.936-143.144 14.566 3.641 2.021 39.75-39.192 4.216-8.317-36.177 30.922-11.43Zm-33.687 11.868 8.294 36.062-60.821 6.521 2.068-47.077 50.459 4.494Zm-56.778-50.027 14.519 3.019-10.593 39.519-11.941-1.06 8.015-41.478Zm-37.009 57.331 27.576-13.203 12.941 1.152-2.045 47.1-41.515-10.738 3.043-24.311Zm-15.774 63 3.624-38.159 26.205 6.774-4.437 36.362-25.392-4.977Zm47.207 59.935 4.251-47.377 37.264-1.889 7.597 48.529-49.112.737Zm44.094-50.925c-.116-.715-.743-1.198-1.464-1.175l-39.564 2.004-22.116-4.332 4.414-36.2 22.651 5.853a.8.8 0 0 0 .232.023c.023 0 .047.023.047.023h.209l105.751-11.361c.024 0 .047-.023.07-.023.232-.046.418-.115.581-.253.023-.023.07-.023.093-.046l5.901-4.977 8.294 20.3-13.475 3.664a1.407 1.407 0 0 0-.999 1.659l17.122 73.83-79.941 1.176-7.806-50.165Zm45.326 107.473c-9.107.599-18.702.414-28.553-.3l-8.502-54.243 79.801-1.199-2.16 48.045c-13.591 4.01-27.344 6.821-40.586 7.697Zm39.238 7.143c62.68-16.983 122.27-59.036 126.126-61.778l9.967-6.568 3.113 16.153-35.986 25.117c-.604.415-.767 1.245-.395 1.867l6.342 10.3a1.4 1.4 0 0 0 1.742.553l28.529-11.706-28.575 29.956a.891.891 0 0 0-.186.231c-.232.368-22.186 35.901-35.22 39.818a4.553 4.553 0 0 1-.534.046c-.674.069-1.347.138-2.021.185v-25.647c0-.646-.441-1.199-1.069-1.36l-71.833-17.167Zm41.957 12.881 28.134 6.729v24.817c-5.39.507-9.92.922-12.638 1.06-3.787.161-11.547-1.083-20.398-2.88l4.902-29.726ZM-550.489 11.496l3.253-14.955a1.207 1.207 0 0 0-.07-.807l-17.587-43.09 1.162-28.804 101.105-39.035 39.378 2.742c3.531.945 52.737 13.895 64.98 13.365 3.554-.161 10.059-.783 17.586-1.521 11.733-1.129 27.298-2.65 39.657-3.11C-346.49-78.533-474.776-2.077-538.966 36.313l-11.523-24.817Zm17.447 37.514C-428.01-13.806-290.919-94.986-280.999-98.627c12.383-3.779 60.868-25.324 77.92-45.418 11.569-13.641 35.405-82.31 57.174-147.683 2.764-8.272 5.157-15.485 5.808-17.167 1.487-2.465 10.338-15.877 22.604-34.334l106.077 9.425 39.89 86.273c.348.76.836 1.428 1.417 2.028l86.167 85.466 34.894 91.85-26.298 13.503c-1.813.922-3.113 2.604-3.601 4.563l-14.544 60.557a6.856 6.856 0 0 0 .883 5.3L132.39 55.23l-5.181 103.694-80.173 60.304c-19.074 6.106-267.516 85.789-402.749 143.558a18131.29 18131.29 0 0 0-20.839-52.008c-9.362-23.273-18.213-45.303-19.747-49.773-.209-3.733-2.788-6.06-35.126-31.154-13.219-10.277-29.691-23.043-32.502-26.223-3.647-4.148-12.522-26.938-18.957-46.616a10.455 10.455 0 0 0-.302-.761L-533.042 49.01Zm-49.159 187.64 27.275-13.849c.279-.139.511-.392.65-.669l17.122-38.435a.956.956 0 0 0 .093-.346l3.299-21.845 32.13-11.913 5.622 12.051c2.625 7.973 14.38 42.861 21.606 51.064 2.067 2.35 7.248 6.682 15.216 13.019l-48.229 24.311c-.65.322-.952 1.106-.65 1.774l39.935 93.071-58.66 22.559-55.409-130.792Zm56.454 133.373 58.684-22.582 12.29 28.665-58.824 22.628-12.15-28.711Zm13.242 31.246 60.031-23.089 12.383-3.272 7.922 21.73a20702.675 20702.675 0 0 0-69.115 31.131l-11.221-26.5Zm-41.329 65.719a16784.581 16784.581 0 0 1 55.036-25.025l17.703 47.861a20407.92 20407.92 0 0 1-54.618 23.734l-18.121-46.57ZM-591.4 540.68c15.612-6.729 34.22-14.771 54.153-23.412l35.127 90.167c.046.093.116.139.186.208l-59.66 21.176-29.806-88.139Zm30.689 90.766 43.142-15.3c.023.092.023.184.046.276l8.921 22.767-43.42 17.904-8.689-25.647Z" fill="#6775FF"/></g></svg>