<svg width="30" height="30" viewBox="0 0 30 30" fill="none" xmlns="http://www.w3.org/2000/svg"><rect width="30" height="30" rx="2" fill="#7481FF"/><path d="M14.857 10.696a4.137 4.137 0 0 0-4.129 4.129 4.116 4.116 0 0 0 4.13 4.129 4.137 4.137 0 0 0 4.128-4.13c0-2.258-1.87-4.128-4.129-4.128Zm0 6.774a2.657 2.657 0 0 1-2.645-2.645 2.657 2.657 0 0 1 2.645-2.646 2.657 2.657 0 0 1 2.646 2.646 2.657 2.657 0 0 1-2.646 2.645Zm4.293-5.936a.936.936 0 1 0 0-1.87.936.936 0 0 0 0 1.87Z" fill="#fff"/><path d="M21.567 8.18c-.839-.871-2.032-1.323-3.387-1.323h-6.645c-2.807 0-4.678 1.871-4.678 4.678v6.613c0 1.387.452 2.58 1.355 3.451.871.839 2.032 1.258 3.355 1.258h6.58c1.388 0 2.549-.451 3.388-1.258.87-.839 1.322-2.032 1.322-3.42v-6.644c0-1.355-.451-2.517-1.29-3.355Zm-.13 10c0 1-.354 1.806-.935 2.355-.58.548-1.387.838-2.354.838h-6.581c-.968 0-1.774-.29-2.355-.838-.58-.581-.871-1.387-.871-2.387v-6.613c0-.968.29-1.775.871-2.355.548-.549 1.387-.839 2.355-.839h6.645c.968 0 1.774.29 2.355.871.548.58.87 1.387.87 2.323v6.645Z" fill="#fff"/></svg>