<svg width="93" height="58" viewBox="0 0 93 58" fill="none" xmlns="http://www.w3.org/2000/svg"><path fill-rule="evenodd" clip-rule="evenodd" d="M36.899 23.2H13.836L0 0h16.494c2.002 0 3.97.52 5.712 1.51a11.586 11.586 0 0 1 4.225 4.14L36.899 23.2Z" fill="#D2D6FF"/><path fill-rule="evenodd" clip-rule="evenodd" d="M66.171 5.556 55.422 23.2H13.744l17.642 29.207a11.586 11.586 0 0 0 4.22 4.1A11.556 11.556 0 0 0 41.291 58H51.38c2.006 0 3.977-.523 5.721-1.517a11.588 11.588 0 0 0 4.226-4.152L78.616 23.2 92.752 0h-16.7c-1.983 0-3.934.511-5.664 1.484a11.587 11.587 0 0 0-4.216 4.072Z" fill="#7380FF"/></svg>